<?xml version="1.0" encoding="UTF-8" standalone="no"?>
<!-- Created with Inkscape (http://www.inkscape.org/) -->

<svg
   width="297mm"
   height="210mm"
   viewBox="0 0 297 210"
   version="1.1"
   id="svg50282"
   inkscape:version="1.2.1 (9c6d41e410, 2022-07-14)"
   sodipodi:docname="anagramaAveFenix.svg"
   inkscape:export-filename="anagramaAveFenix.png"
   inkscape:export-xdpi="200"
   inkscape:export-ydpi="200"
   xmlns:inkscape="http://www.inkscape.org/namespaces/inkscape"
   xmlns:sodipodi="http://sodipodi.sourceforge.net/DTD/sodipodi-0.dtd"
   xmlns="http://www.w3.org/2000/svg"
   xmlns:svg="http://www.w3.org/2000/svg">
  <sodipodi:namedview
     id="namedview50284"
     pagecolor="#ffffff"
     bordercolor="#000000"
     borderopacity="0.25"
     inkscape:showpageshadow="2"
     inkscape:pageopacity="0.0"
     inkscape:pagecheckerboard="0"
     inkscape:deskcolor="#d1d1d1"
     inkscape:document-units="mm"
     showgrid="false"
     inkscape:zoom="1.1893044"
     inkscape:cx="673.92335"
     inkscape:cy="446.89989"
     inkscape:window-width="1920"
     inkscape:window-height="974"
     inkscape:window-x="-11"
     inkscape:window-y="-11"
     inkscape:window-maximized="1"
     inkscape:current-layer="layer1" />
  <defs
     id="defs50279">
    <clipPath
       clipPathUnits="userSpaceOnUse"
       id="clipPath12749">
      <path
         id="path12751"
         style="fill:#ff0000;fill-opacity:1;fill-rule:nonzero;stroke:none;stroke-width:0.264583"
         d="m 85.637666,113.77548 v 44.89959 h 46.711364 c 0.0498,-15.08285 0.28779,-30.60458 0,-44.89959 z m 21.602814,7.42074 c 0.0425,0.001 0.0851,-5.3e-4 0.12764,0.002 0.0204,10e-4 0.0406,0.003 0.061,0.004 0.0572,0.004 0.11372,0.0137 0.17002,0.0243 0.0567,0.0115 0.11266,0.0268 0.16846,0.0419 0.009,0.003 0.0174,0.005 0.0264,0.008 0.021,0.006 0.0305,0.009 0.0512,0.016 0.0238,0.008 0.0472,0.0167 0.0708,0.0258 0.0403,0.016 0.0792,0.0352 0.11886,0.0527 0.0231,0.0104 0.0454,0.0228 0.0677,0.0346 0.0268,0.0138 0.005,0.002 0.0315,0.0176 0.0334,0.0185 0.0642,0.0413 0.0951,0.0636 0.0373,0.028 0.0744,0.0557 0.11162,0.0837 0.0258,0.0211 0.0521,0.0421 0.0775,0.0636 0.0111,0.009 0.0238,0.021 0.0346,0.031 0.0329,0.0288 0.0671,0.0561 0.1018,0.0827 0.0222,0.0172 0.0446,0.0343 0.0667,0.0517 0.0195,0.0166 0.01,0.008 0.0295,0.0238 0.0277,0.0212 0.0521,0.0465 0.078,0.0698 0.0254,0.0241 0.0502,0.0485 0.0749,0.0734 0.0264,0.0265 0.0513,0.0545 0.077,0.0816 0.0139,0.0138 0.0262,0.0288 0.0398,0.0429 0.013,0.0135 0.0275,0.0259 0.0413,0.0388 0.0269,0.0222 0.0539,0.0452 0.0811,0.0672 0.0281,0.0252 0.0533,0.0532 0.0796,0.0801 0.0277,0.0268 0.0571,0.0515 0.0858,0.077 0.0312,0.0251 0.0596,0.0528 0.0879,0.0811 0.0222,0.0217 0.0436,0.0443 0.0661,0.0656 l 0.002,0.002 c 0.005,0.004 0.011,0.007 0.0155,0.0108 0.002,0.002 0.004,0.004 0.006,0.005 0.0119,0.009 8e-4,-0.002 0.0119,0.01 0.0121,0.01 0.0231,0.0213 0.0341,0.0326 l 0.008,0.008 c 5.3e-4,5.3e-4 2.6e-4,-2.6e-4 0.001,5.3e-4 0.005,0.005 0.01,0.01 0.015,0.0145 0.002,0.002 0.005,0.004 0.008,0.006 0.007,0.007 0.0142,0.0142 0.0222,0.0202 0.002,0.002 0.004,0.003 0.006,0.005 0.003,0.002 0.005,0.005 0.007,0.007 0.0118,0.0112 0.0225,0.0239 0.0326,0.0367 0.007,0.01 0.0137,0.02 0.0207,0.03 0.0111,0.017 0.0169,0.0355 0.007,0.0543 -7.9e-4,0.002 -0.001,0.005 -0.002,0.007 -0.005,0.0128 -0.0172,0.0223 -0.031,0.0253 -0.004,5.3e-4 -0.009,7e-5 -0.0135,5.3e-4 -0.0268,-0.002 -0.0529,-0.007 -0.0791,-0.0129 -0.0291,-0.007 -0.0579,-0.0153 -0.0863,-0.0253 -0.0305,-0.01 -0.0598,-0.022 -0.0894,-0.0341 -0.03,-0.014 -0.0607,-0.0266 -0.091,-0.0403 -0.0339,-0.0138 -0.068,-0.0267 -0.10181,-0.0408 -0.0332,-0.0125 -0.0653,-0.0276 -0.0971,-0.0429 -0.0189,-0.0108 -0.0392,-0.02 -0.0589,-0.0289 -0.008,-0.004 -0.0114,-0.005 -0.0129,-0.006 -0.002,-7.9e-4 -0.006,-0.003 -0.0139,-0.007 -0.0297,-0.0114 -0.0598,-0.0219 -0.0899,-0.032 l -0.015,-0.006 c -0.0166,-0.006 -0.0155,-0.005 -0.032,-0.0119 -0.0171,-0.007 -0.0334,-0.0146 -0.0501,-0.0228 -0.0341,-0.0169 -0.0681,-0.0335 -0.10232,-0.0501 -0.0361,-0.0161 -0.0719,-0.0335 -0.108,-0.0496 -0.0365,-0.0173 -0.072,-0.0356 -0.10749,-0.0548 -0.0365,-0.0198 -0.0733,-0.0397 -0.11008,-0.0589 -0.0344,-0.0176 -0.0678,-0.0373 -0.10179,-0.0558 -0.0346,-0.0204 -0.0688,-0.0416 -0.10336,-0.062 -0.0345,-0.0207 -0.0708,-0.0372 -0.108,-0.0527 -0.005,-0.002 -0.0266,-0.0121 -0.0326,-0.0139 l -0.0155,-0.006 -0.015,-0.006 c -0.0119,-0.005 -0.0175,-0.007 -0.0295,-0.0119 -0.0298,-0.0126 -0.0588,-0.0278 -0.0884,-0.0408 -0.0277,-0.0143 -0.0566,-0.0256 -0.0853,-0.0377 -0.0263,-0.0119 -0.0541,-0.0204 -0.0816,-0.0284 -0.005,-10e-4 -0.009,-0.003 -0.0139,-0.004 -0.005,-0.001 -0.009,-0.002 -0.014,-0.003 -0.0183,-0.005 -0.0364,-0.01 -0.0548,-0.0134 -0.0273,-0.006 -0.0546,-0.0115 -0.0822,-0.0155 -0.0269,-0.004 -0.054,-0.007 -0.0811,-0.009 -0.0243,-0.002 -0.0486,-0.004 -0.0729,-0.002 -0.0247,0.003 -0.0491,0.008 -0.0734,0.0134 -0.007,0.002 -0.0146,0.005 -0.0222,0.006 -0.0212,0.008 -0.0433,0.0147 -0.0646,0.0217 -0.0253,0.008 -0.0502,0.0182 -0.077,0.0202 -0.0273,0.004 -0.055,0.006 -0.0827,0.006 -0.008,1.4e-4 -0.0162,1.8e-4 -0.0243,0 -0.0205,0.003 -0.0412,0.006 -0.0615,0.0104 -0.0106,0.001 -0.0209,0.002 -0.0315,0.004 0.0108,0.0135 10e-4,0.0349 -0.0295,0.0382 -0.018,0.002 -0.0358,10e-4 -0.0538,-0.001 -0.0152,-0.002 -0.0299,-0.005 -0.0444,-0.01 -0.007,-0.002 -0.0152,-0.005 -0.0222,-0.008 -0.0113,-0.005 -0.0222,-0.01 -0.0331,-0.0155 h -5.3e-4 c -0.009,-10e-4 -0.0184,-0.003 -0.0274,-0.005 -0.0173,-0.003 -0.0345,-0.007 -0.0517,-0.0108 -0.0147,-0.004 -0.0292,-0.009 -0.0434,-0.015 -0.008,-0.004 -0.0173,-0.008 -0.0243,-0.0139 -0.001,-0.001 -0.008,-0.007 -0.009,-0.008 -0.008,-0.006 -0.0147,-0.0142 -0.0207,-0.0222 -0.005,-0.008 -0.0105,-0.0158 -0.0155,-0.0248 -0.004,-0.009 -0.008,-0.0184 -0.0124,-0.0284 -0.003,-0.009 -0.008,-0.0174 -0.0103,-0.0264 -0.004,-0.01 -0.007,-0.0209 -0.009,-0.0315 -2.6e-4,-0.003 -7.9e-4,-0.005 -0.001,-0.005 -1.6e-4,-7.9e-4 2.2e-4,-0.003 -5.3e-4,-0.007 -0.001,-0.003 -0.001,-0.007 -0.002,-0.0114 -0.004,-0.0189 0.003,-0.0305 0.0119,-0.0351 -5e-5,-0.005 -2.2e-4,-0.0103 0,-0.0155 10e-4,-0.014 0.002,-0.0282 0.005,-0.0419 0.001,-0.007 0.003,-0.0137 0.005,-0.0207 0.001,-0.004 0.002,-0.007 0.003,-0.0114 0.001,-0.004 0.003,-0.007 0.004,-0.0103 0.005,-0.0148 0.0112,-0.0295 0.0171,-0.0439 0.01,-0.0215 0.0203,-0.0422 0.0315,-0.063 0.0123,-0.021 0.0268,-0.0414 0.0414,-0.061 0.0162,-0.0207 0.0337,-0.0402 0.0522,-0.0589 0.0166,-0.014 0.0324,-0.0281 0.0501,-0.0408 0.01,-0.007 0.0194,-0.0127 0.0294,-0.0196 0.0218,-0.0135 0.0445,-0.0267 0.0682,-0.0367 0.007,-0.003 0.0369,-0.014 0.0429,-0.016 0.0455,-0.0155 0.0915,-0.0303 0.13746,-0.0444 0.007,-0.002 0.0152,-0.004 0.0222,-0.006 0.0239,-0.007 0.0194,-0.006 0.0434,-0.0124 0.0224,-0.005 0.0451,-0.0105 0.0677,-0.0145 0.0555,-0.009 0.11185,-0.009 0.16795,-0.0104 z m 0.30386,0.31264 c -0.001,4e-5 -0.003,5.3e-4 -0.004,5.3e-4 0.002,0.002 0.004,0.004 0.005,0.006 -2.1e-4,-0.002 -7.9e-4,-0.004 -10e-4,-0.007 z m -0.15348,0.006 c -0.001,6e-5 -0.002,5.3e-4 -0.004,5.3e-4 0.001,4e-5 0.002,-3e-5 0.004,0 z m -0.43977,0.0594 -0.002,0.002 c -0.001,10e-4 -0.003,0.002 -0.003,0.004 0.001,0.002 0.003,-0.002 0.004,-0.003 1.3e-4,-5.3e-4 2.7e-4,-0.002 5.3e-4,-0.003 z m 0.63459,0.15245 c 0.001,2.6e-4 0.002,7.9e-4 0.003,0.001 8e-4,-1.6e-4 0.001,-2.7e-4 0.002,-5.3e-4 -0.002,-1.1e-4 -0.003,-5.3e-4 -0.005,-5.3e-4 z m -1.08365,0.0104 c 2.7e-4,0.009 -2.6e-4,0.0181 0.003,0.0269 5.3e-4,0.001 0.002,0.002 0.002,0.004 l 0.003,-0.009 c 0.002,-0.005 0.005,-0.009 0.009,-0.0129 -2.6e-4,-0.002 -7.9e-4,-0.005 -0.001,-0.007 -0.006,-8e-4 -0.0106,-10e-4 -0.015,-0.002 z m 1.2423,0.0227 c -0.004,0.002 -0.007,0.003 -0.0109,0.005 0.001,0.001 0.006,0.002 0.006,0.004 1e-5,9e-5 5.3e-4,-9e-5 5.3e-4,0 0.002,-0.003 0.002,-0.005 0.005,-0.009 z m -0.8847,0.10801 c 1.2e-4,8e-4 2.5e-4,0.002 5.3e-4,0.003 0.003,-2.6e-4 0.005,-8e-4 0.008,-10e-4 l -0.002,-0.002 c -5.3e-4,2e-5 -2.7e-4,-3e-5 -0.002,0 -0.002,5e-5 -0.003,1e-5 -0.005,0 z m 1.31878,0.28008 c 0.004,0.002 0.008,0.005 0.0124,0.008 0.0111,0.006 0.0219,0.0131 0.0331,0.0191 0.005,0.003 0.0111,0.006 0.0171,0.009 0.0169,0.009 0.0334,0.0178 0.0506,0.0269 0.0223,0.0123 0.0189,0.0111 0.016,0.009 -0.002,-8e-4 -5.3e-4,2e-4 0.002,0.001 0.002,0.001 0.008,0.003 0.0186,0.009 0.0149,0.008 0.0216,0.0127 0.0367,0.0207 0.006,0.004 0.0126,0.007 0.0186,0.0104 0.006,0.003 0.0126,0.008 0.0186,0.0108 0.0347,0.0188 0.0703,0.0362 0.10593,0.0532 0.036,0.0165 0.0708,0.0335 0.10698,0.0496 0.01,0.005 0.013,0.006 0.015,0.007 0.002,7.9e-4 0.004,0.002 0.003,0.002 5.3e-4,2.5e-4 2.6e-4,7e-5 0.001,5.2e-4 0.003,0.001 0.006,0.003 0.0176,0.008 0.0224,0.0108 0.0441,0.0231 0.0667,0.0336 0.0208,0.01 0.0422,0.0176 0.0636,0.0258 -0.002,-0.001 2.7e-4,2.6e-4 -0.007,-0.004 -0.008,-0.003 -0.0157,-0.007 -0.0238,-0.01 -0.0301,-0.0115 -0.0585,-0.0272 -0.0868,-0.0424 -0.0292,-0.0178 -0.0587,-0.0352 -0.0889,-0.0512 -0.0173,-0.009 -0.0343,-0.0194 -0.0517,-0.0284 -0.0159,-0.008 -0.008,-0.004 -0.0238,-0.0119 -0.0148,-0.007 -0.0295,-0.0157 -0.0444,-0.0227 -0.005,-0.002 -0.006,-0.003 -0.007,-0.004 -7.9e-4,-2.6e-4 -0.005,-0.002 -0.015,-0.007 -0.007,-0.004 -0.0142,-0.007 -0.0212,-0.01 -0.003,-0.002 -0.006,-0.004 -0.01,-0.006 -0.007,-0.003 -0.0152,-0.006 -0.0222,-0.009 -0.004,-0.002 -0.007,-0.003 -0.01,-0.005 -0.0181,-0.008 -0.0363,-0.0153 -0.0538,-0.0243 -0.003,-0.001 -0.005,-0.002 -0.008,-0.003 -0.003,-0.001 -0.005,-0.003 -0.008,-0.004 -0.0109,-0.005 -0.0222,-0.009 -0.0331,-0.0145 -0.007,-0.005 -0.0158,-0.006 -0.0238,-0.0104 -0.002,-10e-4 -0.005,-0.003 -0.007,-0.004 -0.008,-0.005 -0.008,-0.004 -0.0155,-0.008 -0.0143,-0.008 -0.0284,-0.0153 -0.0429,-0.0233 z"
         sodipodi:nodetypes="ccccccccccccccccccccccccccscccccccccccscccccccccccccccccccccccccccccccccccccccsccccccccccccccccccccccccccccccccccccccccccccccccccccccccccccccscccccccccccccccccccscccccccscccccccccccccccccccccccccccccccccccsccccccc" />
    </clipPath>
    <inkscape:path-effect
       effect="bspline"
       id="path-effect2562"
       is_visible="true"
       lpeversion="1"
       weight="33.333333"
       steps="2"
       helper_size="0"
       apply_no_weight="true"
       apply_with_weight="true"
       only_selected="false" />
    <inkscape:path-effect
       effect="bspline"
       id="path-effect2566"
       is_visible="true"
       lpeversion="1"
       weight="33.333333"
       steps="2"
       helper_size="0"
       apply_no_weight="true"
       apply_with_weight="true"
       only_selected="false" />
  </defs>
  <g
     inkscape:label="Capa 1"
     inkscape:groupmode="layer"
     id="layer1">
    <g
       id="g6655"
       transform="matrix(3.8350487,0,0,4.9534052,-412.73108,-825.43935)"
       style="fill:#4471b2;stroke:#4471b2;stroke-width:0.102558;fill-opacity:1;stroke-opacity:1">
      <g
         aria-label="VE FÉNIX"
         id="text6641"
         style="font-weight:bold;font-size:16.9333px;font-family:'League Gothic';-inkscape-font-specification:'League Gothic Bold';text-align:center;text-anchor:middle;stroke-width:0.102558;fill:#4471b2;fill-opacity:1;stroke:#4471b2;stroke-opacity:1">
        <g
           id="path68711"
           style="stroke-width:0.102558;fill:#4471b2;fill-opacity:1;stroke:#4471b2;stroke-opacity:1">
          <path
             style="color:#000000;-inkscape-font-specification:'League Gothic Bold';stroke:#4471b2;stroke-width:0.102558;-inkscape-stroke:none;fill:#4471b2;fill-opacity:1;stroke-opacity:1"
             d="m 134.63637,182.0265 h 1.778 l -1.89653,12.44597 h -1.8288 l -1.89653,-12.44597 h 1.778 l 0.9144,6.84105 0.0677,0.52493 h 0.1016 l 0.0677,-0.52493 z"
             id="path68728" />
          <path
             style="color:#000000;-inkscape-font-specification:'League Gothic Bold';fill:#4471b2;stroke:#4471b2;stroke-width:0.102558;-inkscape-stroke:none;fill-opacity:1;stroke-opacity:1"
             d="m 130.73437,181.97656 1.91211,12.54492 h 1.91407 l 1.91211,-12.54492 h -1.87891 l -0.006,0.043 -0.91602,6.8418 -0.0605,0.48242 h -0.0156 l -0.0625,-0.48242 -0.91992,-6.88477 z m 0.11524,0.0996 h 1.67773 l 0.90821,6.79688 0.0742,0.56836 h 0.1875 l 0.0742,-0.56836 0.90821,-6.79688 h 1.67773 l -1.88281,12.34766 h -1.74219 z"
             id="path68730" />
        </g>
        <g
           id="path68713"
           style="stroke-width:0.102558;fill:#4471b2;fill-opacity:1;stroke:#4471b2;stroke-opacity:1">
          <path
             style="color:#000000;-inkscape-font-specification:'League Gothic Bold';stroke:#4471b2;stroke-width:0.102558;-inkscape-stroke:none;fill:#4471b2;fill-opacity:1;stroke-opacity:1"
             d="m 137.24411,182.0265 h 4.18252 v 1.87959 h -2.35373 v 3.26813 h 1.69333 v 1.99813 h -1.69333 v 3.42053 h 2.35373 v 1.87959 h -4.18252 z"
             id="path68734" />
          <path
             style="color:#000000;-inkscape-font-specification:'League Gothic Bold';fill:#4471b2;stroke:#4471b2;stroke-width:0.102558;-inkscape-stroke:none;fill-opacity:1;stroke-opacity:1"
             d="m 137.19531,181.97656 v 0.0508 12.49414 h 4.28125 v -1.97851 h -2.35351 v -3.32031 h 1.69336 V 187.125 h -1.69336 v -3.16992 h 2.35351 v -1.97852 z m 0.0977,0.0996 h 4.08398 v 1.78125 h -2.35351 v 3.36719 h 1.69336 v 1.89844 h -1.69336 v 3.51953 h 2.35351 v 1.78125 h -4.08398 z"
             id="path68736" />
        </g>
        <g
           id="path68715"
           style="stroke-width:0.102558;fill:#4471b2;fill-opacity:1;stroke:#4471b2;stroke-opacity:1">
          <path
             style="color:#000000;-inkscape-font-specification:'League Gothic Bold';stroke:#4471b2;stroke-width:0.102558;-inkscape-stroke:none;fill:#4471b2;fill-opacity:1;stroke-opacity:1"
             d="m 149.40219,183.90609 h -2.52306 v 3.26813 h 1.69333 v 1.8796 h -1.69333 v 5.41865 h -1.8288 V 182.0265 h 4.35186 z"
             id="path68740" />
          <path
             style="color:#000000;-inkscape-font-specification:'League Gothic Bold';fill:#4471b2;stroke:#4471b2;stroke-width:0.102558;-inkscape-stroke:none;fill-opacity:1;stroke-opacity:1"
             d="m 145,181.97656 v 12.54492 h 1.92773 v -5.41796 h 1.69336 V 187.125 h -1.69336 v -3.16992 h 2.52344 v -0.0488 -1.92969 z m 0.0996,0.0996 h 4.25391 v 1.78125 h -2.52344 v 3.36719 h 1.69336 v 1.7793 h -1.69336 v 5.41992 h -1.73047 z"
             id="path68742" />
        </g>
        <g
           id="path68717"
           style="stroke-width:0.102558;fill:#4471b2;fill-opacity:1;stroke:#4471b2;stroke-opacity:1">
          <path
             style="color:#000000;-inkscape-font-specification:'League Gothic Bold';stroke:#4471b2;stroke-width:0.102558;-inkscape-stroke:none;fill:#4471b2;fill-opacity:1;stroke-opacity:1"
             d="m 154.07579,179.40184 -1.33773,1.52399 h -1.3208 l 0.88053,-1.52399 z m -3.92852,2.62466 h 4.18252 v 1.87959 h -2.35373 v 3.26813 h 1.69333 v 1.99813 h -1.69333 v 3.42053 h 2.35373 v 1.87959 h -4.18252 z"
             id="path68746" />
          <path
             style="color:#000000;-inkscape-font-specification:'League Gothic Bold';fill:#4471b2;stroke:#4471b2;stroke-width:0.102558;-inkscape-stroke:none;fill-opacity:1;stroke-opacity:1"
             d="m 152.26953,179.35156 -0.9375,1.62305 h 1.42774 l 1.42578,-1.62305 h -0.10938 z m 0.0566,0.0996 h 1.64063 l -1.25196,1.42578 h -1.21093 z m -2.22851,2.52539 v 0.0508 12.49414 h 4.28125 v -1.97851 h -2.35352 v -3.32031 h 1.69336 V 187.125 h -1.69336 v -3.16992 h 2.35352 v -1.97852 z m 0.0996,0.0996 h 4.08398 v 1.78125 h -2.35547 v 3.36719 h 1.69336 v 1.89844 h -1.69336 v 3.51953 h 2.35547 v 1.78125 h -4.08398 z"
             id="path68748" />
        </g>
        <g
           id="path68719"
           style="stroke-width:0.102558;fill:#4471b2;fill-opacity:1;stroke:#4471b2;stroke-opacity:1">
          <path
             style="color:#000000;-inkscape-font-specification:'League Gothic Bold';stroke:#4471b2;stroke-width:0.102558;-inkscape-stroke:none;fill:#4471b2;fill-opacity:1;stroke-opacity:1"
             d="m 157.27617,187.98702 -0.1524,-0.57573 h -0.1016 v 7.06118 h -1.67639 V 182.0265 h 1.62559 l 1.778,6.48545 0.1524,0.57573 h 0.1016 v -7.06118 h 1.6764 v 12.44597 h -1.6256 z"
             id="path68752" />
          <path
             style="color:#000000;-inkscape-font-specification:'League Gothic Bold';fill:#4471b2;stroke:#4471b2;stroke-width:0.102558;-inkscape-stroke:none;fill-opacity:1;stroke-opacity:1"
             d="m 155.29687,181.97656 v 12.54492 h 1.7754 v -7.06054 h 0.0137 l 0.14258,0.53906 1.7871,6.52148 h 1.7129 v -12.54492 h -1.7754 v 7.0625 h -0.0137 l -0.14258,-0.53906 -1.7871,-6.52344 z m 0.0977,0.0996 h 1.53906 l 1.76758,6.44922 0.16211,0.61133 h 0.18945 v -7.06055 h 1.57813 v 12.34766 h -1.53906 l -1.76758,-6.44922 -0.16211,-0.61328 h -0.18945 v 7.0625 h -1.57813 z"
             id="path68754" />
        </g>
        <g
           id="path68721"
           style="stroke-width:0.102558;fill:#4471b2;fill-opacity:1;stroke:#4471b2;stroke-opacity:1">
          <path
             style="color:#000000;-inkscape-font-specification:'League Gothic Bold';stroke:#4471b2;stroke-width:0.102558;-inkscape-stroke:none;fill:#4471b2;fill-opacity:1;stroke-opacity:1"
             d="m 162.03444,182.0265 h 1.82879 v 12.44597 h -1.82879 z"
             id="path68758" />
          <path
             style="color:#000000;-inkscape-font-specification:'League Gothic Bold';fill:#4471b2;stroke:#4471b2;stroke-width:0.102558;-inkscape-stroke:none;fill-opacity:1;stroke-opacity:1"
             d="m 161.98437,181.97656 v 0.0508 12.49414 h 1.92774 v -12.54492 z m 0.0996,0.0996 h 1.73047 v 12.34766 h -1.73047 z"
             id="path68760" />
        </g>
        <g
           id="path68723"
           style="stroke-width:0.102558;fill:#4471b2;fill-opacity:1;stroke:#4471b2;stroke-opacity:1">
          <path
             style="color:#000000;-inkscape-font-specification:'League Gothic Bold';stroke:#4471b2;stroke-width:0.102558;-inkscape-stroke:none;fill:#4471b2;fill-opacity:1;stroke-opacity:1"
             d="m 166.47096,194.47247 h -1.79493 l 2.01506,-6.53625 -1.9812,-5.90972 h 1.79493 l 0.99907,3.14959 0.0508,0.1524 h 0.0677 l 0.0508,-0.1524 0.99907,-3.14959 h 1.79493 l -1.9812,5.90972 2.01506,6.53625 h -1.79493 l -1.04986,-3.70839 -0.0339,-0.1524 h -0.0677 l -0.0339,0.1524 z"
             id="path68764" />
          <path
             style="color:#000000;-inkscape-font-specification:'League Gothic Bold';fill:#4471b2;stroke:#4471b2;stroke-width:0.102558;-inkscape-stroke:none;fill-opacity:1;stroke-opacity:1"
             d="m 164.64062,181.97656 1.99805,5.96094 -2.0293,6.58398 h 1.89844 l 0.0117,-0.0351 1.04883,-3.71094 0.0195,-0.0879 0.0195,0.0879 1.06055,3.74609 h 1.90039 l -2.03125,-6.58398 1.99805,-5.96094 h -1.89844 l -1.00977,3.1836 -0.0391,0.11328 -0.0371,-0.11328 -1.00976,-3.1836 z m 0.13672,0.0996 h 1.69141 l 0.98828,3.11524 0.0625,0.1875 h 0.13867 l 0.0625,-0.1875 0.98828,-3.11524 h 1.68946 l -1.96485,5.85938 2,6.48828 h -1.68945 l -1.03906,-3.67188 -0.043,-0.18945 h -0.14649 l -0.043,0.18945 -1.03907,3.67188 h -1.6914 l 2,-6.48828 z"
             id="path68766" />
        </g>
      </g>
      <g
         aria-label="MARMOLEJO"
         id="text6645"
         style="font-size:4.23333px;font-family:'Montserrat Alternates';-inkscape-font-specification:'Montserrat Alternates, Normal';text-align:center;text-anchor:middle;stroke-width:0.102558;fill:#4471b2;fill-opacity:1;stroke:#4471b2;stroke-opacity:1">
        <g
           id="path68768"
           style="stroke-width:0.102558;fill:#4471b2;fill-opacity:1;stroke:#4471b2;stroke-opacity:1">
          <path
             style="color:#000000;-inkscape-font-specification:'Montserrat Alternates, Normal';stroke:#4471b2;stroke-width:0.102558;-inkscape-stroke:none;fill:#4471b2;fill-opacity:1;stroke-opacity:1"
             d="m 144.15113,196.66984 q 0.50799,0 0.79163,0.2921 0.28363,0.2921 0.28363,0.84666 v 1.84997 h -0.30903 v -1.8415 q 0,-0.4318 -0.22014,-0.6477 -0.21589,-0.22013 -0.59266,-0.22013 -0.39793,0 -0.6223,0.23283 -0.22437,0.2286 -0.22437,0.70273 v 1.77377 h -0.30903 v -1.8415 q 0,-0.4318 -0.21167,-0.6477 -0.21166,-0.22013 -0.58843,-0.22013 -0.40217,0 -0.63077,0.23283 -0.22436,0.2286 -0.22436,0.70273 v 1.77377 h -0.31327 v -2.96333 h 0.30057 v 0.4953 q 0.12276,-0.254 0.36406,-0.38523 0.2413,-0.13547 0.5715,-0.13547 0.34714,0 0.59267,0.14817 0.24977,0.14393 0.35983,0.40639 0.127,-0.27093 0.381,-0.41063 0.25824,-0.14393 0.60114,-0.14393 z"
             id="path68789" />
          <path
             style="color:#000000;-inkscape-font-specification:'Montserrat Alternates, Normal';fill:#4471b2;stroke:#4471b2;stroke-width:0.102558;-inkscape-stroke:none;fill-opacity:1;stroke-opacity:1"
             d="m 142.2168,196.62109 c -0.22691,0 -0.42643,0.0456 -0.59571,0.14063 -0.1282,0.0697 -0.21013,0.18933 -0.29101,0.30859 v -0.42383 h -0.39844 v 3.0625 h 0.41211 v -1.82421 c 0,-0.30828 0.0714,-0.52778 0.20898,-0.66797 0.14224,-0.14487 0.33715,-0.21875 0.59571,-0.21875 0.24154,0 0.4218,0.0689 0.55273,0.20507 0.12957,0.13216 0.19727,0.33351 0.19727,0.61329 v 1.89257 h 0.4082 v -1.82421 c 0,-0.30828 0.0733,-0.52778 0.21094,-0.66797 0.13943,-0.14469 0.33226,-0.21875 0.58789,-0.21875 0.24154,0 0.42279,0.0686 0.55664,0.20507 v 0.002 c 0.13498,0.13238 0.20508,0.33187 0.20508,0.61133 v 1.89257 h 0.4082 v -1.90039 c 0,-0.37814 -0.0969,-0.67489 -0.29687,-0.88086 -0.19939,-0.20532 -0.47998,-0.30664 -0.82813,-0.30664 -0.23553,0 -0.4447,0.0499 -0.625,0.15039 -0.15748,0.0869 -0.26777,0.22406 -0.35547,0.38282 -0.0787,-0.15429 -0.18154,-0.28994 -0.33594,-0.37891 -0.17252,-0.10411 -0.37871,-0.1543 -0.61718,-0.1543 z m 0,0.0977 c 0.22438,0 0.41155,0.0491 0.5664,0.14258 h 0.002 c 0.15796,0.091 0.26843,0.21718 0.33789,0.38281 l 0.043,0.10156 0.0469,-0.0996 c 0.0807,-0.17209 0.20078,-0.30037 0.36133,-0.38867 0.16402,-0.0914 0.3545,-0.13867 0.57617,-0.13867 0.32917,0 0.57901,0.0932 0.75781,0.27734 0.17818,0.1835 0.26953,0.45124 0.26953,0.8125 v 1.80078 h -0.21093 v -1.79296 c 0,-0.29628 -0.0758,-0.52616 -0.23438,-0.68164 -0.154,-0.15704 -0.36613,-0.23438 -0.62695,-0.23438 -0.27494,0 -0.49848,0.0823 -0.6582,0.24805 -0.16078,0.16462 -0.23829,0.41321 -0.23829,0.73633 v 1.7246 h -0.21093 v -1.79296 c 0,-0.29596 -0.072,-0.52593 -0.22461,-0.68164 -0.15128,-0.15734 -0.36418,-0.23438 -0.625,-0.23438 -0.27767,0 -0.50345,0.0805 -0.66602,0.24609 -0.16156,0.16461 -0.23828,0.41439 -0.23828,0.73829 v 1.7246 h -0.21484 v -2.86523 h 0.20117 v 0.44727 l 0.0957,0.0215 c 0.0778,-0.1609 0.18961,-0.28051 0.3418,-0.36328 l 0.002,-0.002 c 0.15246,-0.0856 0.33351,-0.12891 0.54688,-0.12891 z"
             id="path68791" />
        </g>
        <g
           id="path68770"
           style="stroke-width:0.102558;fill:#4471b2;fill-opacity:1;stroke:#4471b2;stroke-opacity:1">
          <path
             style="color:#000000;-inkscape-font-specification:'Montserrat Alternates, Normal';stroke:#4471b2;stroke-width:0.102558;-inkscape-stroke:none;fill:#4471b2;fill-opacity:1;stroke-opacity:1"
             d="m 147.38116,196.66984 q 0.57573,0 0.90593,0.33866 0.33443,0.33444 0.33443,0.96944 v 1.68063 h -0.30903 v -0.87207 h -1.86267 v 0.87207 h -0.3048 v -1.68063 q 0,-0.635 0.3302,-0.96944 0.33444,-0.33866 0.90594,-0.33866 z m 0.93133,1.84573 v -0.56727 q 0,-0.4953 -0.24554,-0.74506 -0.24553,-0.254 -0.68579,-0.254 -0.44027,0 -0.6858,0.254 -0.24554,0.24976 -0.24554,0.74506 v 0.56727 z"
             id="path68795" />
          <path
             style="color:#000000;-inkscape-font-specification:'Montserrat Alternates, Normal';fill:#4471b2;stroke:#4471b2;stroke-width:0.102558;-inkscape-stroke:none;fill-opacity:1;stroke-opacity:1"
             d="m 147.38086,196.62109 c -0.39078,0 -0.70854,0.11772 -0.94141,0.35352 -0.23113,0.23411 -0.34375,0.57199 -0.34375,1.00391 v 1.73046 H 146.5 v -0.87304 h 1.76367 v 0.87304 h 0.4082 v -1.73046 c 0,-0.43128 -0.11639,-0.76992 -0.3496,-1.00391 -0.23018,-0.23607 -0.54788,-0.35352 -0.94141,-0.35352 z m 0,0.0977 c 0.37411,0 0.661,0.10874 0.87109,0.32422 0.21188,0.21188 0.32032,0.5209 0.32032,0.93555 v 1.63085 h -0.21094 v -0.87304 h -1.96094 v 0.87304 h -0.20508 v -1.63085 c 0,-0.41476 0.10533,-0.72374 0.31446,-0.93555 0.21305,-0.21574 0.49987,-0.32422 0.87109,-0.32422 z m 0,0.18164 c -0.30303,0 -0.54674,0.0876 -0.7207,0.26758 -0.17517,0.17817 -0.25977,0.44287 -0.25977,0.78125 v 0.61523 h 1.96094 v -0.0488 -0.5664 c 0,-0.33838 -0.0846,-0.60308 -0.25977,-0.78125 -0.17388,-0.17911 -0.41839,-0.26758 -0.7207,-0.26758 z m 0,0.0977 c 0.28399,0 0.49698,0.0815 0.65039,0.24023 0.15222,0.15484 0.23242,0.38892 0.23242,0.71094 v 0.51758 H 146.5 v -0.51758 c 0,-0.32202 0.0782,-0.5561 0.23047,-0.71094 0.15341,-0.1587 0.3664,-0.24023 0.65039,-0.24023 z"
             id="path68797" />
        </g>
        <g
           id="path68772"
           style="stroke-width:0.102558;fill:#4471b2;fill-opacity:1;stroke:#4471b2;stroke-opacity:1">
          <path
             style="color:#000000;-inkscape-font-specification:'Montserrat Alternates, Normal';stroke:#4471b2;stroke-width:0.102558;-inkscape-stroke:none;fill:#4471b2;fill-opacity:1;stroke-opacity:1"
             d="m 151.58485,199.65857 -0.67733,-0.9525 q -0.1143,0.0127 -0.23707,0.0127 h -0.79586 v 0.9398 h -0.31327 v -2.96333 h 1.10913 q 0.56727,0 0.889,0.27093 0.32174,0.27093 0.32174,0.74507 0,0.34713 -0.1778,0.58843 -0.17357,0.23707 -0.49954,0.3429 l 0.7239,1.016 z m -0.92286,-1.2065 q 0.44026,0 0.6731,-0.19473 0.23283,-0.19474 0.23283,-0.5461 0,-0.35984 -0.23283,-0.55034 -0.23284,-0.19473 -0.6731,-0.19473 h -0.7874 v 1.4859 z"
             id="path68801" />
          <path
             style="color:#000000;-inkscape-font-specification:'Montserrat Alternates, Normal';fill:#4471b2;stroke:#4471b2;stroke-width:0.102558;-inkscape-stroke:none;fill-opacity:1;stroke-opacity:1"
             d="m 149.51172,196.64648 v 3.0625 h 0.41211 v -0.9414 h 0.74609 c 0.0734,0 0.14364,-0.003 0.21289,-0.01 l 0.67578,0.95117 h 0.0254 0.43946 l -0.75196,-1.05664 c 0.19354,-0.0743 0.36267,-0.17398 0.47266,-0.32422 0.12526,-0.16999 0.1875,-0.37731 0.1875,-0.61718 0,-0.32729 -0.11447,-0.59342 -0.33984,-0.78321 -0.22545,-0.18985 -0.53582,-0.28125 -0.92188,-0.28125 z m 0.0996,0.0977 h 1.05859 c 0.3703,0 0.6539,0.0884 0.85742,0.25977 0.20361,0.17145 0.30469,0.40213 0.30469,0.70703 0,0.22297 -0.0562,0.40685 -0.16797,0.55859 -0.10906,0.14896 -0.26517,0.25818 -0.47461,0.32617 l -0.0644,0.0215 0.70703,0.99218 h -0.2207 l -0.67969,-0.95507 -0.0293,0.002 c -0.0743,0.008 -0.15228,0.0137 -0.23242,0.0137 h -0.8457 v 0.93945 h -0.21289 z m 0.21289,0.17188 v 1.58593 h 0.83789 c 0.3008,0 0.53807,-0.0674 0.70508,-0.20703 0.16646,-0.13922 0.25,-0.33881 0.25,-0.58398 0,-0.25057 -0.083,-0.45122 -0.25,-0.58789 -0.16701,-0.13967 -0.40428,-0.20703 -0.70508,-0.20703 z m 0.0996,0.0996 h 0.73828 c 0.28621,0 0.49718,0.0636 0.64062,0.1836 h 0.002 c 0.14339,0.11733 0.21289,0.2825 0.21289,0.51172 0,0.2233 -0.0709,0.38738 -0.21485,0.50781 -0.14344,0.11997 -0.35441,0.18359 -0.64062,0.18359 h -0.73828 z"
             id="path68803" />
        </g>
        <g
           id="path68774"
           style="stroke-width:0.102558;fill:#4471b2;fill-opacity:1;stroke:#4471b2;stroke-opacity:1">
          <path
             style="color:#000000;-inkscape-font-specification:'Montserrat Alternates, Normal';stroke:#4471b2;stroke-width:0.102558;-inkscape-stroke:none;fill:#4471b2;fill-opacity:1;stroke-opacity:1"
             d="m 155.79278,196.66984 q 0.508,0 0.79163,0.2921 0.28364,0.2921 0.28364,0.84666 v 1.84997 h -0.30904 v -1.8415 q 0,-0.4318 -0.22013,-0.6477 -0.2159,-0.22013 -0.59266,-0.22013 -0.39794,0 -0.6223,0.23283 -0.22437,0.2286 -0.22437,0.70273 v 1.77377 h -0.30903 v -1.8415 q 0,-0.4318 -0.21167,-0.6477 -0.21167,-0.22013 -0.58843,-0.22013 -0.40217,0 -0.63077,0.23283 -0.22437,0.2286 -0.22437,0.70273 v 1.77377 h -0.31326 v -2.96333 h 0.30056 v 0.4953 q 0.12277,-0.254 0.36407,-0.38523 0.2413,-0.13547 0.5715,-0.13547 0.34713,0 0.59267,0.14817 0.24976,0.14393 0.35983,0.40639 0.127,-0.27093 0.381,-0.41063 0.25823,-0.14393 0.60113,-0.14393 z"
             id="path68807" />
          <path
             style="color:#000000;-inkscape-font-specification:'Montserrat Alternates, Normal';fill:#4471b2;stroke:#4471b2;stroke-width:0.102558;-inkscape-stroke:none;fill-opacity:1;stroke-opacity:1"
             d="m 153.85742,196.62109 c -0.2262,0 -0.42482,0.0462 -0.59375,0.14063 -0.1282,0.0697 -0.21013,0.18933 -0.29101,0.30859 v -0.42383 h -0.40039 v 3.0625 h 0.4121 v -1.82421 c 0,-0.30828 0.0733,-0.52778 0.21094,-0.66797 0.14224,-0.14487 0.33715,-0.21875 0.59571,-0.21875 0.24153,0 0.42179,0.0689 0.55273,0.20507 0.12956,0.13216 0.19727,0.33351 0.19727,0.61329 v 1.89257 h 0.4082 v -1.82421 c 0,-0.30828 0.0733,-0.52778 0.21094,-0.66797 0.13942,-0.14469 0.3303,-0.21875 0.58593,-0.21875 0.24154,0 0.42279,0.0686 0.55664,0.20507 l 0.002,0.002 c 0.13497,0.13238 0.20508,0.33187 0.20508,0.61133 v 1.89257 h 0.4082 v -1.90039 c 0,-0.37814 -0.0988,-0.67489 -0.29883,-0.88086 -0.19938,-0.20533 -0.47802,-0.30664 -0.82617,-0.30664 -0.23553,0 -0.44471,0.0499 -0.625,0.15039 -0.15753,0.087 -0.26972,0.22399 -0.35742,0.38282 -0.0788,-0.15429 -0.18155,-0.28994 -0.33594,-0.37891 -0.17222,-0.10349 -0.37943,-0.1543 -0.61719,-0.1543 z m 0,0.0977 c 0.22438,0 0.4135,0.0491 0.56836,0.14258 0.15796,0.091 0.27038,0.21718 0.33984,0.38281 l 0.043,0.10156 0.0469,-0.0996 c 0.0807,-0.17209 0.19883,-0.30037 0.35937,-0.38867 0.16402,-0.0914 0.35646,-0.13867 0.57813,-0.13867 0.32918,0 0.57706,0.0932 0.75586,0.27734 0.17818,0.1835 0.26953,0.45124 0.26953,0.8125 v 1.80078 h -0.20899 v -1.79296 c 0,-0.29628 -0.0778,-0.52616 -0.23632,-0.68164 -0.15392,-0.15618 -0.36685,-0.23438 -0.62696,-0.23438 -0.27494,0 -0.49848,0.0823 -0.6582,0.24805 -0.16077,0.16462 -0.23828,0.41321 -0.23828,0.73633 v 1.7246 h -0.20899 v -1.79296 c 0,-0.29596 -0.0739,-0.52593 -0.22656,-0.68164 -0.15128,-0.15733 -0.36223,-0.23438 -0.62304,-0.23438 -0.27767,0 -0.50345,0.0805 -0.66602,0.24609 -0.16156,0.16461 -0.23828,0.41439 -0.23828,0.73829 v 1.7246 h -0.21485 v -2.86523 h 0.20118 v 0.44727 l 0.0937,0.0215 c 0.0778,-0.1609 0.19156,-0.28051 0.34375,-0.36328 v -0.002 c 0.15246,-0.0856 0.33351,-0.12891 0.54687,-0.12891 z"
             id="path68809" />
        </g>
        <g
           id="path68776"
           style="stroke-width:0.102558;fill:#4471b2;fill-opacity:1;stroke:#4471b2;stroke-opacity:1">
          <path
             style="color:#000000;-inkscape-font-specification:'Montserrat Alternates, Normal';stroke:#4471b2;stroke-width:0.102558;-inkscape-stroke:none;fill:#4471b2;fill-opacity:1;stroke-opacity:1"
             d="m 159.10748,199.68397 q -0.44027,0 -0.8001,-0.19473 -0.3556,-0.19897 -0.5588,-0.54187 -0.19897,-0.3429 -0.19897,-0.77047 0,-0.42756 0.19897,-0.77046 0.2032,-0.3429 0.5588,-0.53763 0.35983,-0.19897 0.8001,-0.19897 0.44026,0 0.79163,0.19473 0.3556,0.19473 0.5588,0.54187 0.2032,0.3429 0.2032,0.77046 0,0.42757 -0.2032,0.7747 -0.2032,0.3429 -0.5588,0.53764 -0.35137,0.19473 -0.79163,0.19473 z m 0,-0.2794 q 0.35137,0 0.635,-0.15663 0.28363,-0.16087 0.4445,-0.44027 0.16086,-0.28363 0.16086,-0.63077 0,-0.34713 -0.16086,-0.62653 -0.16087,-0.28363 -0.4445,-0.44027 -0.28363,-0.16086 -0.635,-0.16086 -0.35137,0 -0.63923,0.16086 -0.28364,0.15664 -0.44874,0.44027 -0.16086,0.2794 -0.16086,0.62653 0,0.34714 0.16086,0.63077 0.1651,0.2794 0.44874,0.44027 0.28786,0.15663 0.63923,0.15663 z"
             id="path68813" />
          <path
             style="color:#000000;-inkscape-font-specification:'Montserrat Alternates, Normal';fill:#4471b2;stroke:#4471b2;stroke-width:0.102558;-inkscape-stroke:none;fill-opacity:1;stroke-opacity:1"
             d="m 159.10742,196.62109 c -0.30097,0 -0.57685,0.0683 -0.82422,0.20508 -0.24432,0.13379 -0.43829,0.31873 -0.57812,0.55469 -0.13713,0.23632 -0.20508,0.50416 -0.20508,0.79687 0,0.29273 0.0679,0.5586 0.20508,0.79493 0.13978,0.23588 0.33399,0.42394 0.57812,0.56054 0.24732,0.13385 0.52341,0.20118 0.82422,0.20117 0.30081,0 0.57449,-0.0671 0.81641,-0.20117 0.24432,-0.13379 0.43634,-0.32068 0.57617,-0.55664 0.13994,-0.23906 0.21094,-0.50594 0.21094,-0.79883 0,-0.29288 -0.0709,-0.56051 -0.21094,-0.79687 -0.13979,-0.23881 -0.33172,-0.42668 -0.57617,-0.56055 -0.24192,-0.13407 -0.5156,-0.19922 -0.81641,-0.19922 z m 0,0.0977 c 0.28621,0 0.541,0.0639 0.76758,0.18945 0.22968,0.12578 0.40987,0.2994 0.54102,0.52344 0.13086,0.22084 0.19531,0.4689 0.19531,0.74609 0,0.27721 -0.0643,0.52428 -0.19531,0.74805 -0.13111,0.22124 -0.31121,0.39368 -0.54102,0.51953 -0.22658,0.12557 -0.48137,0.18946 -0.76758,0.18946 -0.28553,0 -0.54337,-0.0643 -0.77539,-0.18946 h -0.002 c -0.22938,-0.12862 -0.40816,-0.30253 -0.53906,-0.52344 -0.12817,-0.22087 -0.19141,-0.46677 -0.19141,-0.74414 0,-0.27736 0.0632,-0.52521 0.19141,-0.74609 0.1311,-0.22124 0.3112,-0.39368 0.54101,-0.51953 0.23241,-0.12851 0.48934,-0.19336 0.77539,-0.19336 z m 0,0.18164 c -0.2418,0 -0.46467,0.0546 -0.66406,0.16602 -0.1966,0.10857 -0.35252,0.26267 -0.4668,0.45898 -0.11166,0.19395 -0.16797,0.41328 -0.16797,0.65234 0,0.23908 0.0565,0.45768 0.16797,0.6543 0.11427,0.19337 0.27059,0.34771 0.4668,0.45899 h 0.002 c 0.19934,0.10846 0.42051,0.1621 0.66211,0.1621 0.2416,1e-5 0.46155,-0.0535 0.6582,-0.1621 h 0.002 c 0.19629,-0.11134 0.35141,-0.26538 0.46289,-0.45899 0.11151,-0.19662 0.16601,-0.41522 0.16601,-0.6543 0,-0.23906 -0.0543,-0.45839 -0.16601,-0.65234 -0.11124,-0.19613 -0.2668,-0.3504 -0.46289,-0.45898 h -0.002 c -0.1963,-0.11095 -0.41707,-0.16602 -0.6582,-0.16602 z m 0,0.0977 c 0.22669,0 0.42987,0.0514 0.61133,0.15429 v 0.002 c 0.18149,0.10023 0.32276,0.23829 0.42578,0.41992 0.10282,0.17858 0.1543,0.37974 0.1543,0.60351 0,0.22378 -0.0513,0.42392 -0.1543,0.60547 -0.10302,0.17893 -0.2439,0.31872 -0.42578,0.42188 -0.18151,0.10024 -0.38444,0.15039 -0.61133,0.15039 -0.22689,0 -0.43075,-0.05 -0.61523,-0.15039 -0.18198,-0.10321 -0.32382,-0.24272 -0.42969,-0.42188 -0.10296,-0.18155 -0.1543,-0.38169 -0.1543,-0.60547 0,-0.22309 0.0521,-0.42339 0.1543,-0.60156 0.10586,-0.18186 0.2481,-0.32159 0.42969,-0.42187 v -0.002 c 0.18442,-0.10305 0.38854,-0.15429 0.61523,-0.15429 z"
             id="path68815" />
        </g>
        <g
           id="path68778"
           style="stroke-width:0.102558;fill:#4471b2;fill-opacity:1;stroke:#4471b2;stroke-opacity:1">
          <path
             style="color:#000000;-inkscape-font-specification:'Montserrat Alternates, Normal';stroke:#4471b2;stroke-width:0.102558;-inkscape-stroke:none;fill:#4471b2;fill-opacity:1;stroke-opacity:1"
             d="m 161.36385,196.69524 h 0.31326 v 2.6924 h 1.65947 v 0.27093 h -1.97273 z"
             id="path68819" />
          <path
             style="color:#000000;-inkscape-font-specification:'Montserrat Alternates, Normal';fill:#4471b2;stroke:#4471b2;stroke-width:0.102558;-inkscape-stroke:none;fill-opacity:1;stroke-opacity:1"
             d="m 161.31445,196.64648 v 0.0488 3.01367 h 2.07227 v -0.37109 h -1.66016 v -2.69141 z m 0.0996,0.0977 h 0.21289 v 2.69336 h 1.66016 v 0.17187 h -1.87305 z"
             id="path68821" />
        </g>
        <g
           id="path68780"
           style="stroke-width:0.102558;fill:#4471b2;fill-opacity:1;stroke:#4471b2;stroke-opacity:1">
          <path
             style="color:#000000;-inkscape-font-specification:'Montserrat Alternates, Normal';stroke:#4471b2;stroke-width:0.102558;-inkscape-stroke:none;fill:#4471b2;fill-opacity:1;stroke-opacity:1"
             d="m 165.94008,199.3199 q -0.18203,0.17357 -0.48683,0.27094 -0.30057,0.0931 -0.66887,0.0931 -0.38946,0 -0.66463,-0.10583 -0.27093,-0.10584 -0.41063,-0.2921 -0.13547,-0.18627 -0.13547,-0.42757 0,-0.2667 0.15663,-0.45297 0.16087,-0.18626 0.4191,-0.25823 -0.21166,-0.0804 -0.3302,-0.254 -0.11853,-0.1778 -0.11853,-0.41487 0,-0.22436 0.127,-0.4064 0.13123,-0.18626 0.38947,-0.29209 0.26246,-0.11007 0.63076,-0.11007 0.27094,0 0.52494,0.0635 0.25823,0.0593 0.44026,0.17356 l -0.0974,0.24977 q -0.38947,-0.22013 -0.85514,-0.22013 -0.41063,0 -0.63076,0.15663 -0.2159,0.15663 -0.2159,0.4064 0,0.24977 0.17356,0.38523 0.1778,0.13547 0.49954,0.13547 h 0.7366 v 0.27093 h -0.7493 q -0.36407,0 -0.57574,0.1397 -0.21166,0.13547 -0.21166,0.4064 0,0.2667 0.2286,0.42334 0.23283,0.15663 0.68156,0.15663 0.31327,0 0.5842,-0.0889 0.27094,-0.0889 0.44027,-0.24553 z"
             id="path68825" />
          <path
             style="color:#000000;-inkscape-font-specification:'Montserrat Alternates, Normal';fill:#4471b2;stroke:#4471b2;stroke-width:0.102558;-inkscape-stroke:none;fill-opacity:1;stroke-opacity:1"
             d="m 164.84766,196.62109 c -0.25047,0 -0.46781,0.0367 -0.65039,0.11328 -0.17808,0.0733 -0.3167,0.17594 -0.41016,0.3086 -0.0901,0.12919 -0.13672,0.27663 -0.13672,0.43555 0,0.16629 0.0423,0.31442 0.12695,0.4414 v 0.002 c 0.0692,0.10128 0.17635,0.16404 0.28907,0.22071 -0.14339,0.0533 -0.2773,0.1196 -0.37305,0.23047 -0.11191,0.13308 -0.16992,0.29883 -0.16992,0.48632 0,0.17014 0.0502,0.32268 0.14648,0.45508 v 0.002 c 0.0996,0.13286 0.24454,0.2355 0.43164,0.30859 0.19075,0.0734 0.41947,0.10937 0.6836,0.10937 0.2497,0 0.47775,-0.0319 0.68359,-0.0957 0.2086,-0.0666 0.37787,-0.16116 0.50586,-0.2832 l 0.0254,-0.0254 -0.0156,-0.0332 -0.14843,-0.29492 -0.0488,0.0449 c -0.10665,0.0987 -0.24653,0.17685 -0.42188,0.23438 -0.17525,0.0575 -0.36419,0.0859 -0.56836,0.0859 -0.29339,0 -0.51129,-0.0522 -0.65429,-0.14844 -0.14044,-0.0968 -0.20703,-0.21785 -0.20703,-0.38086 0,-0.16773 0.061,-0.283 0.18945,-0.36523 0.13022,-0.0859 0.31245,-0.13282 0.54883,-0.13282 h 0.79883 v -0.36914 h -0.78516 c -0.20674,0 -0.36171,-0.044 -0.46875,-0.125 -0.10407,-0.0812 -0.15625,-0.19065 -0.15625,-0.3457 0,-0.15225 0.0635,-0.27011 0.19727,-0.36719 0.13488,-0.0954 0.33492,-0.14648 0.60156,-0.14648 0.30264,0 0.57779,0.0703 0.83008,0.21289 l 0.0488,0.0293 0.13477,-0.3418 -0.0352,-0.0215 c -0.12701,-0.0797 -0.27863,-0.13917 -0.45507,-0.17968 -0.17336,-0.0433 -0.35262,-0.0645 -0.53711,-0.0645 z m 0,0.0977 c 0.17676,0 0.34835,0.0212 0.51367,0.0625 0.1531,0.0352 0.27901,0.0888 0.38867,0.15234 l -0.0644,0.16602 c -0.25359,-0.13277 -0.52574,-0.21289 -0.82422,-0.21289 -0.28005,0 -0.50156,0.0532 -0.66016,0.16601 -0.15405,0.11177 -0.23633,0.26649 -0.23633,0.44727 0,0.17798 0.0641,0.32444 0.19141,0.42383 h 0.002 c 0.12999,0.099 0.30786,0.14648 0.5293,0.14648 h 0.6875 v 0.17188 h -0.70117 c -0.24829,0 -0.44972,0.0468 -0.60156,0.14648 -0.15373,0.0984 -0.23438,0.25571 -0.23438,0.44922 0,0.19194 0.0868,0.35106 0.25,0.46289 0.16744,0.11264 0.40407,0.16602 0.70898,0.16602 0.21353,0 0.41362,-0.0308 0.59961,-0.0918 0.16363,-0.0537 0.29224,-0.13292 0.4043,-0.22461 l 0.0742,0.15039 c -0.1121,0.0993 -0.25293,0.18323 -0.4375,0.24219 -0.19448,0.06 -0.41169,0.0918 -0.65234,0.0918 -0.25441,0 -0.47063,-0.0362 -0.64649,-0.10352 h -0.002 c -0.17226,-0.0676 -0.30041,-0.15926 -0.38672,-0.27344 -0.0843,-0.11595 -0.12695,-0.24683 -0.12695,-0.39844 0,-0.1681 0.0476,-0.3066 0.14453,-0.42187 0.10074,-0.11664 0.23045,-0.19646 0.39453,-0.24219 l 0.14648,-0.041 -0.14257,-0.0527 c -0.13239,-0.0503 -0.23147,-0.12965 -0.30469,-0.23633 -0.0734,-0.11008 -0.11133,-0.23692 -0.11133,-0.38671 0,-0.14024 0.0399,-0.26538 0.11914,-0.37891 0.0812,-0.11473 0.2023,-0.20586 0.36719,-0.27344 0.16736,-0.0702 0.37072,-0.10742 0.61133,-0.10742 z"
             id="path68827" />
        </g>
        <g
           id="path68782"
           style="stroke-width:0.102558;fill:#4471b2;fill-opacity:1;stroke:#4471b2;stroke-opacity:1">
          <path
             style="color:#000000;-inkscape-font-specification:'Montserrat Alternates, Normal';stroke:#4471b2;stroke-width:0.102558;-inkscape-stroke:none;fill:#4471b2;fill-opacity:1;stroke-opacity:1"
             d="m 166.74442,200.1073 q -0.254,0 -0.4699,-0.11006 -0.21167,-0.11007 -0.34713,-0.31327 l 0.1778,-0.21167 q 0.12276,0.1778 0.28363,0.27094 0.16086,0.0931 0.35136,0.0931 0.55457,0 0.55457,-0.65193 v -2.21827 h -1.08373 v -0.27093 h 1.39276 v 2.4765 q 0,0.46566 -0.22013,0.6985 -0.2159,0.23706 -0.63923,0.23706 z"
             id="path68831" />
          <path
             style="color:#000000;-inkscape-font-specification:'Montserrat Alternates, Normal';fill:#4471b2;stroke:#4471b2;stroke-width:0.102558;-inkscape-stroke:none;fill-opacity:1;stroke-opacity:1"
             d="m 166.16211,196.64648 v 0.36914 h 1.08398 v 2.16797 c 0,0.2103 -0.0451,0.36079 -0.12695,0.45703 -0.0819,0.0962 -0.20375,0.14649 -0.37891,0.14649 -0.11893,0 -0.22626,-0.0281 -0.32617,-0.0859 -0.10015,-0.058 -0.18918,-0.14427 -0.26758,-0.25781 l -0.0371,-0.0527 -0.24414,0.28907 0.0215,0.0312 c 0.0946,0.14193 0.21689,0.25294 0.36523,0.33008 0.15093,0.0769 0.31571,0.11523 0.49219,0.11523 h 0.0488 v -0.0176 c 0.26216,-0.0111 0.48331,-0.0767 0.62695,-0.23437 0.15807,-0.1672 0.23242,-0.41418 0.23242,-0.73243 v -2.52539 z m 0.0977,0.0977 h 1.29492 v 2.42773 c 0,0.30264 -0.0716,0.52081 -0.20703,0.66407 -0.13309,0.14613 -0.33054,0.22265 -0.60352,0.22265 -0.16218,0 -0.31033,-0.0357 -0.44727,-0.10547 -0.12343,-0.0642 -0.22014,-0.15893 -0.30273,-0.27343 l 0.11523,-0.13672 c 0.0762,0.0978 0.15678,0.18595 0.25391,0.24219 0.11457,0.0663 0.24189,0.10156 0.37695,0.10156 0.19456,0 0.35015,-0.0606 0.45313,-0.18164 0.10298,-0.12106 0.15039,-0.29716 0.15039,-0.52149 v -2.26757 h -1.08398 z"
             id="path68833" />
        </g>
        <g
           id="path68784"
           style="stroke-width:0.102558;fill:#4471b2;fill-opacity:1;stroke:#4471b2;stroke-opacity:1">
          <path
             style="color:#000000;-inkscape-font-specification:'Montserrat Alternates, Normal';stroke:#4471b2;stroke-width:0.102558;-inkscape-stroke:none;fill:#4471b2;fill-opacity:1;stroke-opacity:1"
             d="m 169.84322,199.68397 q -0.44027,0 -0.8001,-0.19473 -0.3556,-0.19897 -0.5588,-0.54187 -0.19897,-0.3429 -0.19897,-0.77047 0,-0.42756 0.19897,-0.77046 0.2032,-0.3429 0.5588,-0.53763 0.35983,-0.19897 0.8001,-0.19897 0.44026,0 0.79163,0.19473 0.3556,0.19473 0.5588,0.54187 0.2032,0.3429 0.2032,0.77046 0,0.42757 -0.2032,0.7747 -0.2032,0.3429 -0.5588,0.53764 -0.35137,0.19473 -0.79163,0.19473 z m 0,-0.2794 q 0.35136,0 0.635,-0.15663 0.28363,-0.16087 0.44449,-0.44027 0.16087,-0.28363 0.16087,-0.63077 0,-0.34713 -0.16087,-0.62653 -0.16086,-0.28363 -0.44449,-0.44027 -0.28364,-0.16086 -0.635,-0.16086 -0.35137,0 -0.63924,0.16086 -0.28363,0.15664 -0.44873,0.44027 -0.16087,0.2794 -0.16087,0.62653 0,0.34714 0.16087,0.63077 0.1651,0.2794 0.44873,0.44027 0.28787,0.15663 0.63924,0.15663 z"
             id="path68837" />
          <path
             style="color:#000000;-inkscape-font-specification:'Montserrat Alternates, Normal';fill:#4471b2;stroke:#4471b2;stroke-width:0.102558;-inkscape-stroke:none;fill-opacity:1;stroke-opacity:1"
             d="m 169.84375,196.62109 c -0.30097,0 -0.57685,0.0683 -0.82422,0.20508 -0.24432,0.13379 -0.4383,0.31873 -0.57812,0.55469 -0.13713,0.23632 -0.20508,0.50416 -0.20508,0.79687 0,0.29273 0.0679,0.5586 0.20508,0.79493 0.13978,0.23588 0.33399,0.42394 0.57812,0.56054 0.24732,0.13385 0.52341,0.20118 0.82422,0.20117 0.3008,0 0.57254,-0.0671 0.81445,-0.20117 0.24432,-0.13379 0.4383,-0.32068 0.57813,-0.55664 0.13994,-0.23906 0.21094,-0.50594 0.21094,-0.79883 0,-0.29288 -0.0709,-0.56051 -0.21094,-0.79687 -0.13979,-0.23881 -0.33368,-0.42668 -0.57813,-0.56055 -0.24191,-0.13407 -0.51365,-0.19922 -0.81445,-0.19922 z m 0,0.0977 c 0.28621,0 0.541,0.0639 0.76758,0.18945 0.22968,0.12578 0.40792,0.2994 0.53906,0.52344 0.13087,0.22084 0.19727,0.4689 0.19727,0.74609 0,0.27721 -0.0663,0.52428 -0.19727,0.74805 -0.1311,0.22124 -0.30925,0.39368 -0.53906,0.51953 -0.22658,0.12557 -0.48137,0.18946 -0.76758,0.18946 -0.28621,0 -0.54489,-0.0637 -0.77734,-0.18946 -0.23,-0.12869 -0.40792,-0.30212 -0.53907,-0.52344 -0.12816,-0.22087 -0.19336,-0.46677 -0.19336,-0.74414 0,-0.27736 0.0652,-0.52521 0.19336,-0.74609 0.13111,-0.22124 0.30925,-0.39368 0.53907,-0.51953 0.2324,-0.12851 0.49128,-0.19336 0.77734,-0.19336 z m 0,0.18164 c -0.2418,0 -0.46466,0.0546 -0.66406,0.16602 -0.1966,0.10857 -0.35253,0.26267 -0.4668,0.45898 -0.11167,0.19395 -0.16797,0.41328 -0.16797,0.65234 0,0.23908 0.0565,0.45768 0.16797,0.6543 0.11427,0.19337 0.2706,0.34771 0.4668,0.45899 0.19934,0.10846 0.42246,0.1621 0.66406,0.1621 0.2416,1e-5 0.46154,-0.0535 0.6582,-0.1621 0.19629,-0.11134 0.35143,-0.26538 0.46289,-0.45899 0.11153,-0.19662 0.16797,-0.41522 0.16797,-0.6543 0,-0.23906 -0.0563,-0.45839 -0.16797,-0.65234 -0.11147,-0.19654 -0.2662,-0.35036 -0.46289,-0.45898 -0.19672,-0.11157 -0.41641,-0.16602 -0.6582,-0.16602 z m 0,0.0977 c 0.22669,0 0.42791,0.0514 0.60937,0.15429 l 0.002,0.002 c 0.18148,0.10023 0.32082,0.23829 0.42383,0.41992 0.10282,0.17858 0.15429,0.37974 0.15429,0.60351 0,0.22378 -0.0513,0.42393 -0.15429,0.60547 -0.10302,0.17893 -0.2439,0.31872 -0.42579,0.42188 -0.1811,0.0996 -0.38317,0.15039 -0.60937,0.15039 -0.22689,0 -0.43075,-0.05 -0.61523,-0.15039 -0.18198,-0.10321 -0.32382,-0.24272 -0.42969,-0.42188 -0.10297,-0.18154 -0.1543,-0.38169 -0.1543,-0.60547 0,-0.22309 0.0521,-0.42339 0.1543,-0.60156 0.10586,-0.18186 0.24811,-0.32159 0.42969,-0.42187 v -0.002 c 0.18442,-0.10305 0.38854,-0.15429 0.61523,-0.15429 z"
             id="path68839" />
        </g>
      </g>
      <g
         aria-label="TLETISMO"
         id="text6649"
         style="font-size:7.40833px;font-family:'League Gothic';-inkscape-font-specification:'League Gothic';text-align:center;text-anchor:middle;stroke-width:0.102558;fill:#4471b2;fill-opacity:1;stroke:#4471b2;stroke-opacity:1">
        <g
           id="path68841"
           style="stroke-width:0.102558;fill:#4471b2;fill-opacity:1;stroke:#4471b2;stroke-opacity:1">
          <path
             style="color:#000000;-inkscape-font-specification:'League Gothic';stroke:#4471b2;stroke-width:0.102558;-inkscape-stroke:none;fill:#4471b2;fill-opacity:1;stroke-opacity:1"
             d="m 130.03699,176.46856 v -0.82233 h 2.3114 v 0.82233 h -0.75565 v 4.62279 h -0.8001 v -4.62279 z"
             id="path68860" />
          <path
             style="color:#000000;-inkscape-font-specification:'League Gothic';fill:#4471b2;stroke:#4471b2;stroke-width:0.102558;-inkscape-stroke:none;fill-opacity:1;stroke-opacity:1"
             d="m 129.98828,175.59766 v 0.91992 h 0.0488 0.70508 v 4.62304 h 0.90039 v -4.62304 h 0.75586 v -0.91992 z m 0.0977,0.0977 h 2.21289 v 0.72461 h -0.75586 v 4.6211 h -0.70117 v -4.6211 h -0.75586 z"
             id="path68862" />
        </g>
        <g
           id="path68843"
           style="stroke-width:0.102558;fill:#4471b2;fill-opacity:1;stroke:#4471b2;stroke-opacity:1">
          <path
             style="color:#000000;-inkscape-font-specification:'League Gothic';stroke:#4471b2;stroke-width:0.102558;-inkscape-stroke:none;fill:#4471b2;fill-opacity:1;stroke-opacity:1"
             d="m 132.65954,175.64623 h 0.8001 v 4.70429 h 1.05939 v 0.74083 h -1.85949 z"
             id="path68866" />
          <path
             style="color:#000000;-inkscape-font-specification:'League Gothic';fill:#4471b2;stroke:#4471b2;stroke-width:0.102558;-inkscape-stroke:none;fill-opacity:1;stroke-opacity:1"
             d="m 132.60937,175.59766 v 0.0488 5.49414 h 1.95899 v -0.83984 h -1.05859 v -4.70312 z m 0.0996,0.0977 h 0.70118 v 4.70508 h 1.05859 v 0.64063 h -1.75977 z"
             id="path68868" />
        </g>
        <g
           id="path68845"
           style="stroke-width:0.102558;fill:#4471b2;fill-opacity:1;stroke:#4471b2;stroke-opacity:1">
          <path
             style="color:#000000;-inkscape-font-specification:'League Gothic';stroke:#4471b2;stroke-width:0.102558;-inkscape-stroke:none;fill:#4471b2;fill-opacity:1;stroke-opacity:1"
             d="m 134.84499,175.64623 h 1.82986 v 0.82233 h -1.02976 v 1.4298 h 0.74084 v 0.87419 h -0.74084 v 1.49648 h 1.02976 v 0.82232 h -1.82986 z"
             id="path68872" />
          <path
             style="color:#000000;-inkscape-font-specification:'League Gothic';fill:#4471b2;stroke:#4471b2;stroke-width:0.102558;-inkscape-stroke:none;fill-opacity:1;stroke-opacity:1"
             d="m 134.79492,175.59766 v 0.0488 5.49414 h 1.92969 v -0.92187 h -1.0293 v -1.39648 h 0.74024 v -0.97266 h -0.74024 v -1.33203 h 1.0293 v -0.91992 z m 0.0996,0.0977 h 1.73047 v 0.72461 h -1.0293 v 1.52735 h 0.74024 v 0.77539 h -0.74024 v 1.5957 h 1.0293 v 0.72266 h -1.73047 z"
             id="path68874" />
        </g>
        <g
           id="path68847"
           style="stroke-width:0.102558;fill:#4471b2;fill-opacity:1;stroke:#4471b2;stroke-opacity:1">
          <path
             style="color:#000000;-inkscape-font-specification:'League Gothic';stroke:#4471b2;stroke-width:0.102558;-inkscape-stroke:none;fill:#4471b2;fill-opacity:1;stroke-opacity:1"
             d="m 136.83783,176.46856 v -0.82233 h 2.3114 v 0.82233 h -0.75565 v 4.62279 h -0.8001 v -4.62279 z"
             id="path68878" />
          <path
             style="color:#000000;-inkscape-font-specification:'League Gothic';fill:#4471b2;stroke:#4471b2;stroke-width:0.102558;-inkscape-stroke:none;fill-opacity:1;stroke-opacity:1"
             d="m 136.78906,175.59766 v 0.91992 h 0.0488 0.70703 v 4.62304 h 0.89844 v -4.62304 h 0.75586 v -0.91992 z m 0.0977,0.0977 h 2.21289 v 0.72461 h -0.75586 v 4.6211 h -0.70117 v -4.6211 h -0.75586 z"
             id="path68880" />
        </g>
        <g
           id="path68849"
           style="stroke-width:0.102558;fill:#4471b2;fill-opacity:1;stroke:#4471b2;stroke-opacity:1">
          <path
             style="color:#000000;-inkscape-font-specification:'League Gothic';stroke:#4471b2;stroke-width:0.102558;-inkscape-stroke:none;fill:#4471b2;fill-opacity:1;stroke-opacity:1"
             d="m 139.46038,175.64623 h 0.8001 v 5.44512 h -0.8001 z"
             id="path68884" />
          <path
             style="color:#000000;-inkscape-font-specification:'League Gothic';fill:#4471b2;stroke:#4471b2;stroke-width:0.102558;-inkscape-stroke:none;fill-opacity:1;stroke-opacity:1"
             d="m 139.41016,175.59766 v 0.0488 5.49414 h 0.90039 v -5.54296 z m 0.0996,0.0977 h 0.70117 v 5.34571 h -0.70117 z"
             id="path68886" />
        </g>
        <g
           id="path68851"
           style="stroke-width:0.102558;fill:#4471b2;fill-opacity:1;stroke:#4471b2;stroke-opacity:1">
          <path
             style="color:#000000;-inkscape-font-specification:'League Gothic';stroke:#4471b2;stroke-width:0.102558;-inkscape-stroke:none;fill:#4471b2;fill-opacity:1;stroke-opacity:1"
             d="m 142.17923,177.10567 c 0,-0.1778 -0.007,-0.37782 -0.0593,-0.5334 -0.0519,-0.14816 -0.13335,-0.25188 -0.25929,-0.25188 -0.20744,0.007 -0.27411,0.22225 -0.27411,0.54081 0,0.18521 0.0815,0.37782 0.20002,0.58526 0.11854,0.20743 0.27411,0.42227 0.42968,0.65193 0.18521,0.27411 0.37042,0.55562 0.51118,0.82973 0.14076,0.27411 0.23707,0.55563 0.23707,0.85196 0,0.36301 -0.0593,0.70379 -0.22966,0.95567 -0.17039,0.25189 -0.4445,0.41487 -0.88159,0.41487 -0.51118,0 -0.8001,-0.19262 -0.96309,-0.48895 -0.16298,-0.29633 -0.20002,-0.68897 -0.20002,-1.09643 l 0.78528,-0.0741 c 0,0.22965 0.007,0.45931 0.0667,0.6297 0.0519,0.1778 0.14076,0.29634 0.31115,0.29634 0.23706,0 0.32596,-0.25189 0.32596,-0.60008 0,-0.1778 -0.0889,-0.38523 -0.20743,-0.60007 -0.0667,-0.10372 -0.13335,-0.21484 -0.20743,-0.32597 -0.15558,-0.22225 -0.32597,-0.47413 -0.50377,-0.74824 -0.1778,-0.27411 -0.31115,-0.55563 -0.39264,-0.84455 -0.0445,-0.14076 -0.0667,-0.28893 -0.0667,-0.43709 0,-0.29634 0.0667,-0.61489 0.23707,-0.85937 0.17039,-0.23706 0.42968,-0.40746 0.80751,-0.41486 0.48154,-0.007 0.76306,0.19261 0.91863,0.48154 0.15558,0.29633 0.20003,0.65934 0.20003,0.96308 z"
             id="path68890" />
          <path
             style="color:#000000;-inkscape-font-specification:'League Gothic';fill:#4471b2;stroke:#4471b2;stroke-width:0.102558;-inkscape-stroke:none;fill-opacity:1;stroke-opacity:1"
             d="m 141.8457,175.53711 c -0.39226,0.008 -0.66993,0.18829 -0.84765,0.43555 -0.17844,0.25605 -0.2461,0.5849 -0.2461,0.88867 0,0.1531 0.0223,0.3054 0.0684,0.45117 0.083,0.29441 0.21837,0.57981 0.39844,0.85742 0.17812,0.27461 0.34994,0.52727 0.50586,0.75 0.0726,0.10911 0.13826,0.22032 0.20508,0.32422 0.11578,0.21056 0.19922,0.41211 0.19922,0.57227 0,0.16988 -0.0221,0.3151 -0.0684,0.41015 -0.0463,0.095 -0.10604,0.14063 -0.20703,0.14063 -0.0737,0 -0.12236,-0.0231 -0.16407,-0.0664 -0.0417,-0.0433 -0.075,-0.10891 -0.0996,-0.19336 v -0.002 l -0.002,-0.002 c -0.0555,-0.15843 -0.0625,-0.38464 -0.0625,-0.61329 v -0.0527 l -0.88477,0.082 v 0.0449 c 0,0.41046 0.0367,0.81136 0.20704,1.1211 0.17053,0.31003 0.48224,0.51367 1.00586,0.51367 0.44939,0 0.74323,-0.17146 0.92187,-0.43555 0.17898,-0.26463 0.23828,-0.61597 0.23828,-0.98437 0,-0.30706 -0.0993,-0.59485 -0.24219,-0.87305 -0.14252,-0.27755 -0.32823,-0.56149 -0.51367,-0.83594 -0.15612,-0.23048 -0.31114,-0.44442 -0.42773,-0.64844 -0.11682,-0.20446 -0.19336,-0.38985 -0.19336,-0.56054 0,-0.15583 0.0173,-0.28419 0.0547,-0.36719 0.0371,-0.0824 0.0843,-0.12157 0.16992,-0.125 0.0494,0 0.0857,0.0197 0.12109,0.0566 0.0354,0.0369 0.0654,0.0923 0.0899,0.16211 0.0486,0.1447 0.0566,0.34108 0.0566,0.51758 v 0.0547 l 0.0547,-0.006 0.83008,-0.0781 v -0.0449 c 0,-0.30857 -0.0436,-0.6787 -0.20508,-0.98633 -0.16287,-0.3025 -0.46739,-0.51501 -0.96289,-0.50781 z m 0,0.0996 c 0.46759,-0.007 0.72674,0.17972 0.875,0.45508 0.14278,0.27194 0.17956,0.60654 0.1836,0.89648 l -0.68164,0.0644 c -10e-4,-0.16563 -0.006,-0.34562 -0.0566,-0.49609 -0.0274,-0.0783 -0.0615,-0.14722 -0.11133,-0.19922 -0.0498,-0.052 -0.1168,-0.0859 -0.19336,-0.0859 h -0.002 c -0.12063,0.004 -0.21002,0.0756 -0.25781,0.18164 -0.0478,0.10602 -0.0644,0.24547 -0.0644,0.40821 0,0.19973 0.0868,0.39896 0.20703,0.60937 0.12049,0.21085 0.27663,0.42741 0.43164,0.65625 0.18498,0.27377 0.36882,0.55356 0.50781,0.82422 0.13866,0.27002 0.23047,0.54252 0.23047,0.82813 0,0.35762 -0.059,0.69055 -0.2207,0.92968 -0.16214,0.23969 -0.41506,0.39258 -0.83984,0.39258 -0.49875,0 -0.76448,-0.18027 -0.91993,-0.46289 -0.1491,-0.27111 -0.18235,-0.64341 -0.18554,-1.0293 l 0.68359,-0.0645 c 0.001,0.21117 0.006,0.42487 0.0645,0.5918 0.0272,0.0922 0.0634,0.17256 0.1211,0.23242 0.0583,0.0605 0.13965,0.0977 0.23633,0.0977 0.13606,0 0.23944,-0.0793 0.29687,-0.19727 0.0574,-0.11794 0.0781,-0.27482 0.0781,-0.45312 0,-0.1943 -0.0929,-0.40558 -0.2129,-0.62305 l -0.002,-0.002 v -0.002 c -0.0661,-0.10281 -0.13406,-0.21377 -0.20898,-0.32617 -0.15524,-0.22176 -0.32448,-0.47443 -0.50196,-0.74805 -0.17552,-0.2706 -0.30677,-0.54665 -0.38671,-0.83007 v -0.002 c -0.0429,-0.13575 -0.0645,-0.27866 -0.0645,-0.42187 0,-0.28828 0.065,-0.59735 0.22656,-0.83008 0.16274,-0.22641 0.4054,-0.38681 0.76758,-0.39453 z"
             id="path68892" />
        </g>
        <g
           id="path68853"
           style="stroke-width:0.102558;fill:#4471b2;fill-opacity:1;stroke:#4471b2;stroke-opacity:1">
          <path
             style="color:#000000;-inkscape-font-specification:'League Gothic';stroke:#4471b2;stroke-width:0.102558;-inkscape-stroke:none;fill:#4471b2;fill-opacity:1;stroke-opacity:1"
             d="m 144.72029,181.09135 -0.51117,-3.42264 -0.0296,-0.22966 h -0.0444 v 3.6523 h -0.74084 v -5.44512 h 0.9779 l 0.47414,2.4892 0.037,0.28893 h 0.0148 l 0.037,-0.28893 0.47413,-2.4892 h 0.9779 v 5.44512 h -0.74084 v -3.6523 h -0.0445 l -0.0296,0.22966 -0.51117,3.42264 z"
             id="path68896" />
          <path
             style="color:#000000;-inkscape-font-specification:'League Gothic';fill:#4471b2;stroke:#4471b2;stroke-width:0.102558;-inkscape-stroke:none;fill-opacity:1;stroke-opacity:1"
             d="m 143.3457,175.59766 v 5.54296 h 0.83985 v -3.29492 l 0.49218,3.29492 h 0.043 0.38282 l 0.49414,-3.30859 v 3.30859 h 0.83984 v -5.54296 h -1.06836 l -0.47852,2.50781 -0.47656,-2.50781 z m 0.0977,0.0977 h 0.88867 l 0.46484,2.44727 0.043,0.33203 h 0.10157 l 0.043,-0.33203 0.4668,-2.44727 h 0.88672 v 5.34571 h -0.64258 v -3.65235 h -0.13672 l -0.0352,0.27344 -0.50586,3.37891 h -0.25391 l -0.50586,-3.37891 -0.0352,-0.27344 h -0.13672 v 3.65235 h -0.64258 z"
             id="path68898" />
        </g>
        <g
           id="path68855"
           style="stroke-width:0.102558;fill:#4471b2;fill-opacity:1;stroke:#4471b2;stroke-opacity:1">
          <path
             style="color:#000000;-inkscape-font-specification:'League Gothic';stroke:#4471b2;stroke-width:0.102558;-inkscape-stroke:none;fill:#4471b2;fill-opacity:1;stroke-opacity:1"
             d="m 149.06157,179.9727 c -0.007,0.22225 -0.0519,0.42227 -0.13335,0.59266 -0.0667,0.14817 -0.17039,0.28893 -0.31856,0.40005 -0.14817,0.11854 -0.34819,0.18521 -0.61489,0.18521 -0.2667,0 -0.47413,-0.0667 -0.6223,-0.18521 -0.14817,-0.11112 -0.24448,-0.25188 -0.31115,-0.40005 -0.0815,-0.17039 -0.12594,-0.37041 -0.13335,-0.59266 v -3.20781 c 0.007,-0.21484 0.0519,-0.41487 0.13335,-0.58526 0.0667,-0.14816 0.16298,-0.29633 0.31115,-0.40746 0.14817,-0.11112 0.3556,-0.1852 0.6223,-0.1852 0.2667,0 0.46672,0.0741 0.61489,0.1852 0.14817,0.11113 0.25188,0.2593 0.31856,0.40746 0.0815,0.17039 0.12594,0.37042 0.13335,0.58526 z m -0.8001,-3.20781 c 0,-0.14817 -0.0296,-0.25188 -0.10372,-0.34078 -0.037,-0.0371 -0.0963,-0.0593 -0.16298,-0.0593 -0.14076,0 -0.20743,0.10372 -0.23707,0.20002 -0.0222,0.0593 -0.0296,0.12595 -0.0296,0.20003 v 3.20781 c 0,0.15557 0.037,0.25929 0.11112,0.34078 0.037,0.037 0.0889,0.0593 0.15558,0.0593 0.14076,0 0.20743,-0.0889 0.23707,-0.20003 0.0222,-0.0519 0.0296,-0.11853 0.0296,-0.20002 z"
             id="path68902" />
          <path
             style="color:#000000;-inkscape-font-specification:'League Gothic';fill:#4471b2;stroke:#4471b2;stroke-width:0.102558;-inkscape-stroke:none;fill-opacity:1;stroke-opacity:1"
             d="m 147.99414,175.53711 c -0.27587,0 -0.49488,0.0772 -0.65234,0.19531 -0.15604,0.11703 -0.2553,0.27338 -0.32422,0.42578 -0.0849,0.17761 -0.13148,0.38475 -0.13867,0.60547 v 3.20899 0.002 c 0.008,0.22785 0.0537,0.43365 0.13867,0.61133 h -0.002 c 0.069,0.15329 0.17096,0.30114 0.32618,0.41797 0.15869,0.12692 0.37739,0.19531 0.65234,0.19531 0.27495,0 0.48842,-0.0688 0.64648,-0.19531 0.15409,-0.11623 0.26263,-0.26379 0.33204,-0.41797 0.0849,-0.17761 0.13149,-0.38336 0.13867,-0.61133 v -0.002 -3.20899 c -0.008,-0.21992 -0.0542,-0.42621 -0.13867,-0.60351 v -0.002 c -0.0695,-0.15398 -0.17824,-0.30896 -0.33399,-0.42578 -0.15682,-0.11759 -0.36866,-0.19531 -0.64453,-0.19531 z m 0,0.0996 c 0.25753,0 0.44642,0.0712 0.58594,0.17578 0.14014,0.10511 0.23887,0.24481 0.30273,0.38672 v 0.002 c 0.078,0.16311 0.1217,0.35537 0.12891,0.56445 v 3.20508 c -0.007,0.21653 -0.0509,0.41105 -0.12891,0.57422 -0.0636,0.14136 -0.16175,0.27513 -0.30273,0.38086 h -0.002 c -0.13827,0.11062 -0.32553,0.17578 -0.58398,0.17578 -0.25845,0 -0.4522,-0.0657 -0.58984,-0.17578 h -0.002 c -0.14035,-0.10526 -0.23075,-0.23826 -0.29492,-0.38086 h -0.002 c -0.0778,-0.16257 -0.12147,-0.35647 -0.12891,-0.57226 v -3.20704 c 0.007,-0.20895 0.0509,-0.40127 0.12891,-0.56445 l 0.002,-0.002 c 0.0645,-0.14317 0.15542,-0.28209 0.29492,-0.38672 0.13888,-0.10415 0.33427,-0.17578 0.5918,-0.17578 z m 0,0.67773 c -0.0825,0 -0.14938,0.0342 -0.19531,0.0801 -0.0459,0.0459 -0.0715,0.1029 -0.0879,0.15625 -0.0242,0.0663 -0.0332,0.13882 -0.0332,0.21484 v 3.20704 c 0,0.16341 0.0423,0.28411 0.125,0.375 h 0.002 c 0.0463,0.0463 0.11173,0.0742 0.18945,0.0742 0.0808,0 0.14838,-0.0276 0.19531,-0.0723 0.0454,-0.0432 0.0714,-0.0991 0.0879,-0.1582 v -0.004 c 0.0255,-0.0616 0.0332,-0.13183 0.0332,-0.21484 v -3.20704 c 0,-0.15476 -0.0331,-0.27458 -0.11524,-0.37304 v -0.002 l -0.002,-0.002 c -0.0487,-0.0488 -0.12155,-0.0742 -0.19922,-0.0742 z m 0,0.0996 c 0.0539,0 0.0992,0.0188 0.125,0.043 0.0653,0.079 0.0937,0.16783 0.0937,0.30859 v 3.20704 c 0,0.0785 -0.01,0.13821 -0.0273,0.17968 v 0.004 l -0.002,0.004 c -0.0133,0.0498 -0.0335,0.0915 -0.0625,0.11914 -0.029,0.0276 -0.067,0.0449 -0.12695,0.0449 -0.0556,0 -0.0915,-0.0173 -0.11914,-0.0449 -0.0656,-0.0721 -0.0977,-0.15892 -0.0977,-0.30664 v -3.20704 c 0,-0.0708 0.008,-0.13231 0.0273,-0.18359 v -0.002 c 0.0132,-0.043 0.0344,-0.0872 0.0644,-0.11719 0.03,-0.03 0.0668,-0.0488 0.125,-0.0488 z"
             id="path68904" />
        </g>
      </g>
      <g
         aria-label="A"
         transform="matrix(1.1903296,0,-0.05288633,0.84010343,0,0)"
         id="text6653"
         style="font-size:33.4783px;font-family:'League Gothic';-inkscape-font-specification:'League Gothic';text-align:center;text-anchor:middle;stroke-width:0.102558;fill:#4471b2;fill-opacity:1;stroke:#4471b2;stroke-opacity:1">
        <g
           id="path68906"
           style="stroke-width:0.102558;fill:#4471b2;fill-opacity:1;stroke:#4471b2;stroke-opacity:1">
          <path
             style="color:#000000;-inkscape-font-specification:'League Gothic';stroke:#4471b2;stroke-width:0.102558;-inkscape-stroke:none;fill:#4471b2;fill-opacity:1;stroke-opacity:1"
             d="m 108.6972,231.69014 3.71609,-24.60655 h 4.41914 l 3.71609,24.60655 h -3.51522 l -0.66957,-5.02174 h -3.48174 l -0.66957,5.02174 z m 6.12653,-16.60524 -0.10043,-0.63608 h -0.20087 l -0.10044,0.63608 -1.03782,7.76697 h 2.47739 z"
             id="path68911" />
          <path
             style="color:#000000;-inkscape-font-specification:'League Gothic';fill:#4471b2;stroke:#4471b2;stroke-width:0.102558;-inkscape-stroke:none;fill-opacity:1;stroke-opacity:1"
             d="m 112.37109,207.0332 -3.73046,24.70703 h 0.0566 3.55859 l 0.66992,-5.02148 h 3.39453 l 0.66992,5.02148 h 3.61524 L 116.875,207.0332 Z m 0.084,0.0996 h 4.33398 l 3.70313,24.50781 h -3.41602 l -0.66992,-5.02148 h -3.56836 l -0.66797,5.02148 h -3.41601 z m 2.02539,7.26563 -0.10742,0.67968 -1.04492,7.82422 h 2.58984 l -1.04492,-7.82422 -0.10742,-0.67968 z m 0.084,0.0996 h 0.11719 l 0.0937,0.59375 1.0293,7.71093 h -2.36328 l 1.02929,-7.71093 z"
             id="path68913" />
        </g>
      </g>
    </g>
  </g>
</svg>
