<?xml version="1.0" encoding="UTF-8" standalone="no"?>
<!-- Created with Inkscape (http://www.inkscape.org/) -->

<svg
   width="59.494301mm"
   height="48.104412mm"
   viewBox="0 0 59.494301 48.104412"
   version="1.1"
   id="svg27657"
   sodipodi:docname="anagramaBlanco.svg"
   inkscape:version="1.2.1 (9c6d41e410, 2022-07-14)"
   xmlns:inkscape="http://www.inkscape.org/namespaces/inkscape"
   xmlns:sodipodi="http://sodipodi.sourceforge.net/DTD/sodipodi-0.dtd"
   xmlns="http://www.w3.org/2000/svg"
   xmlns:svg="http://www.w3.org/2000/svg">
  <sodipodi:namedview
     id="namedview27659"
     pagecolor="#ffffff"
     bordercolor="#000000"
     borderopacity="0.25"
     inkscape:showpageshadow="2"
     inkscape:pageopacity="0.0"
     inkscape:pagecheckerboard="0"
     inkscape:deskcolor="#d1d1d1"
     inkscape:document-units="mm"
     showgrid="false"
     inkscape:zoom="2.3786088"
     inkscape:cx="-23.543174"
     inkscape:cy="120.44856"
     inkscape:window-width="1920"
     inkscape:window-height="1027"
     inkscape:window-x="-8"
     inkscape:window-y="-8"
     inkscape:window-maximized="1"
     inkscape:current-layer="layer1" />
  <defs
     id="defs27654" />
  <g
     inkscape:label="Capa 1"
     inkscape:groupmode="layer"
     id="layer1"
     transform="translate(-60.86302,-108.08762)">
    <g
       id="g3225">
      <g
         aria-label="C"
         transform="scale(0.99992751,1.0000725)"
         id="text517"
         style="font-size:36.499px;font-family:'League Gothic';-inkscape-font-specification:'League Gothic';fill:#ffffff;stroke-width:1.90262;paint-order:markers fill stroke">
        <path
           d="m 75.388058,130.16939 v 3.6864 c -0.0365,1.09497 -0.255493,2.08045 -0.656982,2.91992 -0.328491,0.72998 -0.839477,1.42346 -1.569457,1.97095 -0.72998,0.58398 -1.715453,0.91247 -3.029417,0.91247 -1.313964,0 -2.335936,-0.32849 -3.065916,-0.91247 -0.72998,-0.54749 -1.204467,-1.24097 -1.532958,-1.97095 -0.401489,-0.83947 -0.620483,-1.82495 -0.656982,-2.91992 v -15.80406 c 0.0365,-1.05848 0.255493,-2.04395 0.656982,-2.88343 0.328491,-0.72998 0.802978,-1.45996 1.532958,-2.00744 0.72998,-0.54749 1.751952,-0.91248 3.065916,-0.91248 1.313964,0 2.299437,0.36499 3.029417,0.91248 0.72998,0.54748 1.240966,1.27746 1.569457,2.00744 0.401489,0.83948 0.620483,1.82495 0.656982,2.88343 v 3.68639 h -3.686399 v -3.68639 c 0,-0.72998 -0.182495,-1.24097 -0.583984,-1.67896 -0.182495,-0.18249 -0.510986,-0.29199 -0.912475,-0.29199 -0.693481,0 -1.021972,0.51099 -1.204467,0.98547 -0.109497,0.29199 -0.145996,0.62049 -0.182495,0.98548 v 15.80406 c 0.0365,0.76648 0.255493,1.27747 0.620483,1.67896 0.182495,0.18249 0.437988,0.29199 0.766479,0.29199 0.839477,0 1.167968,-0.43799 1.350463,-0.98547 0.109497,-0.2555 0.145996,-0.58399 0.145996,-0.98548 v -3.6864 z"
           id="path3135" />
      </g>
      <g
         aria-label="P"
         transform="scale(0.99992751,1.0000725)"
         id="text521"
         style="font-size:36.499px;font-family:'League Gothic';-inkscape-font-specification:'League Gothic';fill:#ffffff;stroke-width:1.90262;paint-order:markers fill stroke">
        <path
           d="m 76.781676,112.76241 h 3.941892 c 1.715453,0 3.430906,0.43798 4.74487,1.67895 1.313964,1.24097 2.18994,3.28491 2.18994,6.35083 0,3.06591 -0.875976,5.07336 -2.18994,6.31432 -1.313964,1.24097 -3.029417,1.75196 -4.74487,1.75196 v 10.7307 h -3.941892 z m 3.941892,12.08117 c 1.204467,0 1.970946,-0.219 2.408934,-0.83948 0.437988,-0.58398 0.547485,-1.56946 0.547485,-3.06592 0,-1.49646 -0.109497,-2.55493 -0.547485,-3.21191 -0.437988,-0.65698 -1.204467,-0.94897 -2.408934,-0.94897 z"
           id="path3140" />
      </g>
      <g
         aria-label="S"
         transform="scale(0.99992751,1.0000725)"
         id="text525"
         style="font-size:36.499px;font-family:'League Gothic';-inkscape-font-specification:'League Gothic';fill:#ffffff;stroke-width:1.90262;paint-order:markers fill stroke">
        <path
           d="m 94.761874,119.57368 c 0,-0.87597 -0.0365,-1.86145 -0.291992,-2.62793 -0.255493,-0.72998 -0.656982,-1.24096 -1.277465,-1.24096 -1.021972,0.0365 -1.350463,1.09497 -1.350463,2.66442 0,0.91248 0.401489,1.86145 0.985473,2.88343 0.583984,1.02197 1.350463,2.08044 2.116942,3.21191 0.912475,1.35046 1.82495,2.73742 2.518431,4.08789 0.693481,1.35046 1.167968,2.73742 1.167968,4.19738 0,1.78845 -0.291992,3.46741 -1.131469,4.70837 -0.839477,1.24097 -2.18994,2.04395 -4.343381,2.04395 -2.518431,0 -3.941892,-0.94898 -4.74487,-2.40894 -0.802978,-1.45996 -0.985473,-3.39441 -0.985473,-5.40185 l 3.868894,-0.36499 c 0,1.13147 0.0365,2.26294 0.328491,3.10241 0.255493,0.87598 0.693481,1.45996 1.532958,1.45996 1.167968,0 1.605956,-1.24096 1.605956,-2.95641 0,-0.87598 -0.437988,-1.89795 -1.021972,-2.95642 -0.328491,-0.51099 -0.656982,-1.05847 -1.021972,-1.60596 -0.766479,-1.09497 -1.605956,-2.33594 -2.481932,-3.6864 -0.875976,-1.35046 -1.532958,-2.73742 -1.934447,-4.16088 -0.218994,-0.69349 -0.328491,-1.42347 -0.328491,-2.15345 0,-1.45996 0.328491,-3.02941 1.167968,-4.23388 0.839477,-1.16797 2.116942,-2.00744 3.978391,-2.04394 2.372435,-0.0365 3.759397,0.94897 4.525876,2.37243 0.766479,1.45996 0.985473,3.24841 0.985473,4.74487 z"
           id="path3145" />
      </g>
      <g
         aria-label="M"
         transform="scale(0.99992751,1.0000725)"
         id="text529"
         style="font-size:36.499px;font-family:'League Gothic';-inkscape-font-specification:'League Gothic';fill:#ffffff;stroke-width:1.90262;paint-order:markers fill stroke">
        <path
           d="m 105.9867,139.09911 -2.51843,-16.86254 -0.14599,-1.13147 h -0.219 v 17.99401 h -3.649897 v -26.82677 h 4.817867 l 2.33594,12.26366 0.18249,1.42347 h 0.073 l 0.1825,-1.42347 2.33593,-12.26366 h 4.81787 v 26.82677 h -3.6499 V 121.1051 h -0.21899 l -0.146,1.13147 -2.51843,16.86254 z"
           id="path3150" />
      </g>
      <path
         style="color:#000000;fill:#f9f9f9;paint-order:markers fill stroke"
         d="m 60.869141,140.7832 -0.0059,1.90235 59.488279,0.19336 0.006,-1.90235 z"
         id="path531" />
      <path
         style="color:#000000;fill:#f9f9f9;paint-order:markers fill stroke"
         d="m 60.890625,108.08789 -0.0078,1.90234 59.453128,0.19336 0.006,-1.90234 z"
         id="path533" />
      <g
         aria-label="LA PEDESTRE"
         transform="scale(0.99992751,1.0000725)"
         id="text537"
         style="font-size:16.2218px;font-family:'League Gothic';-inkscape-font-specification:'League Gothic';fill:#ffffff;stroke-width:1.90262;paint-order:markers fill stroke">
        <path
           d="m 63.101184,144.12791 h 1.751955 v 10.30084 h 2.319717 v 1.62218 h -4.071672 z"
           id="path3163" />
        <path
           d="m 67.562184,156.05093 1.80062,-11.92302 h 2.141278 l 1.800619,11.92302 h -1.703289 l -0.324436,-2.43327 h -1.687067 l -0.324436,2.43327 z m 2.96859,-8.04601 -0.04867,-0.30821 h -0.09733 l -0.04866,0.30821 -0.502876,3.76346 h 1.200413 z"
           id="path3165" />
        <path
           d="m 76.613947,144.12791 h 1.751954 c 0.762425,0 1.524849,0.19466 2.108834,0.7462 0.583985,0.55154 0.973308,1.45997 0.973308,2.8226 0,1.36263 -0.389323,2.25483 -0.973308,2.80637 -0.583985,0.55154 -1.346409,0.77864 -2.108834,0.77864 v 4.76921 h -1.751954 z m 1.751954,5.36942 c 0.535319,0 0.875977,-0.0973 1.070639,-0.3731 0.194661,-0.25955 0.243327,-0.69754 0.243327,-1.36264 0,-0.66509 -0.04867,-1.13552 -0.243327,-1.42751 -0.194662,-0.292 -0.53532,-0.42177 -1.070639,-0.42177 z"
           id="path3167" />
        <path
           d="m 82.324009,144.12791 h 4.006784 v 1.80062 h -2.25483 v 3.13081 h 1.62218 v 1.91417 h -1.62218 v 3.2768 h 2.25483 v 1.80062 h -4.006784 z"
           id="path3169" />
        <path
           d="m 87.304088,156.05093 v -11.92302 h 1.378853 c 1.62218,0 2.498157,0.32444 2.96859,1.23286 0.45421,0.90842 0.519097,2.40082 0.519097,4.73676 0,2.33594 -0.06489,3.81213 -0.519097,4.72055 -0.470433,0.90842 -1.34641,1.23285 -2.96859,1.23285 z m 1.751955,-1.75195 c 0.600206,0 0.940864,-0.0649 1.119304,-0.64887 0.08111,-0.27577 0.145996,-0.69754 0.162218,-1.2653 0.01622,-0.56777 0.01622,-1.33019 0.01622,-2.3035 0,-0.97331 0,-1.73573 -0.01622,-2.30349 -0.01622,-0.55155 -0.08111,-0.97331 -0.162218,-1.2653 -0.17844,-0.56777 -0.519098,-0.63265 -1.119304,-0.63265 z"
           id="path3171" />
        <path
           d="m 93.338594,144.12791 h 4.006785 v 1.80062 h -2.254831 v 3.13081 h 1.62218 v 1.91417 h -1.62218 v 3.2768 h 2.254831 v 1.80062 h -4.006785 z"
           id="path3173" />
        <path
           d="m 101.22237,147.32361 c 0,-0.38933 -0.0162,-0.82732 -0.12977,-1.16797 -0.11355,-0.32444 -0.29199,-0.55155 -0.56776,-0.55155 -0.45421,0.0162 -0.60021,0.48666 -0.60021,1.1842 0,0.40554 0.17844,0.82731 0.43799,1.28152 0.25955,0.45421 0.60021,0.92464 0.94086,1.42752 0.40555,0.6002 0.81109,1.21663 1.11931,1.81684 0.30821,0.6002 0.51909,1.21663 0.51909,1.86551 0,0.79486 -0.12977,1.54107 -0.50287,2.09261 -0.3731,0.55154 -0.97331,0.90842 -1.9304,0.90842 -1.119299,0 -1.75195,-0.42177 -2.108829,-1.07064 -0.35688,-0.64887 -0.437989,-1.50863 -0.437989,-2.40083 l 1.719511,-0.16221 c 0,0.50287 0.01622,1.00575 0.145996,1.37885 0.113553,0.38932 0.308211,0.64887 0.681311,0.64887 0.5191,0 0.71376,-0.55154 0.71376,-1.31397 0,-0.38932 -0.19466,-0.84353 -0.45421,-1.31396 -0.14599,-0.22711 -0.29199,-0.47043 -0.45421,-0.71376 -0.340655,-0.48665 -0.713756,-1.0382 -1.103079,-1.6384 -0.389323,-0.60021 -0.681316,-1.21664 -0.859756,-1.84929 -0.09733,-0.30821 -0.145996,-0.63265 -0.145996,-0.95708 0,-0.64888 0.145996,-1.34641 0.519098,-1.88173 0.373101,-0.5191 0.940864,-0.8922 1.768173,-0.90842 1.05442,-0.0162 1.67085,0.42176 2.01151,1.05441 0.34065,0.64888 0.43798,1.44374 0.43798,2.10884 z"
           id="path3175" />
        <path
           d="m 103.26633,145.92853 v -1.80062 h 5.0612 v 1.80062 h -1.65462 v 10.1224 h -1.75196 v -10.1224 z"
           id="path3177" />
        <path
           d="m 112.13965,156.05093 -0.90842,-5.02875 h -0.47043 v 5.02875 h -1.75195 v -11.92302 h 1.75195 c 2.09261,0 2.98481,1.18419 2.98481,3.43902 0,1.18419 -0.30821,2.25483 -0.97331,2.70904 l 1.11931,5.77496 z M 110.7608,149.4 c 0.24333,0 0.56776,-0.0325 0.82731,-0.25955 0.25955,-0.22711 0.47043,-0.6651 0.47043,-1.50863 0,-0.84353 -0.21088,-1.29774 -0.47043,-1.52485 -0.25955,-0.2271 -0.58398,-0.24333 -0.82731,-0.24333 z"
           id="path3179" />
        <path
           d="m 114.86492,144.12791 h 4.00678 v 1.80062 h -2.25483 v 3.13081 h 1.62218 v 1.91417 h -1.62218 v 3.2768 h 2.25483 v 1.80062 h -4.00678 z"
           id="path3181" />
      </g>
    </g>
  </g>
</svg>
