<?xml version="1.0" encoding="UTF-8" standalone="no"?>
<!-- Created with Inkscape (http://www.inkscape.org/) -->

<svg
   width="59.494301mm"
   height="48.104401mm"
   viewBox="0 0 59.494301 48.104401"
   version="1.1"
   id="svg27657"
   inkscape:export-filename="anagramaNegro.png"
   inkscape:export-xdpi="96"
   inkscape:export-ydpi="96"
   sodipodi:docname="anagramaNegro.svg"
   inkscape:version="1.2.1 (9c6d41e410, 2022-07-14)"
   xmlns:inkscape="http://www.inkscape.org/namespaces/inkscape"
   xmlns:sodipodi="http://sodipodi.sourceforge.net/DTD/sodipodi-0.dtd"
   xmlns="http://www.w3.org/2000/svg"
   xmlns:svg="http://www.w3.org/2000/svg">
  <sodipodi:namedview
     id="namedview27659"
     pagecolor="#ffffff"
     bordercolor="#000000"
     borderopacity="0.25"
     inkscape:showpageshadow="2"
     inkscape:pageopacity="0.0"
     inkscape:pagecheckerboard="0"
     inkscape:deskcolor="#d1d1d1"
     inkscape:document-units="mm"
     showgrid="false"
     inkscape:zoom="1.1893044"
     inkscape:cx="102.16056"
     inkscape:cy="137.89573"
     inkscape:window-width="958"
     inkscape:window-height="1018"
     inkscape:window-x="946"
     inkscape:window-y="0"
     inkscape:window-maximized="0"
     inkscape:current-layer="g27934" />
  <defs
     id="defs27654" />
  <g
     inkscape:label="Capa 1"
     inkscape:groupmode="layer"
     id="layer1"
     transform="translate(-62.577733,-111.72186)">
    <g
       id="g27934"
       transform="translate(64.182203,-161.08475)">
      <g
         id="g3961">
        <g
           aria-label="C"
           transform="scale(0.99992751,1.0000725)"
           id="text7256"
           style="font-size:36.499px;font-family:'League Gothic';-inkscape-font-specification:'League Gothic';stroke-width:1.90262;paint-order:markers fill stroke">
          <path
             d="m 12.916018,294.87641 v 3.6864 c -0.0365,1.09497 -0.255493,2.08044 -0.656982,2.91992 -0.328491,0.72998 -0.839477,1.42346 -1.569457,1.97094 -0.7299805,0.58399 -1.7154535,0.91248 -3.0294175,0.91248 -1.313964,0 -2.335936,-0.32849 -3.065916,-0.91248 -0.7299801,-0.54748 -1.2044671,-1.24096 -1.5329581,-1.97094 -0.401489,-0.83948 -0.620483,-1.82495 -0.656982,-2.91992 v -15.80407 c 0.036499,-1.05847 0.255493,-2.04394 0.656982,-2.88342 0.328491,-0.72998 0.802978,-1.45996 1.5329581,-2.00744 0.72998,-0.54749 1.751952,-0.91248 3.065916,-0.91248 1.313964,0 2.299437,0.36499 3.0294175,0.91248 0.72998,0.54748 1.240966,1.27746 1.569457,2.00744 0.401489,0.83948 0.620483,1.82495 0.656982,2.88342 v 3.6864 H 9.2296185 v -3.6864 c 0,-0.72998 -0.182495,-1.24096 -0.583984,-1.67895 -0.182495,-0.1825 -0.510986,-0.29199 -0.912475,-0.29199 -0.693481,0 -1.021972,0.51098 -1.204467,0.98547 -0.109497,0.29199 -0.145996,0.62048 -0.182495,0.98547 v 15.80407 c 0.036499,0.76648 0.255493,1.27746 0.620483,1.67895 0.182495,0.1825 0.437988,0.29199 0.766479,0.29199 0.839477,0 1.167968,-0.43798 1.350463,-0.98547 0.109497,-0.25549 0.145996,-0.58398 0.145996,-0.98547 v -3.6864 z"
             id="path3883" />
        </g>
        <g
           aria-label="P"
           transform="scale(0.99992751,1.0000725)"
           id="text7260"
           style="font-size:36.499px;font-family:'League Gothic';-inkscape-font-specification:'League Gothic';stroke-width:1.90262;paint-order:markers fill stroke">
          <path
             d="m 14.309636,277.46941 h 3.941892 c 1.715453,0 3.430906,0.43799 4.74487,1.67895 1.313964,1.24097 2.18994,3.28491 2.18994,6.35083 0,3.06591 -0.875976,5.07336 -2.18994,6.31432 -1.313964,1.24097 -3.029417,1.75196 -4.74487,1.75196 v 10.7307 h -3.941892 z m 3.941892,12.08117 c 1.204467,0 1.970946,-0.219 2.408934,-0.83948 0.437988,-0.58398 0.547485,-1.56946 0.547485,-3.06592 0,-1.49646 -0.109497,-2.55493 -0.547485,-3.21191 -0.437988,-0.65698 -1.204467,-0.94897 -2.408934,-0.94897 z"
             id="path3886" />
        </g>
        <g
           aria-label="S"
           transform="scale(0.99992751,1.0000725)"
           id="text7264"
           style="font-size:36.499px;font-family:'League Gothic';-inkscape-font-specification:'League Gothic';stroke-width:1.90262;paint-order:markers fill stroke">
          <path
             d="m 32.289836,284.28071 c 0,-0.87597 -0.0365,-1.86145 -0.291992,-2.62793 -0.255493,-0.72998 -0.656982,-1.24096 -1.277465,-1.24096 -1.021972,0.0365 -1.350463,1.09497 -1.350463,2.66443 0,0.91247 0.401489,1.86145 0.985473,2.88342 0.583984,1.02197 1.350463,2.08044 2.116942,3.21191 0.912475,1.35046 1.82495,2.73742 2.518431,4.08789 0.693481,1.35046 1.167968,2.73742 1.167968,4.19738 0,1.78845 -0.291992,3.46741 -1.131469,4.70837 -0.839477,1.24097 -2.18994,2.04395 -4.343381,2.04395 -2.518431,0 -3.941892,-0.94898 -4.74487,-2.40894 -0.802978,-1.45996 -0.985473,-3.3944 -0.985473,-5.40185 l 3.868894,-0.36499 c 0,1.13147 0.0365,2.26294 0.328491,3.10242 0.255493,0.87597 0.693481,1.45996 1.532958,1.45996 1.167968,0 1.605956,-1.24097 1.605956,-2.95642 0,-0.87598 -0.437988,-1.89795 -1.021972,-2.95642 -0.328491,-0.51099 -0.656982,-1.05847 -1.021972,-1.60596 -0.766479,-1.09497 -1.605956,-2.33593 -2.481932,-3.6864 -0.875976,-1.35046 -1.532958,-2.73742 -1.934447,-4.16088 -0.218994,-0.69348 -0.328491,-1.42346 -0.328491,-2.15344 0,-1.45996 0.328491,-3.02942 1.167968,-4.23389 0.839477,-1.16797 2.116942,-2.00744 3.978391,-2.04394 2.372435,-0.0365 3.759397,0.94897 4.525876,2.37243 0.766479,1.45996 0.985473,3.24841 0.985473,4.74487 z"
             id="path3889" />
        </g>
        <g
           aria-label="M"
           transform="scale(0.99992751,1.0000725)"
           id="text7268"
           style="font-size:36.499px;font-family:'League Gothic';-inkscape-font-specification:'League Gothic';stroke-width:1.90262;paint-order:markers fill stroke">
          <path
             d="m 43.514666,303.80612 -2.518431,-16.86254 -0.145996,-1.13147 h -0.218994 v 17.99401 h -3.6499 v -26.82676 h 4.817868 l 2.335936,12.26366 0.182495,1.42346 h 0.073 l 0.182495,-1.42346 2.335936,-12.26366 h 4.817868 v 26.82676 h -3.6499 v -17.99401 h -0.218994 l -0.145996,1.13147 -2.518431,16.86254 z"
             id="path3892" />
        </g>
        <g
           id="path7270">
          <path
             style="color:#000000;stroke-width:1.90262;-inkscape-stroke:none;paint-order:markers fill stroke"
             d="m -1.6013816,306.45369 59.4881226,0.19312"
             id="path3898" />
          <path
             style="color:#000000;-inkscape-stroke:none;paint-order:markers fill stroke"
             d="m -1.5976562,305.50195 -0.00586,1.90235 59.4863272,0.19336 0.0078,-1.90235 z"
             id="path3895" />
        </g>
        <g
           id="path7272">
          <path
             style="color:#000000;stroke-width:1.90262;-inkscape-stroke:none;paint-order:markers fill stroke"
             d="m -1.5807176,273.75791 59.4518746,0.19312"
             id="path3904" />
          <path
             style="color:#000000;-inkscape-stroke:none;paint-order:markers fill stroke"
             d="m -1.578125,272.80664 -0.00586,1.90234 59.451171,0.19336 L 57.875,273 Z"
             id="path3901" />
        </g>
        <g
           aria-label="LA PEDESTRE"
           transform="scale(0.99992751,1.0000725)"
           id="text7276"
           style="font-size:16.2218px;font-family:'League Gothic';-inkscape-font-specification:'League Gothic';stroke-width:1.90262;paint-order:markers fill stroke">
          <path
             d="M 0.62916273,308.83494 H 2.3811171 v 10.30085 h 2.3197174 v 1.62218 H 0.62916273 Z"
             id="path3934" />
          <path
             d="M 5.0901625,320.75797 6.8907823,308.83494 H 9.0320599 L 10.83268,320.75797 H 9.1293907 L 8.8049547,318.3247 H 7.1178875 l -0.324436,2.43327 z m 2.9685894,-8.04602 -0.048665,-0.30821 h -0.097331 l -0.048665,0.30821 -0.5028758,3.76346 h 1.2004132 z"
             id="path3931" />
          <path
             d="m 14.141925,308.83494 h 1.751954 c 0.762425,0 1.524849,0.19466 2.108834,0.7462 0.583985,0.55155 0.973308,1.45997 0.973308,2.8226 0,1.36263 -0.389323,2.25483 -0.973308,2.80637 -0.583985,0.55154 -1.346409,0.77865 -2.108834,0.77865 v 4.76921 h -1.751954 z m 1.751954,5.36942 c 0.53532,0 0.875977,-0.0973 1.070639,-0.3731 0.194662,-0.25955 0.243327,-0.69754 0.243327,-1.36263 0,-0.6651 -0.04866,-1.13553 -0.243327,-1.42752 -0.194662,-0.292 -0.535319,-0.42177 -1.070639,-0.42177 z"
             id="path3928" />
          <path
             d="m 19.851987,308.83494 h 4.006784 v 1.80062 h -2.25483 v 3.13081 h 1.62218 v 1.91417 h -1.62218 v 3.27681 h 2.25483 v 1.80062 h -4.006784 z"
             id="path3925" />
          <path
             d="m 24.832066,320.75797 v -11.92303 h 1.378853 c 1.62218,0 2.498158,0.32444 2.96859,1.23286 0.45421,0.90842 0.519097,2.40083 0.519097,4.73676 0,2.33594 -0.06489,3.81213 -0.519097,4.72055 -0.470432,0.90842 -1.34641,1.23286 -2.96859,1.23286 z m 1.751955,-1.75196 c 0.600206,0 0.940864,-0.0649 1.119304,-0.64887 0.08111,-0.27577 0.145996,-0.69754 0.162218,-1.2653 0.01622,-0.56776 0.01622,-1.33019 0.01622,-2.3035 0,-0.97331 0,-1.73573 -0.01622,-2.30349 -0.01622,-0.55154 -0.08111,-0.97331 -0.162218,-1.2653 -0.17844,-0.56777 -0.519098,-0.63265 -1.119304,-0.63265 z"
             id="path3922" />
          <path
             d="m 30.866572,308.83494 h 4.006785 v 1.80062 h -2.25483 v 3.13081 h 1.62218 v 1.91417 h -1.62218 v 3.27681 h 2.25483 v 1.80062 h -4.006785 z"
             id="path3919" />
          <path
             d="m 38.750352,312.03064 c 0,-0.38933 -0.01622,-0.82732 -0.129774,-1.16797 -0.113553,-0.32444 -0.291993,-0.55154 -0.567763,-0.55154 -0.454211,0.0162 -0.600207,0.48665 -0.600207,1.18419 0,0.40554 0.17844,0.82731 0.437989,1.28152 0.259549,0.45421 0.600206,0.92464 0.940864,1.42752 0.405545,0.6002 0.81109,1.21663 1.119304,1.81684 0.308215,0.60021 0.519098,1.21663 0.519098,1.86551 0,0.79486 -0.129774,1.54107 -0.502876,2.09261 -0.373101,0.55154 -0.973308,0.90842 -1.930394,0.90842 -1.119304,0 -1.751954,-0.42177 -2.108834,-1.07064 -0.35688,-0.64887 -0.437989,-1.50863 -0.437989,-2.40083 l 1.719511,-0.16221 c 0,0.50287 0.01622,1.00575 0.145996,1.37885 0.113553,0.38932 0.308215,0.64887 0.681316,0.64887 0.519098,0 0.713759,-0.55154 0.713759,-1.31396 0,-0.38933 -0.194661,-0.84354 -0.45421,-1.31397 -0.145996,-0.22711 -0.291993,-0.47043 -0.454211,-0.71376 -0.340657,-0.48665 -0.713759,-1.03819 -1.103082,-1.6384 -0.389323,-0.60021 -0.681316,-1.21664 -0.859755,-1.84929 -0.09733,-0.30821 -0.145997,-0.63265 -0.145997,-0.95708 0,-0.64887 0.145997,-1.34641 0.519098,-1.88173 0.373101,-0.5191 0.940864,-0.8922 1.768176,-0.90842 1.054417,-0.0162 1.670846,0.42176 2.011503,1.05441 0.340658,0.64888 0.437989,1.44374 0.437989,2.10884 z"
             id="path3916" />
          <path
             d="m 40.794309,310.63556 v -1.80062 h 5.061201 v 1.80062 h -1.654623 v 10.12241 h -1.751955 v -10.12241 z"
             id="path3913" />
          <path
             d="m 49.667632,320.75797 -0.908421,-5.02876 h -0.470432 v 5.02876 h -1.751955 v -11.92303 h 1.751955 c 2.092612,0 2.984811,1.18419 2.984811,3.43902 0,1.1842 -0.308214,2.25483 -0.973308,2.70904 l 1.119304,5.77497 z m -1.378853,-6.65094 c 0.243327,0 0.567763,-0.0324 0.827311,-0.25955 0.259549,-0.22711 0.470433,-0.6651 0.470433,-1.50863 0,-0.84353 -0.210884,-1.29774 -0.470433,-1.52485 -0.259548,-0.2271 -0.583984,-0.24333 -0.827311,-0.24333 z"
             id="path3910" />
          <path
             d="m 52.392896,308.83494 h 4.006784 v 1.80062 h -2.25483 v 3.13081 h 1.62218 v 1.91417 h -1.62218 v 3.27681 h 2.25483 v 1.80062 h -4.006784 z"
             id="path3907" />
        </g>
      </g>
    </g>
  </g>
</svg>
