<?xml version="1.0" encoding="UTF-8" standalone="no"?>
<!-- Created with Inkscape (http://www.inkscape.org/) -->

<svg
   width="57.644463mm"
   height="58.217194mm"
   viewBox="0 0 57.644464 58.217194"
   version="1.1"
   id="svg398"
   inkscape:export-filename="AveFenixLogo.png"
   inkscape:export-xdpi="200"
   inkscape:export-ydpi="200"
   inkscape:version="1.2.1 (9c6d41e410, 2022-07-14)"
   sodipodi:docname="AveFenixLogo.svg"
   xmlns:inkscape="http://www.inkscape.org/namespaces/inkscape"
   xmlns:sodipodi="http://sodipodi.sourceforge.net/DTD/sodipodi-0.dtd"
   xmlns="http://www.w3.org/2000/svg"
   xmlns:svg="http://www.w3.org/2000/svg">
  <sodipodi:namedview
     id="namedview400"
     pagecolor="#ffffff"
     bordercolor="#000000"
     borderopacity="0.25"
     inkscape:showpageshadow="2"
     inkscape:pageopacity="0.0"
     inkscape:pagecheckerboard="0"
     inkscape:deskcolor="#d1d1d1"
     inkscape:document-units="mm"
     showgrid="false"
     inkscape:zoom="0.710625"
     inkscape:cx="194.89886"
     inkscape:cy="49.956025"
     inkscape:window-width="1920"
     inkscape:window-height="974"
     inkscape:window-x="-11"
     inkscape:window-y="-11"
     inkscape:window-maximized="1"
     inkscape:current-layer="layer1" />
  <defs
     id="defs395">
    <inkscape:path-effect
       effect="bspline"
       id="path-effect2566"
       is_visible="true"
       lpeversion="1"
       weight="33.333333"
       steps="2"
       helper_size="0"
       apply_no_weight="true"
       apply_with_weight="true"
       only_selected="false" />
    <inkscape:path-effect
       effect="bspline"
       id="path-effect2562"
       is_visible="true"
       lpeversion="1"
       weight="33.333333"
       steps="2"
       helper_size="0"
       apply_no_weight="true"
       apply_with_weight="true"
       only_selected="false" />
    <clipPath
       clipPathUnits="userSpaceOnUse"
       id="clipPath12749">
      <path
         id="path12751"
         style="fill:#ff0000;fill-opacity:1;fill-rule:nonzero;stroke:none;stroke-width:0.264583"
         d="m 85.637666,113.77548 v 44.89959 h 46.711364 c 0.0498,-15.08285 0.28779,-30.60458 0,-44.89959 z m 21.602814,7.42074 c 0.0425,0.001 0.0851,-5.3e-4 0.12764,0.002 0.0204,10e-4 0.0406,0.003 0.061,0.004 0.0572,0.004 0.11372,0.0137 0.17002,0.0243 0.0567,0.0115 0.11266,0.0268 0.16846,0.0419 0.009,0.003 0.0174,0.005 0.0264,0.008 0.021,0.006 0.0305,0.009 0.0512,0.016 0.0238,0.008 0.0472,0.0167 0.0708,0.0258 0.0403,0.016 0.0792,0.0352 0.11886,0.0527 0.0231,0.0104 0.0454,0.0228 0.0677,0.0346 0.0268,0.0138 0.005,0.002 0.0315,0.0176 0.0334,0.0185 0.0642,0.0413 0.0951,0.0636 0.0373,0.028 0.0744,0.0557 0.11162,0.0837 0.0258,0.0211 0.0521,0.0421 0.0775,0.0636 0.0111,0.009 0.0238,0.021 0.0346,0.031 0.0329,0.0288 0.0671,0.0561 0.1018,0.0827 0.0222,0.0172 0.0446,0.0343 0.0667,0.0517 0.0195,0.0166 0.01,0.008 0.0295,0.0238 0.0277,0.0212 0.0521,0.0465 0.078,0.0698 0.0254,0.0241 0.0502,0.0485 0.0749,0.0734 0.0264,0.0265 0.0513,0.0545 0.077,0.0816 0.0139,0.0138 0.0262,0.0288 0.0398,0.0429 0.013,0.0135 0.0275,0.0259 0.0413,0.0388 0.0269,0.0222 0.0539,0.0452 0.0811,0.0672 0.0281,0.0252 0.0533,0.0532 0.0796,0.0801 0.0277,0.0268 0.0571,0.0515 0.0858,0.077 0.0312,0.0251 0.0596,0.0528 0.0879,0.0811 0.0222,0.0217 0.0436,0.0443 0.0661,0.0656 l 0.002,0.002 c 0.005,0.004 0.011,0.007 0.0155,0.0108 0.002,0.002 0.004,0.004 0.006,0.005 0.0119,0.009 8e-4,-0.002 0.0119,0.01 0.0121,0.01 0.0231,0.0213 0.0341,0.0326 l 0.008,0.008 c 5.3e-4,5.3e-4 2.6e-4,-2.6e-4 0.001,5.3e-4 0.005,0.005 0.01,0.01 0.015,0.0145 0.002,0.002 0.005,0.004 0.008,0.006 0.007,0.007 0.0142,0.0142 0.0222,0.0202 0.002,0.002 0.004,0.003 0.006,0.005 0.003,0.002 0.005,0.005 0.007,0.007 0.0118,0.0112 0.0225,0.0239 0.0326,0.0367 0.007,0.01 0.0137,0.02 0.0207,0.03 0.0111,0.017 0.0169,0.0355 0.007,0.0543 -7.9e-4,0.002 -0.001,0.005 -0.002,0.007 -0.005,0.0128 -0.0172,0.0223 -0.031,0.0253 -0.004,5.3e-4 -0.009,7e-5 -0.0135,5.3e-4 -0.0268,-0.002 -0.0529,-0.007 -0.0791,-0.0129 -0.0291,-0.007 -0.0579,-0.0153 -0.0863,-0.0253 -0.0305,-0.01 -0.0598,-0.022 -0.0894,-0.0341 -0.03,-0.014 -0.0607,-0.0266 -0.091,-0.0403 -0.0339,-0.0138 -0.068,-0.0267 -0.10181,-0.0408 -0.0332,-0.0125 -0.0653,-0.0276 -0.0971,-0.0429 -0.0189,-0.0108 -0.0392,-0.02 -0.0589,-0.0289 -0.008,-0.004 -0.0114,-0.005 -0.0129,-0.006 -0.002,-7.9e-4 -0.006,-0.003 -0.0139,-0.007 -0.0297,-0.0114 -0.0598,-0.0219 -0.0899,-0.032 l -0.015,-0.006 c -0.0166,-0.006 -0.0155,-0.005 -0.032,-0.0119 -0.0171,-0.007 -0.0334,-0.0146 -0.0501,-0.0228 -0.0341,-0.0169 -0.0681,-0.0335 -0.10232,-0.0501 -0.0361,-0.0161 -0.0719,-0.0335 -0.108,-0.0496 -0.0365,-0.0173 -0.072,-0.0356 -0.10749,-0.0548 -0.0365,-0.0198 -0.0733,-0.0397 -0.11008,-0.0589 -0.0344,-0.0176 -0.0678,-0.0373 -0.10179,-0.0558 -0.0346,-0.0204 -0.0688,-0.0416 -0.10336,-0.062 -0.0345,-0.0207 -0.0708,-0.0372 -0.108,-0.0527 -0.005,-0.002 -0.0266,-0.0121 -0.0326,-0.0139 l -0.0155,-0.006 -0.015,-0.006 c -0.0119,-0.005 -0.0175,-0.007 -0.0295,-0.0119 -0.0298,-0.0126 -0.0588,-0.0278 -0.0884,-0.0408 -0.0277,-0.0143 -0.0566,-0.0256 -0.0853,-0.0377 -0.0263,-0.0119 -0.0541,-0.0204 -0.0816,-0.0284 -0.005,-10e-4 -0.009,-0.003 -0.0139,-0.004 -0.005,-0.001 -0.009,-0.002 -0.014,-0.003 -0.0183,-0.005 -0.0364,-0.01 -0.0548,-0.0134 -0.0273,-0.006 -0.0546,-0.0115 -0.0822,-0.0155 -0.0269,-0.004 -0.054,-0.007 -0.0811,-0.009 -0.0243,-0.002 -0.0486,-0.004 -0.0729,-0.002 -0.0247,0.003 -0.0491,0.008 -0.0734,0.0134 -0.007,0.002 -0.0146,0.005 -0.0222,0.006 -0.0212,0.008 -0.0433,0.0147 -0.0646,0.0217 -0.0253,0.008 -0.0502,0.0182 -0.077,0.0202 -0.0273,0.004 -0.055,0.006 -0.0827,0.006 -0.008,1.4e-4 -0.0162,1.8e-4 -0.0243,0 -0.0205,0.003 -0.0412,0.006 -0.0615,0.0104 -0.0106,0.001 -0.0209,0.002 -0.0315,0.004 0.0108,0.0135 10e-4,0.0349 -0.0295,0.0382 -0.018,0.002 -0.0358,10e-4 -0.0538,-0.001 -0.0152,-0.002 -0.0299,-0.005 -0.0444,-0.01 -0.007,-0.002 -0.0152,-0.005 -0.0222,-0.008 -0.0113,-0.005 -0.0222,-0.01 -0.0331,-0.0155 h -5.3e-4 c -0.009,-10e-4 -0.0184,-0.003 -0.0274,-0.005 -0.0173,-0.003 -0.0345,-0.007 -0.0517,-0.0108 -0.0147,-0.004 -0.0292,-0.009 -0.0434,-0.015 -0.008,-0.004 -0.0173,-0.008 -0.0243,-0.0139 -0.001,-0.001 -0.008,-0.007 -0.009,-0.008 -0.008,-0.006 -0.0147,-0.0142 -0.0207,-0.0222 -0.005,-0.008 -0.0105,-0.0158 -0.0155,-0.0248 -0.004,-0.009 -0.008,-0.0184 -0.0124,-0.0284 -0.003,-0.009 -0.008,-0.0174 -0.0103,-0.0264 -0.004,-0.01 -0.007,-0.0209 -0.009,-0.0315 -2.6e-4,-0.003 -7.9e-4,-0.005 -0.001,-0.005 -1.6e-4,-7.9e-4 2.2e-4,-0.003 -5.3e-4,-0.007 -0.001,-0.003 -0.001,-0.007 -0.002,-0.0114 -0.004,-0.0189 0.003,-0.0305 0.0119,-0.0351 -5e-5,-0.005 -2.2e-4,-0.0103 0,-0.0155 10e-4,-0.014 0.002,-0.0282 0.005,-0.0419 0.001,-0.007 0.003,-0.0137 0.005,-0.0207 0.001,-0.004 0.002,-0.007 0.003,-0.0114 0.001,-0.004 0.003,-0.007 0.004,-0.0103 0.005,-0.0148 0.0112,-0.0295 0.0171,-0.0439 0.01,-0.0215 0.0203,-0.0422 0.0315,-0.063 0.0123,-0.021 0.0268,-0.0414 0.0414,-0.061 0.0162,-0.0207 0.0337,-0.0402 0.0522,-0.0589 0.0166,-0.014 0.0324,-0.0281 0.0501,-0.0408 0.01,-0.007 0.0194,-0.0127 0.0294,-0.0196 0.0218,-0.0135 0.0445,-0.0267 0.0682,-0.0367 0.007,-0.003 0.0369,-0.014 0.0429,-0.016 0.0455,-0.0155 0.0915,-0.0303 0.13746,-0.0444 0.007,-0.002 0.0152,-0.004 0.0222,-0.006 0.0239,-0.007 0.0194,-0.006 0.0434,-0.0124 0.0224,-0.005 0.0451,-0.0105 0.0677,-0.0145 0.0555,-0.009 0.11185,-0.009 0.16795,-0.0104 z m 0.30386,0.31264 c -0.001,4e-5 -0.003,5.3e-4 -0.004,5.3e-4 0.002,0.002 0.004,0.004 0.005,0.006 -2.1e-4,-0.002 -7.9e-4,-0.004 -10e-4,-0.007 z m -0.15348,0.006 c -0.001,6e-5 -0.002,5.3e-4 -0.004,5.3e-4 0.001,4e-5 0.002,-3e-5 0.004,0 z m -0.43977,0.0594 -0.002,0.002 c -0.001,10e-4 -0.003,0.002 -0.003,0.004 0.001,0.002 0.003,-0.002 0.004,-0.003 1.3e-4,-5.3e-4 2.7e-4,-0.002 5.3e-4,-0.003 z m 0.63459,0.15245 c 0.001,2.6e-4 0.002,7.9e-4 0.003,0.001 8e-4,-1.6e-4 0.001,-2.7e-4 0.002,-5.3e-4 -0.002,-1.1e-4 -0.003,-5.3e-4 -0.005,-5.3e-4 z m -1.08365,0.0104 c 2.7e-4,0.009 -2.6e-4,0.0181 0.003,0.0269 5.3e-4,0.001 0.002,0.002 0.002,0.004 l 0.003,-0.009 c 0.002,-0.005 0.005,-0.009 0.009,-0.0129 -2.6e-4,-0.002 -7.9e-4,-0.005 -0.001,-0.007 -0.006,-8e-4 -0.0106,-10e-4 -0.015,-0.002 z m 1.2423,0.0227 c -0.004,0.002 -0.007,0.003 -0.0109,0.005 0.001,0.001 0.006,0.002 0.006,0.004 1e-5,9e-5 5.3e-4,-9e-5 5.3e-4,0 0.002,-0.003 0.002,-0.005 0.005,-0.009 z m -0.8847,0.10801 c 1.2e-4,8e-4 2.5e-4,0.002 5.3e-4,0.003 0.003,-2.6e-4 0.005,-8e-4 0.008,-10e-4 l -0.002,-0.002 c -5.3e-4,2e-5 -2.7e-4,-3e-5 -0.002,0 -0.002,5e-5 -0.003,1e-5 -0.005,0 z m 1.31878,0.28008 c 0.004,0.002 0.008,0.005 0.0124,0.008 0.0111,0.006 0.0219,0.0131 0.0331,0.0191 0.005,0.003 0.0111,0.006 0.0171,0.009 0.0169,0.009 0.0334,0.0178 0.0506,0.0269 0.0223,0.0123 0.0189,0.0111 0.016,0.009 -0.002,-8e-4 -5.3e-4,2e-4 0.002,0.001 0.002,0.001 0.008,0.003 0.0186,0.009 0.0149,0.008 0.0216,0.0127 0.0367,0.0207 0.006,0.004 0.0126,0.007 0.0186,0.0104 0.006,0.003 0.0126,0.008 0.0186,0.0108 0.0347,0.0188 0.0703,0.0362 0.10593,0.0532 0.036,0.0165 0.0708,0.0335 0.10698,0.0496 0.01,0.005 0.013,0.006 0.015,0.007 0.002,7.9e-4 0.004,0.002 0.003,0.002 5.3e-4,2.5e-4 2.6e-4,7e-5 0.001,5.2e-4 0.003,0.001 0.006,0.003 0.0176,0.008 0.0224,0.0108 0.0441,0.0231 0.0667,0.0336 0.0208,0.01 0.0422,0.0176 0.0636,0.0258 -0.002,-0.001 2.7e-4,2.6e-4 -0.007,-0.004 -0.008,-0.003 -0.0157,-0.007 -0.0238,-0.01 -0.0301,-0.0115 -0.0585,-0.0272 -0.0868,-0.0424 -0.0292,-0.0178 -0.0587,-0.0352 -0.0889,-0.0512 -0.0173,-0.009 -0.0343,-0.0194 -0.0517,-0.0284 -0.0159,-0.008 -0.008,-0.004 -0.0238,-0.0119 -0.0148,-0.007 -0.0295,-0.0157 -0.0444,-0.0227 -0.005,-0.002 -0.006,-0.003 -0.007,-0.004 -7.9e-4,-2.6e-4 -0.005,-0.002 -0.015,-0.007 -0.007,-0.004 -0.0142,-0.007 -0.0212,-0.01 -0.003,-0.002 -0.006,-0.004 -0.01,-0.006 -0.007,-0.003 -0.0152,-0.006 -0.0222,-0.009 -0.004,-0.002 -0.007,-0.003 -0.01,-0.005 -0.0181,-0.008 -0.0363,-0.0153 -0.0538,-0.0243 -0.003,-0.001 -0.005,-0.002 -0.008,-0.003 -0.003,-0.001 -0.005,-0.003 -0.008,-0.004 -0.0109,-0.005 -0.0222,-0.009 -0.0331,-0.0145 -0.007,-0.005 -0.0158,-0.006 -0.0238,-0.0104 -0.002,-10e-4 -0.005,-0.003 -0.007,-0.004 -0.008,-0.005 -0.008,-0.004 -0.0155,-0.008 -0.0143,-0.008 -0.0284,-0.0153 -0.0429,-0.0233 z"
         sodipodi:nodetypes="ccccccccccccccccccccccccccscccccccccccscccccccccccccccccccccccccccccccccccccccsccccccccccccccccccccccccccccccccccccccccccccccccccccccccccccccscccccccccccccccccccscccccccscccccccccccccccccccccccccccccccccccsccccccc" />
    </clipPath>
    <inkscape:path-effect
       effect="bspline"
       id="path-effect21560"
       is_visible="true"
       lpeversion="1"
       weight="33.333333"
       steps="2"
       helper_size="0"
       apply_no_weight="true"
       apply_with_weight="true"
       only_selected="false" />
    <inkscape:path-effect
       effect="bspline"
       id="path-effect21564"
       is_visible="true"
       lpeversion="1"
       weight="33.333333"
       steps="2"
       helper_size="0"
       apply_no_weight="true"
       apply_with_weight="true"
       only_selected="false" />
    <inkscape:path-effect
       effect="bspline"
       id="path-effect21568"
       is_visible="true"
       lpeversion="1"
       weight="33.333333"
       steps="2"
       helper_size="0"
       apply_no_weight="true"
       apply_with_weight="true"
       only_selected="false" />
  </defs>
  <g
     inkscape:label="Capa 1"
     inkscape:groupmode="layer"
     id="layer1"
     transform="translate(-24.792549,-90.22152)">
    <g
       id="g4026">
      <ellipse
         style="fill:#ffffff;fill-opacity:1;stroke:#4471b2;stroke-width:0.348396;stroke-opacity:1"
         id="ellipse2486"
         cx="53.61478"
         cy="119.33012"
         rx="28.648033"
         ry="28.934399" />
      <ellipse
         style="fill:#000000;fill-opacity:1;stroke:#050505;stroke-width:0.0651306;stroke-opacity:1"
         id="ellipse2488"
         cx="53.072254"
         cy="119.62531"
         rx="23.177155"
         ry="23.084074" />
      <path
         id="path2490"
         style="fill:#ffffff;fill-opacity:1;stroke:#4471b2;stroke-width:0.283;stroke-dasharray:none;stroke-opacity:1"
         d="m 65.262629,140.01123 a 23.370138,23.463074 74.157519 0 1 -32.09774,-8.2787 23.370138,23.463074 74.157519 0 1 8.37363,-32.006852 23.370138,23.463074 74.157519 0 1 32.09775,8.278722 23.370138,23.463074 74.157519 0 1 -8.37364,32.00683 z" />
      <path
         style="fill:#4471b2;fill-opacity:1;stroke:#ffffff;stroke-width:0.1;stroke-dasharray:none;stroke-opacity:1"
         d="m 104.00591,121.38163 c 0.41068,-0.68565 0.95297,-1.93296 2.30084,-1.99422 1.34788,-0.0613 3.50074,1.06344 5.09995,2.04637 1.59922,0.98293 2.64447,1.82379 3.88488,2.40118 1.2404,0.57738 2.67575,0.89137 3.41245,1.0631 0.7367,0.17173 0.77469,0.20104 0.1389,0.37851 -0.6358,0.17747 -1.94519,0.50337 -2.063,2.1491 -0.11781,1.64572 0.95604,4.61077 0.47619,7.33502 -0.47984,2.72426 -2.51317,5.20775 -1.64852,5.11591 0.86465,-0.0918 4.62679,-2.75872 6.27457,-5.88263 1.64778,-3.1239 1.1805,-6.70365 -0.272,-9.62493 -1.45251,-2.92127 -3.89019,-5.18307 -3.54395,-5.25027 0.34625,-0.0672 3.47656,2.06032 5.42338,5.23686 1.94682,3.17654 2.71041,7.40179 2.92997,7.48903 0.21956,0.0872 -0.1049,-3.9635 -1.22212,-7.14183 -1.11722,-3.17833 -3.02731,-5.48392 -5.5919,-7.31824 -2.5646,-1.83433 -5.78349,-3.19704 -5.55205,-3.24975 0.23144,-0.0527 3.91326,1.20463 6.91351,3.00476 3.00025,1.80013 5.31874,4.1427 7.14354,6.51265 1.8248,2.36995 3.15571,4.76689 3.55815,8.58325 0.40244,3.81636 -0.12347,9.05189 -1.85166,13.07916 -1.7282,4.02726 -4.65858,6.84633 -7.77254,8.92487 -3.11396,2.07855 -6.41136,3.41648 -9.59615,3.92887 -3.18479,0.5124 -6.25679,0.19912 -8.80981,-0.35263 -2.55302,-0.55174 -4.586862,-1.34199 -4.609773,-1.45148 -0.02291,-0.10949 1.965103,0.46181 4.138113,0.70082 2.17301,0.23901 4.53082,0.14579 6.88248,-0.44341 2.35166,-0.5892 4.69713,-1.67428 6.52876,-3.01745 1.83162,-1.34317 3.14938,-2.9444 2.20029,-2.44203 -0.94908,0.50236 -4.16492,3.10829 -8.59551,4.13743 -4.43059,1.02914 -10.07569,0.48131 -14.279289,-1.72716 -4.203601,-2.20847 -6.965171,-6.07761 -8.439397,-9.12479 -1.474227,-3.04717 -1.660758,-5.27199 -1.722434,-7.01965 -0.06168,-1.74765 0.0015,-3.01786 0.02017,-4.13285 0.01863,-1.11498 -0.0074,-2.07459 0.343595,-0.84881 0.35096,1.22578 1.078753,4.63673 3.439645,7.45105 2.360892,2.81432 6.354308,5.03172 6.566603,4.81675 0.212295,-0.21496 -3.356556,-2.86231 -5.527628,-6.09128 -2.171071,-3.22896 -2.94387,-7.03922 -2.706651,-10.12667 0.237219,-3.08745 1.484536,-5.45145 1.81988,-5.48013 0.335345,-0.0287 -0.241333,2.27787 0.250318,4.77533 0.491651,2.49745 2.051327,5.18533 4.571266,6.97238 2.519938,1.78705 5.999628,2.67323 8.706378,1.46375 2.70676,-1.20948 4.64055,-4.51448 3.98572,-6.85239 -0.65483,-2.33791 -3.89862,-3.70854 -5.99452,-3.48499 -2.095899,0.22355 -3.043363,2.04129 -3.468464,2.26008 -0.425102,0.21878 -0.327833,-1.16155 0.251502,-2.36025 0.579334,-1.1987 1.640613,-2.21534 2.560602,-2.76412 0.91999,-0.54878 1.6983,-0.62957 2.22703,-0.73204 0.52874,-0.10246 0.80799,-0.22657 1.21868,-0.91223 z"
         id="path2492"
         sodipodi:nodetypes="cccccccccccccccccccccccccccccccccccccccccccccccccc"
         inkscape:original-d="m 103.87434,121.94323 c 0.54257,-1.24711 1.08485,-2.49442 1.62691,-3.74208 2.15333,1.12509 4.30619,2.2498 6.45901,3.37437 1.04563,0.84122 2.09089,1.68208 3.13597,2.52275 1.43571,0.31427 2.87106,0.62826 4.30624,0.942 0.0382,0.0296 0.0762,0.0589 0.11392,0.0879 -1.30918,0.32618 -2.61857,0.65208 -3.92828,0.97773 1.07416,2.96544 2.14801,5.93048 3.22164,8.8954 -2.03318,2.48389 -4.06651,4.96738 -6.10024,7.45076 3.76295,-2.667 7.5251,-5.33388 11.2878,-8.00161 -0.46713,-3.58041 -0.93441,-7.16016 -1.40206,-10.74098 -2.4376,-2.26169 -4.87528,-4.52349 -7.31313,-6.78545 3.13031,2.1276 6.26062,4.25513 9.39062,6.38235 0.76389,4.22576 1.52747,8.45101 2.29084,12.67623 -0.32421,-4.05071 -0.64867,-8.10146 -0.97341,-12.15269 -1.90992,-2.30543 -3.82,-4.61102 -5.73045,-6.91699 -3.21882,-1.36253 -6.43771,-2.72524 -9.65708,-4.0883 3.68225,1.25766 7.36407,2.515 11.04568,3.7721 2.31894,2.34301 4.63743,4.68558 6.95584,7.02806 1.33128,2.39737 2.6622,4.79431 3.99293,7.19114 -0.52566,5.23597 -1.05157,10.4715 -1.57775,15.70684 -2.93024,2.81943 -5.86063,5.63849 -8.79136,8.45737 -3.29731,1.33826 -6.59471,2.67619 -9.89256,4.01394 -3.07188,-0.31304 -6.14388,-0.62632 -9.21627,-0.93988 -2.03369,-0.79002 -4.067525,-1.58027 -6.101772,-2.37083 1.988428,0.57161 3.976442,1.14292 5.964342,1.714 2.35818,-0.093 4.71599,-0.18618 7.07358,-0.27967 2.34587,-1.08488 4.69134,-2.16995 7.03665,-3.25534 1.31808,-1.60103 2.63584,-3.20226 3.95342,-4.80387 -3.21581,2.60639 -6.43164,5.21232 -9.64793,7.81814 -5.64515,-0.54759 -11.29025,-1.09542 -16.935926,-1.64354 -2.761457,-3.86909 -5.523022,-7.73824 -8.285007,-11.60786 -0.186279,-2.22471 -0.37281,-4.44953 -0.55962,-6.67479 0.06349,-1.27002 0.126718,-2.54023 0.189681,-3.81076 -0.02573,-0.95946 -0.05172,-1.91907 -0.07798,-2.87905 0.72812,3.41151 1.455914,6.82246 2.1835,10.23342 3.993948,2.21781 7.987367,4.4352 11.980772,6.65248 -3.568798,-2.64725 -7.137651,-5.2946 -10.706976,-7.94237 -0.772583,-3.81024 -1.545383,-7.6205 -2.318499,-11.43129 1.247666,-2.3639 2.494984,-4.7279 3.742114,-7.09231 -0.576447,2.30695 -1.153124,4.61351 -1.730102,6.91995 1.560053,2.68834 3.119732,5.37622 4.679258,8.06404 3.480216,0.88652 6.959905,1.7727 10.439595,2.65868 1.93418,-3.30495 3.86797,-6.60995 5.8016,-9.9154 -3.24365,-1.37042 -6.48745,-2.74105 -9.73163,-4.112 -0.947238,1.81809 -1.894704,3.63583 -2.842484,5.4534 0.09754,-1.38015 0.194808,-2.76048 0.291819,-4.14116 1.061634,-1.01647 2.122916,-2.03311 3.184035,-3.05012 0.77863,-0.0805 1.55694,-0.16132 2.33501,-0.24238 0.27951,-0.12384 0.55876,-0.24795 0.83774,-0.37233 z"
         inkscape:path-effect="#path-effect2562"
         clip-path="url(#clipPath12749)"
         transform="matrix(0.94071198,0,0,0.95851006,-48.862434,-10.062713)" />
      <text
         xml:space="preserve"
         style="font-style:normal;font-variant:normal;font-weight:normal;font-stretch:normal;font-size:3.70417px;font-family:'Lucida Bright';-inkscape-font-specification:'Lucida Bright';fill:#ffffff;fill-opacity:1;stroke:#000000;stroke-width:0.0700042;stroke-opacity:1"
         x="75.055527"
         y="94.631462"
         id="text2496"><tspan
           sodipodi:role="line"
           id="tspan2494"
           style="fill:#ffffff;fill-opacity:1;stroke-width:0.0700042"
           x="75.055527"
           y="94.631462">   </tspan></text>
      <g
         aria-label="MARMOLEJO"
         id="g2516"
         style="font-weight:600;font-size:3.70417px;line-height:0;font-family:'Lucida Bright';-inkscape-font-specification:'Lucida Bright, Semi-Bold';letter-spacing:1.32292px;word-spacing:0.0132292px;fill:#4471b2;fill-opacity:1;stroke:#4471b2;stroke-width:0.065;stroke-dasharray:none;stroke-opacity:1"
         transform="translate(-123.29827,-1.8845709)">
        <path
           d="m 162.69335,141.59336 0.76752,0.45387 -0.24366,1.86891 1.53272,-1.10663 0.6928,0.40969 -0.0847,0.14323 -0.0305,-0.0159 q -0.16772,-0.0824 -0.22371,-0.0587 -0.0544,0.0245 -0.17781,0.23316 l -0.82949,1.40271 q -0.12336,0.20862 -0.118,0.27062 0.006,0.0605 0.15708,0.16433 l 0.0286,0.019 -0.0856,0.14479 -0.90297,-0.53397 0.0856,-0.14479 0.0305,0.0159 q 0.13538,0.0695 0.18606,0.0407 0.0523,-0.0279 0.17653,-0.23812 l 0.80832,-1.3669 -1.64266,1.13618 -0.15412,-0.0911 0.27833,-2.07324 -0.86539,1.46343 q -0.12244,0.20706 -0.12268,0.26786 -2.3e-4,0.0608 0.12439,0.145 l 0.0271,0.0181 -0.0856,0.14478 -0.69124,-0.40876 0.0856,-0.14478 0.0305,0.0159 q 0.16369,0.0821 0.21968,0.0585 0.0569,-0.0252 0.18028,-0.2338 l 0.82949,-1.40271 q 0.12337,-0.20862 0.11709,-0.26907 -0.005,-0.0595 -0.15616,-0.16588 l -0.0287,-0.019 z"
           id="path2498"
           style="fill:#4471b2;fill-opacity:1;stroke:#4471b2;stroke-width:0.065;stroke-dasharray:none;stroke-opacity:1" />
        <path
           d="m 166.32506,145.64237 -0.23151,0.21797 q -0.17069,0.1622 -0.19916,0.23458 -0.0219,0.0555 0.0842,0.0973 0.0145,0.008 0.062,0.0302 l 0.0313,0.0143 -0.0616,0.15653 -0.66485,-0.2615 0.0616,-0.15654 0.0326,0.0109 q 0.13796,0.0445 0.18553,0.0224 0.0493,-0.0214 0.26469,-0.22823 l 1.7232,-1.65837 0.17336,0.0682 0.13772,2.39227 q 0.0242,0.29912 0.0446,0.34602 0.0221,0.0476 0.15886,0.11496 l 0.0212,0.0103 -0.0616,0.15653 -1.03851,-0.40848 0.0616,-0.15653 0.0326,0.0109 q 0.21738,0.0699 0.24127,0.0191 0.0232,-0.0492 0.009,-0.30535 l -0.0183,-0.31427 z m 0.14296,-0.13617 0.89376,0.35154 -0.0738,-1.14657 z"
           id="path2500"
           style="fill:#4471b2;fill-opacity:1;stroke:#4471b2;stroke-width:0.065;stroke-dasharray:none;stroke-opacity:1" />
        <path
           d="m 170.50035,146.65363 -0.14536,0.63098 q -0.054,0.23441 -0.0358,0.29243 0.0199,0.0584 0.16421,0.10093 l 0.0313,0.009 -0.0378,0.16392 -1.04341,-0.24038 0.0378,-0.16391 0.0339,0.006 q 0.18085,0.0287 0.22706,-0.0108 0.0466,-0.0412 0.10103,-0.27741 l 0.36584,-1.58802 q 0.0544,-0.23618 0.0301,-0.29189 -0.0225,-0.0553 -0.19905,-0.11081 l -0.0331,-0.009 0.0374,-0.16215 0.75965,0.175 0.32457,0.0655 0.1612,0.0334 q 0.80723,0.18597 0.65496,0.84691 -0.0621,0.26966 -0.2303,0.42766 -0.16818,0.158 -0.44377,0.20216 l 0.34614,0.82588 q 0.13012,0.29724 0.17054,0.34739 0.0422,0.0505 0.1882,0.0935 l 0.0331,0.009 -0.0378,0.16391 -0.77727,-0.17906 -0.45951,-1.30858 z m 0.0402,-0.17449 0.0969,0.0223 q 0.27672,0.0637 0.47663,-0.0628 0.19991,-0.12656 0.26528,-0.41032 0.11694,-0.5076 -0.38361,-0.62292 l -0.1974,-0.0455 z"
           id="path2502"
           style="fill:#4471b2;fill-opacity:1;stroke:#4471b2;stroke-width:0.065;stroke-dasharray:none;stroke-opacity:1" />
        <path
           d="m 173.5331,145.74978 0.88941,0.0636 0.61613,1.78117 0.87764,-1.6744 0.80281,0.0574 -0.0119,0.16597 -0.0344,-6.4e-4 q -0.18685,0.001 -0.22641,0.0473 -0.0378,0.0463 -0.055,0.28801 l -0.11618,1.62547 q -0.0173,0.24174 0.0152,0.29484 0.0326,0.0513 0.21391,0.0769 l 0.0342,0.004 -0.012,0.16778 -1.04637,-0.0748 0.012,-0.16778 0.0344,6.5e-4 q 0.15219,0.002 0.18466,-0.0466 0.0343,-0.0483 0.0517,-0.29188 l 0.11322,-1.58397 -0.96282,1.74991 -0.1786,-0.0128 -0.67631,-1.97949 -0.12121,1.69583 q -0.0171,0.23994 0.01,0.29445 0.0269,0.0545 0.17602,0.0742 l 0.0324,0.004 -0.012,0.16778 -0.80101,-0.0572 0.012,-0.16778 0.0344,6.4e-4 q 0.18312,4e-4 0.22268,-0.0457 0.0397,-0.0479 0.057,-0.28968 l 0.11618,-1.62548 q 0.0173,-0.24174 -0.0153,-0.29303 -0.0308,-0.0512 -0.21378,-0.0788 l -0.0342,-0.004 z"
           id="path2504"
           style="fill:#4471b2;fill-opacity:1;stroke:#4471b2;stroke-width:0.065;stroke-dasharray:none;stroke-opacity:1" />
        <path
           d="m 179.4335,148.56081 q -0.62875,0.0559 -1.02419,-0.28662 -0.39559,-0.34434 -0.45326,-0.9929 -0.0578,-0.65037 0.27097,-1.05729 0.3288,-0.40692 0.95755,-0.46283 0.62694,-0.0557 1.02238,0.28678 0.39543,0.34253 0.45326,0.9929 0.0577,0.64856 -0.27097,1.05729 -0.3288,0.40692 -0.95574,0.46267 z m -0.0159,-0.17836 q 0.38193,-0.034 0.54386,-0.35704 0.16358,-0.32505 0.10895,-0.93939 -0.0541,-0.60893 -0.27202,-0.89461 -0.21623,-0.28765 -0.59817,-0.25369 -0.38013,0.0338 -0.54402,0.35525 -0.16406,0.31964 -0.10991,0.92857 0.0546,0.61434 0.27298,0.90543 0.2182,0.28928 0.59833,0.25548 z"
           id="path2506"
           style="fill:#4471b2;fill-opacity:1;stroke:#4471b2;stroke-width:0.065;stroke-dasharray:none;stroke-opacity:1" />
        <path
           d="m 184.30193,147.64438 -2.00011,0.46231 -0.0379,-0.16388 0.0331,-0.01 q 0.17514,-0.0535 0.19938,-0.1092 0.0238,-0.0575 -0.0307,-0.29362 l -0.36699,-1.58776 q -0.0546,-0.23613 -0.10083,-0.27557 -0.0445,-0.0398 -0.22748,-0.0124 l -0.0339,0.006 -0.0375,-0.16213 1.10843,-0.2562 0.0375,0.16212 -0.0313,0.009 q -0.17825,0.056 -0.2025,0.11178 -0.0225,0.0553 0.0321,0.29145 l 0.367,1.58776 q 0.0676,0.29252 0.14082,0.29602 0.0544,0.002 0.28345,-0.0507 l 0.21851,-0.0505 q 0.13393,-0.031 0.24874,-0.0723 0.0583,-0.0209 0.0656,-0.0616 0.007,-0.0407 -0.0636,-0.3473 l -0.006,-0.0339 0.26081,-0.0603 z"
           id="path2508"
           style="fill:#4471b2;fill-opacity:1;stroke:#4471b2;stroke-width:0.065;stroke-dasharray:none;stroke-opacity:1" />
        <path
           d="m 187.59557,146.5294 -1.91678,0.70405 -0.058,-0.15789 0.0316,-0.0136 q 0.16711,-0.0749 0.18423,-0.13318 0.0165,-0.06 -0.0671,-0.28751 l -0.56188,-1.52969 q -0.0836,-0.2275 -0.13435,-0.26087 -0.0491,-0.034 -0.22726,0.016 l -0.0329,0.0101 -0.0574,-0.15619 1.84377,-0.67725 0.16526,0.44991 -0.25127,0.0923 -0.0152,-0.031 q -0.0369,-0.0847 -0.0425,-0.1 -0.0349,-0.0951 -0.0907,-0.1054 -0.0541,-0.011 -0.21201,0.047 l -0.53989,0.19831 0.35047,0.95415 0.34974,-0.12846 q 0.20203,-0.0742 0.22715,-0.095 0.0268,-0.0214 -0.024,-0.17037 l -0.008,-0.0335 0.17826,-0.0655 0.20018,0.54498 -0.17826,0.0655 -0.0146,-0.0293 q -0.0527,-0.13288 -0.10304,-0.13364 -0.0504,-7.7e-4 -0.22186,0.0622 l -0.36162,0.13283 0.27688,0.75381 q 0.10352,0.28183 0.1766,0.27618 0.0542,-0.005 0.27493,-0.0856 l 0.21052,-0.0773 q 0.25467,-0.0935 0.2765,-0.12853 0.0229,-0.0373 -0.0415,-0.25453 l -0.0102,-0.0329 0.25127,-0.0923 z"
           id="path2510"
           style="fill:#4471b2;fill-opacity:1;stroke:#4471b2;stroke-width:0.065;stroke-dasharray:none;stroke-opacity:1" />
        <path
           d="m 189.10097,146.38711 -0.21648,-0.42763 0.23883,-0.1209 0.0171,0.0298 q 0.0286,0.0484 0.0522,0.0871 0.10855,0.1944 0.27476,0.11026 0.1533,-0.0776 0.1526,-0.21915 1.1e-4,-0.13994 -0.15265,-0.4417 l -0.86836,-1.71535 q -0.10946,-0.21624 -0.16379,-0.24347 -0.0527,-0.0281 -0.22385,0.0424 l -0.0315,0.0139 -0.0752,-0.14846 1.01501,-0.51382 0.0752,0.14846 -0.0282,0.0163 q -0.15968,0.097 -0.1699,0.15695 -0.009,0.0591 0.10086,0.27533 l 0.78422,1.54914 q 0.232,0.45829 0.15011,0.74504 -0.0827,0.28918 -0.5087,0.50484 -0.17428,0.0882 -0.42229,0.15093 z"
           id="path2512"
           style="fill:#4471b2;fill-opacity:1;stroke:#4471b2;stroke-width:0.065;stroke-dasharray:none;stroke-opacity:1" />
        <path
           d="m 192.83659,143.76482 q -0.52107,0.35627 -1.03351,0.2509 -0.51346,-0.10686 -0.88096,-0.64436 -0.36852,-0.53899 -0.28075,-1.05473 0.0878,-0.51575 0.60885,-0.87202 0.51959,-0.35524 1.03202,-0.24988 0.51244,0.10537 0.88096,0.64437 0.3675,0.5375 0.28075,1.05473 -0.0878,0.51574 -0.60736,0.87099 z m -0.10106,-0.14781 q 0.31653,-0.21642 0.29976,-0.57742 -0.0163,-0.36352 -0.3644,-0.87265 -0.34504,-0.50466 -0.67481,-0.64728 -0.32929,-0.14514 -0.64582,0.0713 -0.31503,0.2154 -0.30077,0.57593 0.0132,0.35904 0.35827,0.8637 0.3481,0.50913 0.68093,0.65623 0.33181,0.14562 0.64684,-0.0698 z"
           id="path2514"
           style="fill:#4471b2;fill-opacity:1;stroke:#4471b2;stroke-width:0.065;stroke-dasharray:none;stroke-opacity:1" />
      </g>
      <path
         style="fill:#4471b2;fill-opacity:1;stroke:#ffffff;stroke-width:0.1;stroke-dasharray:none;stroke-opacity:1"
         d="m 45.097748,99.328924 c -0.641857,0.542865 -3.157814,2.068546 -4.396973,4.532016 -1.239159,2.46348 -1.201347,5.86418 -0.549209,8.38138 0.652139,2.51721 1.918284,4.15054 3.431377,5.12175 1.513093,0.97122 3.272852,1.2804 3.203707,1.37335 -0.06914,0.093 -1.967165,-0.0303 -3.268736,-0.25217 -1.301572,-0.22185 -2.006599,-0.54239 -3.131942,-1.45193 -1.125343,-0.90954 -2.67084,-2.4081 -3.190217,-4.85198 -0.519376,-2.44388 -0.01228,-5.83275 1.172033,-8.07631 1.184317,-2.24356 3.045583,-3.34123 4.592526,-4.110108 1.546942,-0.768881 2.779291,-1.208863 2.137434,-0.665998 z"
         id="path2518"
         inkscape:path-effect="#path-effect2566"
         inkscape:original-d="m 46.971839,98.346118 c -2.51576,1.52598 -5.03172,3.051652 -7.54804,4.577132 0.0381,3.40117 0.0759,6.80187 0.11344,10.20253 1.2665,1.63372 2.53265,3.26705 3.79863,4.90025 1.76013,0.30947 3.51989,0.61865 5.27946,0.92759 -1.89784,-0.123 -3.79586,-0.24627 -5.69424,-0.3698 -0.7048,-0.3203 -1.40983,-0.64084 -2.11516,-0.96167 -1.5453,-1.49837 -3.0908,-2.99693 -4.63664,-4.49583 0.50739,-3.38882 1.01448,-6.77769 1.52134,-10.16706 1.86166,-1.09748 3.72293,-2.19514 5.58407,-3.293162 1.23267,-0.43974 2.46502,-0.87972 3.69714,-1.31998 z"
         sodipodi:nodetypes="ccccccccccc" />
      <g
         aria-label="ATLETISMO- AVE FÉNIX"
         transform="matrix(0.94638885,0,0,1.0370022,9.0657994,-40.29747)"
         id="g2556"
         style="font-weight:bold;font-size:4.7625px;font-family:Cambria;-inkscape-font-specification:'Cambria, Bold';fill:#4471b2;fill-opacity:1;stroke:#4471b2;stroke-width:0.1;stroke-opacity:1"
         inkscape:transform-center-x="-19.90857"
         inkscape:transform-center-y="16.023226">
        <path
           d="m 24.943251,140.59824 -0.595336,0.7947 0.130797,0.19387 q 0.05493,0.0818 0.113101,0.15155 0.05631,0.0683 0.134481,0.1269 0.18239,0.13663 0.340418,-0.0472 l 0.122834,0.092 -0.595336,0.79471 -0.122834,-0.092 q 0.04414,-0.0744 0.04224,-0.15723 -0.0019,-0.0828 -0.04056,-0.17857 -0.03866,-0.0958 -0.134546,-0.24316 l -1.486317,-2.32508 0.372259,-0.49692 2.544558,0.94736 q 0.170257,0.0636 0.250727,0.0803 0.07861,0.0153 0.149292,-0.001 0.06882,-0.0182 0.145525,-0.0857 l 0.122834,0.092 -0.769615,1.02734 -0.122834,-0.092 q 0.06133,-0.10515 0.05338,-0.18374 -0.008,-0.0786 -0.08612,-0.13715 -0.05769,-0.0432 -0.138178,-0.0832 -0.08048,-0.0399 -0.210735,-0.091 z m -0.760107,0.56085 0.501923,-0.67 -1.270891,-0.48718 z"
           id="path2520"
           style="fill:#4471b2;fill-opacity:1;stroke:#4471b2;stroke-opacity:1" />
        <path
           d="m 26.831414,139.85865 -0.112439,-0.10447 q 0.05455,-0.0826 0.0738,-0.14093 0.01913,-0.0616 0.0023,-0.11527 -0.01678,-0.0537 -0.06655,-0.10944 -0.05147,-0.0574 -0.133245,-0.13332 l -1.698512,-1.57808 -0.128209,0.13799 q -0.09497,0.10222 -0.121769,0.1789 -0.0268,0.0767 -0.01368,0.16504 0.0147,0.0867 0.07468,0.19636 0.05827,0.1081 0.117525,0.19807 l -0.216847,0.23339 -0.597971,-0.55557 1.862985,-2.00516 0.597972,0.55557 -0.216847,0.2334 q -0.14592,-0.0753 -0.217847,-0.10718 -0.07193,-0.0319 -0.131566,-0.0429 -0.05976,-0.0143 -0.109057,-0.0125 -0.0493,0.002 -0.09154,0.0165 -0.04224,0.0147 -0.09021,0.0527 -0.04809,0.0347 -0.112985,0.10453 l -0.113963,0.12266 1.698512,1.57807 q 0.09029,0.0839 0.142742,0.1231 0.05075,0.0376 0.09237,0.0509 0.04162,0.0133 0.07778,0.0119 0.03603,-0.005 0.08302,-0.0245 0.04687,-0.0231 0.110785,-0.0748 l 0.112439,0.10447 z"
           id="path2522"
           style="fill:#4471b2;fill-opacity:1;stroke:#4471b2;stroke-opacity:1" />
        <path
           d="m 27.315181,134.93862 0.100868,0.11568 q -0.04781,0.0725 -0.06628,0.12567 -0.02,0.0514 -0.01046,0.10477 0.01129,0.0519 0.05318,0.11407 0.04212,0.0589 0.115477,0.14305 l 1.522189,1.74569 0.340024,-0.29649 q 0.101657,-0.0887 0.135492,-0.17369 0.03383,-0.085 0.0211,-0.18809 -0.01251,-0.10634 -0.07265,-0.23901 -0.05992,-0.13595 -0.121646,-0.24566 l 0.24012,-0.20938 0.578875,0.74172 -1.670324,1.45647 -0.100868,-0.11568 q 0.04957,-0.0741 0.06803,-0.1272 0.02022,-0.0547 0.0072,-0.10499 -0.01281,-0.0536 -0.05493,-0.11254 -0.04365,-0.0607 -0.117006,-0.1448 l -1.315868,-1.50908 q -0.07183,-0.0824 -0.125994,-0.13387 -0.05241,-0.053 -0.102257,-0.0713 -0.04809,-0.0198 -0.104992,-0.007 -0.05667,0.009 -0.138561,0.0499 l -0.100867,-0.11568 z"
           id="path2524"
           style="fill:#4471b2;fill-opacity:1;stroke:#4471b2;stroke-opacity:1" />
        <path
           d="m 30.516391,132.49941 0.427904,0.60311 -0.259831,0.18435 q -0.19042,-0.13577 -0.278447,-0.16741 -0.08937,-0.0335 -0.175629,-0.0265 -0.0876,0.005 -0.233639,0.10874 l -0.413454,0.29335 0.645893,0.91035 0.250348,-0.17762 q 0.08345,-0.0592 0.114716,-0.1156 0.02992,-0.0583 0.02124,-0.13483 -0.0068,-0.0779 -0.06041,-0.21375 l 0.214313,-0.15205 0.546317,0.77001 -0.214313,0.15205 q -0.104597,-0.0912 -0.177207,-0.12519 -0.07396,-0.0359 -0.136967,-0.0283 -0.06111,0.006 -0.150253,0.0695 l -0.250348,0.17762 0.718555,1.01277 0.411557,-0.29199 q 0.06638,-0.0471 0.106516,-0.087 0.03879,-0.0418 0.06002,-0.0882 0.02123,-0.0464 0.02791,-0.10534 0.0086,-0.0602 0.0036,-0.11947 -0.0031,-0.0606 -0.02304,-0.14902 -0.01999,-0.0885 -0.07063,-0.23217 l 0.259831,-0.18435 0.455112,0.71782 -1.864336,1.32273 -0.08881,-0.12517 q 0.05672,-0.0687 0.08174,-0.11787 0.02558,-0.0524 0.01763,-0.10375 -0.0074,-0.0546 -0.04342,-0.11747 -0.03737,-0.0647 -0.101959,-0.15576 l -1.159914,-1.63485 q -0.06324,-0.0891 -0.111993,-0.14579 -0.04685,-0.058 -0.09463,-0.0811 -0.04588,-0.0245 -0.10375,-0.0176 -0.05732,0.004 -0.142847,0.0358 l -0.08881,-0.12518 z"
           id="path2526"
           style="fill:#4471b2;fill-opacity:1;stroke:#4471b2;stroke-opacity:1" />
        <path
           d="m 33.300943,134.52273 -0.07481,-0.13402 q 0.07735,-0.0618 0.113611,-0.11135 0.03716,-0.0527 0.03772,-0.10895 5.64e-4,-0.0562 -0.02961,-0.12462 -0.03131,-0.0704 -0.08572,-0.16787 l -1.130045,-2.02442 -0.164471,0.0918 q -0.121831,0.068 -0.170939,0.13271 -0.04911,0.0647 -0.06384,0.15281 -0.0127,0.087 0.01059,0.20981 0.02215,0.12079 0.05082,0.22463 l -0.27818,0.15529 -0.397839,-0.71271 2.38991,-1.33407 0.397839,0.71271 -0.27818,0.15528 q -0.115653,-0.11654 -0.174259,-0.16904 -0.05861,-0.0525 -0.111969,-0.0813 -0.05247,-0.032 -0.09993,-0.0454 -0.04746,-0.0134 -0.09218,-0.0125 -0.04472,9.9e-4 -0.102047,0.0223 -0.05643,0.0182 -0.139681,0.0647 l -0.146197,0.0816 1.130045,2.02442 q 0.06007,0.10762 0.0979,0.16107 0.03669,0.0514 0.07221,0.0769 0.03551,0.0255 0.07032,0.0353 0.0357,0.007 0.08651,0.002 0.05171,-0.008 0.128443,-0.0371 l 0.07481,0.13401 z"
           id="path2528"
           style="fill:#4471b2;fill-opacity:1;stroke:#4471b2;stroke-opacity:1" />
        <path
           d="m 36.054128,132.47424 q 0.0333,0.0743 0.06608,0.13603 0.03278,0.0617 0.06359,0.0964 0.03081,0.0346 0.06652,0.0517 0.03783,0.0162 0.08978,0.0184 0.051,7e-5 0.119197,-0.0127 l 0.06279,0.14005 -1.114017,0.49945 -0.06279,-0.14005 q 0.069,-0.0564 0.103095,-0.0997 0.03527,-0.0464 0.03746,-0.0983 0.0034,-0.055 -0.01976,-0.12366 -0.02408,-0.0708 -0.06974,-0.17261 l -0.821007,-1.83123 q -0.04566,-0.10186 -0.08152,-0.16478 -0.03374,-0.0639 -0.0761,-0.0958 -0.0412,-0.0351 -0.0993,-0.0396 -0.05598,-0.005 -0.146123,0.009 l -0.06279,-0.14005 1.114017,-0.49945 0.06279,0.14005 q -0.07653,0.0624 -0.106606,0.10896 -0.0289,0.0435 -0.033,0.0912 -0.0041,0.0477 0.01501,0.11305 0.0191,0.0653 0.07238,0.18417 z"
           id="path2530"
           style="fill:#4471b2;fill-opacity:1;stroke:#4471b2;stroke-opacity:1" />
        <path
           d="m 36.937606,131.88825 q 0.148303,0.24076 0.321634,0.32426 0.174733,0.0805 0.422021,-0.008 0.129116,-0.0464 0.216241,-0.12714 0.08712,-0.0807 0.113793,-0.19904 0.02807,-0.12129 -0.02462,-0.26791 -0.04876,-0.13568 -0.134489,-0.21607 -0.08651,-0.0826 -0.230367,-0.13219 -0.143855,-0.0496 -0.379178,-0.0787 -0.201369,-0.024 -0.372271,-0.0664 -0.170902,-0.0424 -0.308705,-0.11639 -0.136401,-0.077 -0.238301,-0.18865 -0.09971,-0.11242 -0.158699,-0.27655 -0.09674,-0.26918 -0.03089,-0.50536 0.06585,-0.23617 0.282913,-0.42291 0.218462,-0.18971 0.551098,-0.30926 0.194767,-0.07 0.379893,-0.11182 0.184338,-0.044 0.430808,-0.0733 l 0.228085,0.63464 -0.29981,0.10775 q -0.103714,-0.15794 -0.205545,-0.23501 -0.100429,-0.08 -0.214021,-0.0936 -0.113593,-0.0135 -0.260215,0.0392 -0.124739,0.0448 -0.207487,0.12399 -0.08275,0.0792 -0.108186,0.18714 -0.02622,0.1058 0.01782,0.22835 0.04562,0.12693 0.127582,0.20373 0.08337,0.0738 0.231598,0.12186 0.147445,0.0459 0.409371,0.0802 0.319509,0.0433 0.52146,0.12394 0.203353,0.0777 0.332984,0.21145 0.131034,0.13083 0.206538,0.34091 0.09674,0.26918 0.04357,0.51315 -0.05395,0.24179 -0.253951,0.43475 -0.200783,0.19077 -0.513724,0.30324 -0.223216,0.0802 -0.475566,0.14126 -0.249376,0.0624 -0.478953,0.0906 L 36.637795,131.996 Z"
           id="path2532"
           style="fill:#4471b2;fill-opacity:1;stroke:#4471b2;stroke-opacity:1" />
        <path
           d="m 42.046114,128.13418 q -0.112394,0.0614 -0.146154,0.11207 -0.03428,0.0484 -0.03689,0.12053 -8.62e-4,0.0694 0.03795,0.2394 l 0.447662,1.96106 q 0.03157,0.1383 0.0638,0.21681 0.03172,0.0762 0.08236,0.11 0.05239,0.031 0.18938,0.0355 l 0.03416,0.14963 -1.163032,0.2655 -0.03416,-0.14963 q 0.09354,-0.05 0.127426,-0.0792 0.03388,-0.0292 0.04704,-0.0656 0.01491,-0.0392 0.009,-0.107 -0.0042,-0.0706 -0.03938,-0.22477 L 41.41166,129.6076 q -0.04192,-0.18364 -0.09205,-0.43458 -0.05013,-0.25093 -0.06713,-0.35677 l -0.04761,0.0109 q -0.0065,0.0969 -0.01806,0.19255 -0.0098,0.0929 -0.04246,0.33648 l -0.233932,1.77555 -0.399013,0.0911 -1.059044,-1.69269 q -0.09239,-0.14349 -0.170654,-0.28783 l -0.04081,0.009 q 0.108064,0.3689 0.224508,0.879 l 0.238063,1.04288 q 0.0383,0.16776 0.06918,0.22989 0.03088,0.0621 0.08832,0.0943 0.05744,0.0322 0.182061,0.0348 l 0.03416,0.14963 -0.856971,0.19562 -0.03416,-0.14963 q 0.07871,-0.0418 0.120107,-0.0799 0.04367,-0.0386 0.05825,-0.0896 0.01459,-0.051 0.0031,-0.12235 -0.0092,-0.0718 -0.03408,-0.18065 l -0.447662,-1.96106 q -0.03933,-0.1723 -0.06969,-0.23216 -0.02809,-0.0604 -0.08049,-0.0914 -0.05239,-0.031 -0.18763,-0.0383 l -0.03416,-0.14963 1.126758,-0.25721 1.052884,1.71795 0.255244,-2.01656 1.063279,-0.24272 z"
           id="path2534"
           style="fill:#4471b2;fill-opacity:1;stroke:#4471b2;stroke-opacity:1" />
        <path
           d="m 44.561109,130.94851 q -0.68109,0.0594 -1.058732,-0.30908 -0.375326,-0.36873 -0.444686,-1.16334 -0.0455,-0.52124 0.08683,-0.90394 0.134442,-0.38522 0.43967,-0.60561 0.305228,-0.22039 0.750021,-0.25921 0.692672,-0.0605 1.074948,0.30766 0.382074,0.36581 0.450423,1.14883 0.03822,0.43785 -0.03853,0.76201 -0.07463,0.32164 -0.247004,0.53977 -0.172371,0.21813 -0.430492,0.33637 -0.255806,0.11803 -0.58245,0.14654 z m -0.77219,-1.59927 q 0.06107,0.69962 0.257795,1.02792 0.19884,0.32579 0.544018,0.29566 0.17838,-0.0156 0.295188,-0.12148 0.116605,-0.10821 0.178089,-0.28632 0.0636,-0.18062 0.07541,-0.41975 0.01412,-0.23933 -0.01055,-0.52196 -0.04024,-0.46101 -0.14147,-0.76496 -0.09911,-0.30648 -0.261129,-0.45107 -0.159901,-0.14711 -0.389247,-0.12709 -0.335912,0.0293 -0.472285,0.36569 -0.134258,0.33385 -0.07582,1.00336 z"
           id="path2536"
           style="fill:#4471b2;fill-opacity:1;stroke:#4471b2;stroke-opacity:1" />
        <path
           d="m 47.609147,129.78523 -1.102241,-0.006 0.0027,-0.48833 1.102241,0.006 z"
           id="path2538"
           style="fill:#4471b2;fill-opacity:1;stroke:#4471b2;stroke-opacity:1" />
        <path
           d="m 50.892946,130.11159 -0.984749,-0.12745 -0.10446,0.20924 q -0.04423,0.0881 -0.07632,0.17301 -0.0318,0.0827 -0.04434,0.17951 -0.02925,0.22601 0.208505,0.27319 l -0.0197,0.15221 -0.984749,-0.12745 0.0197,-0.15221 q 0.08652,0.002 0.157663,-0.0406 0.07114,-0.0424 0.135526,-0.12315 0.06438,-0.0808 0.145538,-0.23675 l 1.293299,-2.43773 0.615757,0.0797 0.426749,2.68144 q 0.02835,0.17954 0.05339,0.25781 0.02534,0.076 0.07472,0.12926 0.04968,0.051 0.146158,0.0846 l -0.0197,0.15221 -1.273025,-0.16476 0.0197,-0.15221 q 0.121713,0.002 0.186233,-0.0439 0.06452,-0.0456 0.07706,-0.14244 0.0093,-0.0715 0.0045,-0.16122 -0.0048,-0.0897 -0.02439,-0.22826 z m -0.862191,-0.38594 0.830234,0.10745 -0.200948,-1.34614 z"
           id="path2540"
           style="fill:#4471b2;fill-opacity:1;stroke:#4471b2;stroke-opacity:1" />
        <path
           d="m 54.3778,129.37748 q 0.05708,-0.0866 0.09559,-0.16575 0.04077,-0.0786 0.06342,-0.17122 0.02707,-0.11068 -0.0173,-0.18378 -0.04211,-0.0725 -0.159621,-0.11085 l 0.03646,-0.14909 0.973575,0.23809 -0.03646,0.14908 q -0.08915,-0.007 -0.160637,0.0206 -0.06867,0.0263 -0.137703,0.0932 -0.06622,0.0652 -0.174813,0.22538 l -1.562946,2.28945 -0.5218,-0.1276 -0.126743,-2.71224 q -0.0083,-0.18157 -0.02502,-0.25988 -0.01621,-0.0806 -0.05992,-0.13674 -0.04317,-0.0584 -0.135325,-0.10252 l 0.03646,-0.14909 1.249159,0.30548 -0.03646,0.14908 q -0.120776,-0.0152 -0.189953,0.023 -0.06918,0.0381 -0.09238,0.13301 -0.01823,0.0745 -0.02235,0.15015 -0.0036,0.0733 0.0012,0.23969 l 0.05063,1.73125 z"
           id="path2542"
           style="fill:#4471b2;fill-opacity:1;stroke:#4471b2;stroke-opacity:1" />
        <path
           d="m 58.065573,129.81092 -0.254252,0.69441 -0.299162,-0.10954 q 0.0039,-0.23383 -0.01995,-0.32428 -0.02304,-0.0926 -0.07773,-0.15971 -0.05389,-0.0693 -0.22203,-0.13082 l -0.47604,-0.1743 -0.383776,1.04816 0.288245,0.10554 q 0.09608,0.0352 0.160267,0.029 0.06499,-0.008 0.123111,-0.0589 0.06031,-0.0497 0.141836,-0.17095 l 0.246754,0.0904 -0.32461,0.88657 -0.246755,-0.0904 q 0.0158,-0.13784 0.0027,-0.21695 -0.01234,-0.0813 -0.05435,-0.12886 -0.03983,-0.0468 -0.142463,-0.0844 l -0.288244,-0.10554 -0.426951,1.16608 0.473857,0.1735 q 0.07643,0.028 0.132034,0.0384 0.05641,0.008 0.106691,-5.6e-4 0.05028,-0.009 0.102598,-0.0367 0.0545,-0.0271 0.100475,-0.0648 0.04816,-0.0368 0.109699,-0.10346 0.06154,-0.0666 0.151215,-0.1898 l 0.299163,0.10954 -0.33332,0.78184 -2.146547,-0.78594 0.05277,-0.14412 q 0.08879,0.008 0.143443,5.2e-4 0.05764,-0.009 0.09546,-0.0443 0.04081,-0.0371 0.07215,-0.10235 0.03214,-0.0675 0.07051,-0.1723 l 0.689198,-1.88232 q 0.03758,-0.10263 0.05661,-0.17491 0.02122,-0.0715 0.01319,-0.12395 -0.0058,-0.0517 -0.04429,-0.0955 -0.03546,-0.0452 -0.110447,-0.0974 l 0.05277,-0.14413 z"
           id="path2544"
           style="fill:#4471b2;fill-opacity:1;stroke:#4471b2;stroke-opacity:1" />
        <path
           d="m 59.466637,133.35644 q -0.05849,0.10849 -0.08326,0.16911 -0.02366,0.0586 -0.02604,0.1022 -0.0024,0.0436 0.008,0.0783 0.01353,0.0337 0.04453,0.0742 0.03415,0.0396 0.100277,0.0884 l -0.07284,0.1351 -1.101209,-0.59377 0.07284,-0.13509 q 0.08567,0.0224 0.141894,0.021 0.05827,-2.8e-4 0.100816,-0.0302 0.04569,-0.0308 0.08715,-0.093 0.04146,-0.0622 0.09443,-0.16044 l 0.950244,-1.76234 q 0.05187,-0.0962 0.08105,-0.16501 0.03122,-0.0677 0.03078,-0.12079 0.0016,-0.052 -0.03018,-0.10081 -0.02864,-0.0498 -0.09538,-0.11219 l 0.07284,-0.1351 1.97931,1.06723 -0.350962,0.6509 -0.280419,-0.1512 q 0.0373,-0.23087 0.02664,-0.3238 -0.0096,-0.095 -0.05408,-0.16918 -0.04343,-0.0763 -0.201034,-0.16124 l -0.395044,-0.213 -0.561758,1.04185 0.261997,0.14127 q 0.0962,0.0519 0.162825,0.0508 0.06977,-0.002 0.140047,-0.0539 0.07232,-0.0508 0.163262,-0.1656 l 0.231295,0.12472 -0.481192,0.89243 -0.231295,-0.12472 q 0.04497,-0.14219 0.0477,-0.23055 0.0038,-0.0904 -0.03189,-0.14665 -0.03572,-0.0562 -0.129876,-0.10701 l -0.261998,-0.14127 z"
           id="path2546"
           style="fill:#4471b2;fill-opacity:1;stroke:#4471b2;stroke-opacity:1" />
        <path
           d="m 64.330476,133.34411 -0.415365,0.61181 -0.263581,-0.17895 q 0.0606,-0.22588 0.05945,-0.31941 1.59e-4,-0.0954 -0.03659,-0.17381 -0.03544,-0.0803 -0.183586,-0.18085 l -0.419419,-0.28475 -0.626967,0.9235 0.25396,0.17241 q 0.08465,0.0575 0.148426,0.067 0.06508,0.008 0.133742,-0.0273 0.07059,-0.0336 0.179122,-0.13136 l 0.217406,0.1476 -0.53031,0.78112 -0.217405,-0.1476 q 0.04882,-0.12987 0.0553,-0.2098 0.0078,-0.0818 -0.02141,-0.1382 -0.02727,-0.0551 -0.117696,-0.11645 l -0.253961,-0.17241 -0.6975,1.02738 0.417496,0.28344 q 0.06734,0.0457 0.118737,0.0694 0.05271,0.0217 0.103628,0.0254 0.05092,0.004 0.108448,-0.0107 0.05945,-0.013 0.113196,-0.0384 0.05567,-0.024 0.131552,-0.0737 0.07588,-0.0497 0.192802,-0.14737 l 0.263581,0.17895 -0.513311,0.67742 -1.891237,-1.28397 0.08621,-0.12698 q 0.08425,0.0291 0.139019,0.0353 0.058,0.006 0.103364,-0.0198 0.04859,-0.026 0.09486,-0.0817 0.04757,-0.0577 0.110266,-0.15 l 1.125929,-1.65844 q 0.06139,-0.0904 0.09742,-0.15591 0.03795,-0.0642 0.04291,-0.11703 0.0069,-0.0515 -0.01977,-0.10336 -0.02342,-0.0524 -0.08347,-0.12132 l 0.08621,-0.12698 z m 0.19618,-1.08386 -0.08621,0.12698 -1.125953,-0.0224 -0.03362,-0.21957 0.809049,-0.18152 z"
           id="path2548"
           style="fill:#4471b2;fill-opacity:1;stroke:#4471b2;stroke-opacity:1" />
        <path
           d="m 67.117598,135.6609 -0.100053,0.11638 q -0.09024,-0.0377 -0.133864,-0.0476 -0.04186,-0.008 -0.08576,-1.3e-4 -0.04214,0.01 -0.09971,0.0554 -0.05606,0.0438 -0.151563,0.1549 l -1.688763,1.96443 -0.447903,-0.38505 0.385874,-2.0541 q 0.07905,-0.41657 0.139659,-0.64046 l -0.01587,-0.0137 q -0.308294,0.39429 -0.670604,0.81575 l -0.488135,0.56781 q -0.113695,0.13226 -0.14683,0.19577 -0.03137,0.065 -0.02515,0.12557 0.0095,0.0603 0.0835,0.16685 l -0.100052,0.11638 -0.666566,-0.57302 0.100053,-0.11639 q 0.08041,0.0385 0.135628,0.0491 0.05699,0.0122 0.104939,-0.008 0.05123,-0.0204 0.103516,-0.0705 0.05228,-0.0501 0.123534,-0.133 l 1.311292,-1.52534 q 0.113696,-0.13225 0.143799,-0.19224 0.03338,-0.0602 0.02515,-0.12558 -0.0065,-0.0638 -0.0787,-0.16885 l 0.100052,-0.11639 0.714178,0.61396 -0.308063,1.62114 q -0.02973,0.1523 -0.08635,0.40722 -0.05662,0.25492 -0.117722,0.47226 l 0.02821,0.0242 q 0.342913,-0.43813 0.771926,-0.93717 l 0.281965,-0.32799 q 0.09854,-0.11462 0.133682,-0.17334 0.03514,-0.0587 0.03849,-0.10184 0.0051,-0.0416 -0.01148,-0.0865 -0.01482,-0.0434 -0.06893,-0.12672 l 0.100052,-0.11638 z"
           id="path2550"
           style="fill:#4471b2;fill-opacity:1;stroke:#4471b2;stroke-opacity:1" />
        <path
           d="m 66.418712,138.67587 q -0.05862,0.0565 -0.105639,0.10821 -0.04702,0.0517 -0.06916,0.0925 -0.02214,0.0407 -0.02617,0.0801 -0.0024,0.0411 0.0131,0.0907 0.01719,0.048 0.05225,0.10788 l -0.11054,0.10647 -0.846954,-0.87929 0.11054,-0.10648 q 0.07644,0.0458 0.12874,0.0633 0.05559,0.0175 0.105219,0.002 0.05292,-0.0155 0.109677,-0.0604 0.05844,-0.0466 0.138828,-0.12404 l 1.445391,-1.39223 q 0.08039,-0.0774 0.127473,-0.13247 0.04869,-0.0534 0.06444,-0.10405 0.01904,-0.0506 0.0036,-0.10683 -0.01378,-0.0545 -0.05833,-0.13431 l 0.110539,-0.10647 0.846955,0.87929 -0.11054,0.10648 q -0.08457,-0.0509 -0.138604,-0.0634 -0.05075,-0.0125 -0.09703,-1.8e-4 -0.04628,0.0123 -0.101303,0.0524 -0.05502,0.0401 -0.148815,0.13043 z"
           id="path2552"
           style="fill:#4471b2;fill-opacity:1;stroke:#4471b2;stroke-opacity:1" />
        <path
           d="m 69.701508,138.50666 -0.119551,0.0962 q -0.0776,-0.0778 -0.137555,-0.0893 -0.05669,-0.0111 -0.118276,0.0385 -0.03079,0.0248 -0.06044,0.0695 -0.02783,0.0433 -0.05884,0.11603 -0.03101,0.0727 -0.09152,0.2349 l -0.145144,0.39449 0.498877,-0.0404 q 0.165202,-0.0136 0.240313,-0.0352 0.07838,-0.0213 0.14359,-0.0738 0.05796,-0.0467 0.0603,-0.11423 0.0041,-0.069 -0.04548,-0.14549 l 0.119551,-0.0962 0.602268,0.7481 -0.121362,0.0977 q -0.05678,-0.0409 -0.127301,-0.0617 -0.06871,-0.0223 -0.192557,-0.0241 -0.122037,-0.003 -0.425225,0.0169 l -0.872893,0.0579 -0.499125,1.37507 q -0.02412,0.0702 -0.04823,0.14033 -0.02085,0.0705 -0.03555,0.13013 -0.01144,0.06 -0.01205,0.0963 8.44e-4,0.0381 0.0075,0.0686 0.0084,0.029 0.02197,0.057 l -0.119551,0.0962 -0.810802,-1.00713 0.119551,-0.0962 q 0.07322,0.0724 0.132827,0.0871 0.05961,0.0147 0.123004,-0.0363 0.02174,-0.0175 0.04126,-0.0452 0.02099,-0.0258 0.04409,-0.0713 0.02456,-0.0437 0.03861,-0.0818 0.01732,-0.0378 0.0591,-0.14908 l 0.212106,-0.58573 -0.674242,0.0562 q -0.08024,0.008 -0.142668,0.0193 -0.06243,0.0114 -0.105949,0.0316 -0.04352,0.0201 -0.09243,0.0595 -0.04891,0.0394 -0.05451,0.10658 -0.0041,0.069 0.04694,0.1473 l -0.119551,0.0962 -0.603726,-0.74991 0.119551,-0.0962 q 0.06624,0.0452 0.141838,0.0649 0.07887,0.0201 0.196179,0.0212 0.118767,0.003 0.350422,-0.0134 l 1.058067,-0.0726 0.391483,-1.06749 q 0.06338,-0.17343 0.101148,-0.29339 0.03922,-0.11815 0.05172,-0.18792 0.01431,-0.0712 0.0091,-0.11479 -0.0038,-0.0418 -0.02714,-0.0856 l 0.119551,-0.0962 z"
           id="path2554"
           style="fill:#4471b2;fill-opacity:1;stroke:#4471b2;stroke-opacity:1" />
      </g>
    </g>
  </g>
</svg>
