<?xml version="1.0" encoding="UTF-8" standalone="no"?>
<!-- Created with Inkscape (http://www.inkscape.org/) -->

<svg
   version="1.1"
   id="svg1"
   width="184.12801"
   height="192.96001"
   viewBox="0 0 184.12801 192.96001"
   sodipodi:docname="logoCaladoCPSM2026Vector.svg"
   inkscape:version="1.3 (0e150ed6c4, 2023-07-21)"
   xmlns:inkscape="http://www.inkscape.org/namespaces/inkscape"
   xmlns:sodipodi="http://sodipodi.sourceforge.net/DTD/sodipodi-0.dtd"
   xmlns="http://www.w3.org/2000/svg"
   xmlns:svg="http://www.w3.org/2000/svg">
  <defs
     id="defs1" />
  <sodipodi:namedview
     id="namedview1"
     pagecolor="#ffffff"
     bordercolor="#000000"
     borderopacity="0.25"
     inkscape:showpageshadow="2"
     inkscape:pageopacity="0.0"
     inkscape:pagecheckerboard="0"
     inkscape:deskcolor="#d1d1d1"
     inkscape:zoom="4.0267412"
     inkscape:cx="92.009886"
     inkscape:cy="96.480002"
     inkscape:window-width="1920"
     inkscape:window-height="991"
     inkscape:window-x="-9"
     inkscape:window-y="-9"
     inkscape:window-maximized="1"
     inkscape:current-layer="g1"
     showgrid="false" />
  <g
     inkscape:groupmode="layer"
     inkscape:label="Image"
     id="g1">
    <path
       style="fill:#000080"
       d="m 89.43899,187.60161 c -2.74645,-0.74114 -5.03744,-1.86668 -16.217898,-7.9677 -23.207713,-12.66412 -52.695253,-29.18723 -55.02949,-30.83534 -3.529936,-2.49234 -6.08036,-6.74666 -6.427888,-10.72226 -0.253897,-2.90447 -0.55532,-34.99365 -0.560167,-59.634614 -0.0042,-21.142744 0.0072,-21.842802 0.377913,-23.29228 0.210211,-0.821916 0.66407,-2.023233 1.008576,-2.669593 0.754583,-1.415742 3.152338,-3.997914 4.91545,-5.293509 C 20.28004,45.147478 80.35488,9.7027635 84.92379,7.408885 c 1.86045,-0.93406 4.721,-1.917963 5.94951,-2.046368 1.39766,-0.146084 3.52769,0.212333 5.51254,0.927582 2.07555,0.747934 16.79731,9.024895 50.65925,28.481973 18.35388,10.546137 18.70996,10.758166 20.29688,12.085608 2.56253,2.143537 4.98771,5.633766 5.80745,8.357901 0.20103,0.668017 0.38185,2.325762 0.49216,4.512 0.21813,4.323234 0.22749,67.447659 0.0108,73.055999 -0.15126,3.91536 -0.19101,4.22196 -0.77168,5.952 -1.67278,4.98387 -3.89492,7.55111 -9.74225,11.25521 -5.07675,3.21597 -24.69277,14.42328 -49.59738,28.33669 -13.86416,7.74547 -15.82301,8.77892 -17.40856,9.18444 -1.7492,0.44737 -5.1969,0.49356 -6.69354,0.0897 z m -19.769776,-37.34602 0.226264,-0.672 h 6.318807 c 3.475345,0 18.004405,0.0704 32.286805,0.15641 l 25.968,0.15641 V 142.3 134.70358 l -9.456,-10e-5 c -5.2008,-5e-5 -18.4416,-0.0574 -29.424,-0.12734 l -19.967998,-0.12725 -0.288,0.65535 -0.288,0.65534 -12.24,0.0494 -12.24,0.0494 v 7.48182 7.48182 l 3.12,0.0591 c 1.716,0.0325 5.963518,0.0563 9.438929,0.0528 l 6.318929,-0.006 z m -15.072122,-7.96287 v -3.94114 h 0.864 0.864 v 3.072 3.07201 h 2.027039 2.02704 l -0.05904,0.816 -0.05904,0.816 -2.832,0.0531 -2.832,0.0531 z m 12.48,3.16287 -0.391804,-0.768 h -1.823204 -1.823205 l -0.320454,0.672 c -0.300704,0.63058 -0.377431,0.672 -1.244894,0.672 -0.508441,0 -0.924439,-0.0543 -0.924439,-0.12074 0,-0.0664 0.749258,-1.79441 1.665019,-3.84 l 1.665018,-3.71927 h 0.999929 0.999929 l 1.674828,3.696 c 0.921155,2.03281 1.718373,3.80401 1.771594,3.93601 0.06985,0.17322 -0.174952,0.24 -0.879873,0.24 -0.946112,0 -0.988886,-0.024 -1.368444,-0.768 z m -1.152,-2.58653 c 0,-0.53931 -0.964875,-2.4775 -1.142718,-2.29543 -0.0956,0.0979 -0.357014,0.64545 -0.58092,1.21683 -0.47346,1.20822 -0.376337,1.35356 0.907638,1.35818 0.591638,0.002 0.816,-0.0747 0.816,-0.27958 z m 40.223998,3.04692 c -0.2112,-0.0514 -0.7512,-0.22641 -1.2,-0.38883 -0.90024,-0.32581 -1.01588,-0.66472 -0.46922,-1.3751 0.32564,-0.42316 0.36461,-0.42853 1.04557,-0.144 1.34089,0.56026 3.21565,0.27939 3.21565,-0.48175 0,-0.30268 -0.83295,-0.71687 -1.728,-0.85926 -1.33816,-0.21289 -2.19722,-0.62685 -2.55391,-1.23069 -0.8074,-1.36682 0.047,-2.88291 1.85235,-3.28693 1.09653,-0.24539 2.83077,-0.0124 3.48876,0.46876 0.32687,0.23901 0.32607,0.2763 -0.0184,0.85942 -0.23806,0.40301 -0.45916,0.57135 -0.65245,0.49678 -1.70431,-0.65757 -2.98036,-0.52347 -2.98036,0.3132 0,0.48496 0.002,0.48581 2.38409,1.13245 1.17001,0.31758 1.93591,1.118 1.93591,2.02316 0,0.87098 -0.44929,1.66275 -1.19272,2.10191 -0.5618,0.33186 -2.39479,0.54924 -3.12728,0.37088 z m -32.351998,-3.9164 v -3.84 l 2.064,0.001 c 3.436502,0.002 4.280528,0.47231 4.424788,2.46677 0.14957,2.06781 -0.67007,2.86072 -3.151156,3.04837 l -1.417632,0.10721 v 1.02829 1.02829 h -0.96 -0.96 z m 3.490286,0.003 c 0.804715,-0.003 1.309715,-0.40499 1.309715,-1.04258 0,-0.68981 -0.652184,-1.12685 -1.826976,-1.22427 l -1.053025,-0.0873 v 1.29417 c 0,1.24841 0.01528,1.29008 0.432,1.1784 0.2376,-0.0637 0.749829,-0.11695 1.138286,-0.11839 z m 4.189712,-0.003 v -3.84 h 2.976 2.976 v 0.768 0.768 h -2.016 -2.016 v 0.768 0.768 h 1.824 1.824 v 0.768 0.76801 h -1.824 -1.824 v 0.768 0.768 h 2.016 2.016 v 0.768 0.768 h -2.976 -2.976 z m 7.296,0 v -3.84 l 1.872,0.001 c 2.19081,10e-4 3.07312,0.20671 3.90936,0.91036 1.6129,1.35717 1.77217,4.15851 0.31652,5.56735 -0.9979,0.96581 -1.79662,1.20122 -4.07571,1.20122 h -2.02217 z m 4.656,1.53162 c 0.70266,-0.76877 0.74935,-2.21362 0.096,-2.97096 -0.42621,-0.49406 -1.46241,-0.85111 -2.496,-0.86007 l -0.528,-0.005 v 1.704 c 0,0.93721 0.0561,1.98439 0.12462,2.32708 l 0.12461,0.62307 1.07539,-0.12043 c 0.86574,-0.0969 1.17831,-0.23303 1.60338,-0.6981 z m 3.6,-1.53162 v -3.84 h 2.976 2.976 v 0.768 0.768 h -2.016 -2.016 v 0.768 0.768 h 1.92 1.92 v 0.768 0.76801 h -1.92 -1.92 v 0.768 0.768 h 2.112 2.112 v 0.768 0.768 h -3.072 -3.072 z m 16.128,0.76801 v -3.07201 h -1.152 -1.152 v -0.768 -0.768 h 3.264 3.264 v 0.768 0.768 h -1.152 -1.152 v 3.07201 3.072 h -0.96 -0.96 z m 5.184,-0.76801 v -3.84 h 2.21417 c 1.49267,0 2.42976,0.0901 2.8758,0.27645 1.7128,0.71565 1.93193,3.32816 0.37433,4.46279 l -0.49845,0.3631 0.97308,1.21731 c 0.53519,0.66951 0.97307,1.24949 0.97307,1.28883 0,0.0393 -0.45969,0.0715 -1.02154,0.0715 H 123.21 l -1.00008,-1.248 c -0.74477,-0.9294 -1.12119,-1.248 -1.47446,-1.248 -0.45584,0 -0.47437,0.0487 -0.47437,1.248 v 1.248 h -0.96 -0.96 z m 4.50112,-0.61872 c 0.39501,-0.56396 0.37701,-0.83915 -0.0851,-1.30128 -0.29091,-0.2909 -0.64,-0.384 -1.44,-0.384 h -1.056 v 1.056 1.056 h 1.14112 c 0.96154,0 1.18814,-0.0671 1.44,-0.42672 z m 3.56288,0.61872 v -3.84 h 3 3 l -0.12,0.6 c -0.066,0.33 -0.12,0.6756 -0.12,0.768 0,0.0924 -0.9072,0.168 -2.016,0.168 h -2.016 v 0.768 0.768 h 1.92 1.92 v 0.768 0.76801 h -1.92 -1.92 v 0.768 0.768 h 2.112 2.112 v 0.768 0.768 h -2.976 -2.976 z M 63.248817,130.80205 c 1.026722,-0.48852 3.444275,-2.47549 3.444275,-2.83082 0,-0.0947 -0.49197,-0.94242 -1.093267,-1.88389 l -1.093268,-1.71176 -0.874732,0.73659 c -2.465452,2.07611 -5.287211,1.99458 -7.171874,-0.20723 -2.478995,-2.89614 -2.309312,-8.98672 0.324186,-11.6363 1.865658,-1.87705 4.418187,-1.91414 6.490854,-0.0943 0.376637,0.33069 0.732253,0.60125 0.790257,0.60125 0.205802,0 2.243844,-2.93301 2.243844,-3.22919 0,-0.49229 -1.949898,-2.2311 -3.178298,-2.83424 -1.061002,-0.52094 -1.298095,-0.56057 -3.354258,-0.56057 -2.109922,0 -2.271538,0.029 -3.484056,0.62622 -1.58783,0.782 -3.35579,2.61285 -4.162651,4.31072 -1.180326,2.48375 -1.669463,5.82737 -1.349673,9.22606 0.471048,5.00623 2.771716,8.42032 6.598429,9.79176 1.479731,0.53032 4.438492,0.37695 5.870232,-0.30429 z m 33.239023,-0.086 c 2.40615,-1.18455 3.6071,-3.12783 3.76189,-6.0872 0.0682,-1.30311 0.008,-2.04393 -0.23238,-2.87156 -0.81542,-2.80492 -2.45071,-4.08621 -6.39585,-5.01131 -2.56802,-0.60217 -3.21494,-0.96854 -3.52243,-1.99486 -0.18695,-0.62399 -0.17978,-0.90522 0.0377,-1.47656 0.4236,-1.11296 1.1023,-1.49632 2.80096,-1.5821 1.72846,-0.0873 2.57232,0.13405 3.88882,1.01999 l 0.97769,0.65794 0.9519,-1.89688 0.9519,-1.89687 -0.71546,-0.56223 c -1.98335,-1.55858 -4.93908,-2.3593 -7.19733,-1.9498 -2.2939,0.41596 -3.91032,1.55278 -4.95978,3.48819 -0.64521,1.18991 -0.65435,1.24029 -0.65435,3.60676 0,2.1191 0.0537,2.51883 0.45876,3.41524 0.83067,1.83829 2.48277,2.90865 5.57961,3.61489 2.35685,0.53749 2.70276,0.66611 3.37215,1.25384 0.60533,0.53149 0.66948,0.68461 0.66948,1.59803 0,1.84834 -1.33264,2.73284 -3.84646,2.55298 -1.41269,-0.10108 -3.4498,-0.94071 -4.14434,-1.70817 -0.17859,-0.19734 -0.43347,-0.35881 -0.56639,-0.35881 -0.13292,0 -0.69369,0.8385 -1.24616,1.86332 l -1.00448,1.86332 0.74631,0.64514 c 1.0021,0.86625 2.58141,1.75212 3.89497,2.18479 0.82892,0.27303 1.54687,0.34378 3.10196,0.30568 1.8422,-0.0451 2.13696,-0.10547 3.29134,-0.67376 z m 17.43589,-6.04449 c -0.001,-6.48851 -0.11268,-9.36396 -0.3624,-9.35655 -0.16729,0.005 -0.93147,1.18673 -5.79565,8.96267 -3.8676,6.1828 -4.30283,6.95892 -3.94209,7.02986 0.22303,0.0438 2.5871,0.0915 5.2535,0.10588 l 4.848,0.0261 z m 13.16372,-1.44 c -0.0764,-4.5144 -0.21021,-8.28232 -0.29739,-8.37317 -0.0872,-0.0908 -1.01702,1.11876 -2.06632,2.688 -1.63807,2.44977 -8.52204,12.95445 -8.94726,13.65317 -0.11558,0.18993 1.06365,0.24 5.65191,0.24 h 5.79795 z m 7.06248,3.456 c 0.0695,-2.6136 0.12652,-8.1 0.12675,-12.192 l 4.1e-4,-7.44 h -1.248 -1.248 v 12.192 12.192 h 1.12126 1.12126 z m -60.928838,1.03135 v -3.33665 l 2.928,-0.0854 c 2.5141,-0.0733 3.069868,-0.14755 3.931598,-0.52509 2.71427,-1.18919 4.33652,-4.84577 3.99873,-9.01319 -0.27006,-3.33189 -1.71539,-5.7162 -4.12857,-6.81076 -0.79317,-0.35976 -1.329749,-0.4034 -5.817758,-0.47321 l -4.944,-0.0769 v 11.82893 11.82892 h 2.016 2.016 z m 0,-11.83387 v -3.68028 l 2.544,0.12936 c 2.787662,0.14174 3.201827,0.29359 3.858308,1.41459 0.19487,0.33276 0.40122,1.12237 0.45855,1.7547 0.12612,1.39083 -0.25802,2.55241 -1.116294,3.3755 -0.578411,0.5547 -0.612025,0.56132 -3.164592,0.62353 l -2.579972,0.0629 z M 108.224,114.30358 c 2.46666,-3.7224 4.54759,-6.876 4.6243,-7.008 0.11001,-0.18932 -0.87643,-0.24 -4.67188,-0.24 h -4.81133 v 5.82784 c 0,5.15233 0.11508,8.18816 0.31039,8.18816 0.035,0 2.08186,-3.0456 4.54852,-6.768 z m 11.56476,2.976 c 1.18592,-1.78364 6.42433,-10.05408 6.42433,-10.14278 0,-0.0447 -1.74169,-0.0812 -3.87042,-0.0812 h -3.87043 l 0.12643,3.77488 c 0.0695,2.07618 0.12642,4.62498 0.12642,5.664 0,1.03902 0.0742,1.88912 0.16482,1.88912 0.0906,0 0.49513,-0.4968 0.89885,-1.104 z M 29.437685,97.071582 c 10.46204,-10.769581 46.826722,-47.57458 47.551999,-48.127776 0.460953,-0.351586 0.777845,-0.457116 1.117022,-0.371988 0.26043,0.06536 4.775704,2.997263 10.033944,6.515333 8.83714,5.912559 12.25752,8.00043 13.1064,8.00043 0.18342,0 1.75021,-0.524748 3.48177,-1.166106 4.24675,-1.572977 5.97971,-1.974957 7.98851,-1.853029 2.27787,0.13826 4.50744,1.258861 7.35176,3.695065 3.05988,2.620831 18.79334,17.536139 33.504,31.761764 4.54081,4.391084 9.29281,8.976155 10.56001,10.189045 l 2.304,2.20526 0.0487,-25.127707 0.0487,-25.12771 -0.72072,-1.366358 C 164.0352,52.925862 162.71185,52.076956 130.91709,33.912167 96.79381,14.417061 94.15877,12.957014 92.66764,12.718572 c -1.19101,-0.19045 -2.53321,0.17736 -4.71829,1.292979 -2.77175,1.415146 -12.173122,6.923036 -41.224259,24.15165 -5.9664,3.53834 -13.44,7.97 -16.608,9.848134 -3.168,1.878134 -6.478176,3.880183 -7.355947,4.448998 -1.797387,1.164747 -3.390284,2.577517 -3.80045,3.37069 -0.595019,1.150641 -0.703341,6.20328 -0.579541,27.032559 0.06622,11.1408 0.177366,21.368288 0.246999,22.727748 l 0.126605,2.47174 1.937526,-1.99174 c 1.065639,-1.09546 5.00107,-5.14535 8.745402,-8.999748 z m 10.672396,-2.484449 c 2.732393,-0.592014 4.772323,-0.908144 11.223011,-1.73924 11.686971,-1.50573 14.334738,-2.380797 18.16375,-6.002982 1.970897,-1.864438 3.40229,-3.555164 6.540373,-7.725329 4.590745,-6.100588 4.616825,-6.11209 16.767875,-7.394349 3.0096,-0.317593 5.72948,-0.63102 6.04418,-0.696505 l 0.57217,-0.119063 -0.87446,-0.791042 c -2.37776,-2.150938 -17.8716,-13.986 -19.305747,-14.746811 l -0.802276,-0.425606 -1.495129,1.334687 c -7.642667,6.822538 -39.455325,38.678689 -38.625881,38.678689 0.04022,0 0.846678,-0.167602 1.792134,-0.372449 z M 122.13148,80.129491 c -0.5884,-0.87225 -2.05995,-3.032105 -3.27012,-4.799678 -1.21017,-1.767572 -2.5351,-3.884372 -2.94429,-4.704 -0.79345,-1.589324 -0.78951,-1.554415 -0.59991,-5.322926 0.0425,-0.843764 -0.007,-0.982171 -0.43207,-1.210506 -1.60987,-0.864682 -8.45873,1.252358 -9.74755,3.013053 l -0.36172,0.494147 5.3726,4.224001 c 10.02487,7.881681 12.87104,10.073637 12.96204,9.982631 0.0499,-0.04995 -0.39059,-0.804472 -0.97898,-1.676722 z"
       id="path1" />
  </g>
</svg>
