<?xml version="1.0" encoding="UTF-8" standalone="no"?>
<!-- Created with Inkscape (http://www.inkscape.org/) -->

<svg
   version="1.1"
   id="svg1"
   width="334.56"
   height="181.92"
   viewBox="0 0 334.56 181.92"
   sodipodi:docname="Logo26Calado.svg"
   inkscape:version="1.3 (0e150ed6c4, 2023-07-21)"
   inkscape:export-filename="Logo26Calado.png"
   inkscape:export-xdpi="125"
   inkscape:export-ydpi="125"
   xmlns:inkscape="http://www.inkscape.org/namespaces/inkscape"
   xmlns:sodipodi="http://sodipodi.sourceforge.net/DTD/sodipodi-0.dtd"
   xmlns="http://www.w3.org/2000/svg"
   xmlns:svg="http://www.w3.org/2000/svg">
  <defs
     id="defs1" />
  <sodipodi:namedview
     id="namedview1"
     pagecolor="#ffffff"
     bordercolor="#000000"
     borderopacity="0.25"
     inkscape:showpageshadow="2"
     inkscape:pageopacity="0.0"
     inkscape:pagecheckerboard="0"
     inkscape:deskcolor="#d1d1d1"
     inkscape:zoom="2.4300574"
     inkscape:cx="167.28"
     inkscape:cy="91.15011"
     inkscape:window-width="1920"
     inkscape:window-height="991"
     inkscape:window-x="-9"
     inkscape:window-y="-9"
     inkscape:window-maximized="1"
     inkscape:current-layer="g1" />
  <g
     inkscape:groupmode="layer"
     inkscape:label="Image"
     id="g1">
    <path
       style="fill:#1a1a1a"
       d="m 37.611513,177.03432 c -18.216,-0.16279 -33.1740001,-0.33352 -33.2400001,-0.37939 -0.066,-0.0459 -0.12,-13.28244 -0.12,-29.41457 v -29.33115 l 47.4000001,0.16157 c 26.069999,0.0889 47.648001,0.005 47.951115,-0.18697 0.303114,-0.19169 0.948262,-1.45297 1.433672,-2.80284 l 0.88255,-2.4543 22.56633,0.29219 c 12.41148,0.1607 63.98433,0.42694 114.60633,0.59163 l 92.04,0.29945 v 29.68875 29.68875 l -11.4,-0.23227 c -6.27,-0.12775 -52.656,-0.44405 -103.08,-0.70289 -50.424,-0.25884 -101.832,-0.60405 -114.24,-0.76714 l -22.559998,-0.29653 -1.183401,3.17145 -1.183401,3.17146 -3.376599,-0.10061 c -1.857129,-0.0553 -18.280598,-0.2338 -36.496598,-0.39659 z m 4.56,-22.06281 v -3.36 h -7.68 -7.68 v -12 -12 h -3.6 -3.6 v 15.36 15.36 h 11.28 11.28 z m 9.296241,0.60046 1.023759,-2.51955 7.504251,-4.5e-4 7.504251,-4.6e-4 1.071498,2.64 1.071497,2.64 h 4.006017 4.006018 l -1.766286,-3.96 c -0.971457,-2.178 -4.046322,-9.036 -6.833032,-15.24 l -5.066746,-11.28 -3.854456,-0.13789 -3.854456,-0.13789 -6.633901,14.77789 c -3.648645,8.12784 -6.741697,15.05705 -6.873448,15.39826 -0.186501,0.48299 0.636372,0.58928 3.715863,0.48 l 3.955411,-0.14037 z m 4.142798,-9.60046 c -0.0013,-0.48476 3.906504,-9.86444 4.300026,-10.32112 0.171146,-0.19862 1.037724,1.42138 1.925727,3.6 0.888004,2.17861 1.905598,4.66312 2.261321,5.52112 l 0.64677,1.56 h -4.566442 c -2.511543,0 -4.566873,-0.162 -4.567402,-0.36 z M 231.4762,156.87098 c 4.66157,-1.74412 7.02178,-5.45498 6.40312,-10.0674 -0.54902,-4.09329 -4.22257,-6.6523 -11.34803,-7.90508 -4.65613,-0.81863 -6.27978,-1.68917 -6.27978,-3.36699 0,-2.87718 6.66021,-3.95499 10.90088,-1.76407 1.11148,0.57424 2.1271,1.04407 2.25694,1.04407 0.38651,0 3.16218,-4.20718 3.16218,-4.79304 0,-0.90569 -4.99786,-2.89077 -8.23079,-3.26917 -10.71392,-1.254 -17.79333,4.9028 -14.41618,12.53741 1.46279,3.30686 3.87018,4.55896 10.88697,5.66237 4.57247,0.71903 6,1.50505 6,3.30369 0,2.17915 -1.82905,3.12297 -6.00766,3.10003 -2.73891,-0.015 -3.95123,-0.28422 -6.17084,-1.37018 -3.08978,-1.51168 -2.83596,-1.60955 -5.13533,1.98013 -1.13684,1.7748 -0.98286,2.22349 1.14427,3.33443 5.09179,2.6593 12.16549,3.3206 16.83425,1.5738 z m -129.30469,-3.76891 v -4.26945 l 5.67795,-0.17055 c 5.34231,-0.16048 5.81759,-0.25685 8.04,-1.63023 3.3714,-2.08341 4.7616,-4.74021 4.76185,-9.10033 2.5e-4,-4.32 -1.56469,-7.2475 -4.93256,-9.22724 -2.23454,-1.31354 -2.4005,-1.33502 -11.50724,-1.48946 l -9.239998,-0.15671 v 15.15671 15.1567 h 3.6 3.599998 z m 0,-15.12423 v -4.60633 h 3.52837 c 1.94061,0 4.21517,0.23942 5.05459,0.53204 2.94088,1.0252 3.77236,5.32767 1.43821,7.44206 -0.79597,0.72103 -1.92054,0.93984 -5.51061,1.07223 l -4.51056,0.16634 z m 46.08,16.27367 v -3.12 h -8.16 -8.16 v -3.12 -3.12 h 7.44 7.44 v -2.88 -2.88 h -7.44 -7.44 v -2.88 -2.88 h 7.92 7.92 v -3.12 -3.12 h -11.52 -11.52 v 15.12 15.12 h 11.76 11.76 z m 21.21637,2.59235 c 4.95446,-1.02776 9.18018,-4.57921 10.67758,-8.97382 0.96425,-2.82994 0.95526,-8.43351 -0.0181,-11.29024 -1.04594,-3.06966 -4.38533,-6.65621 -7.5017,-8.05695 -2.29967,-1.03365 -3.3224,-1.1543 -11.05413,-1.30406 l -8.52,-0.16502 v 15.15887 15.15887 h 6.93637 c 3.81501,0 8.08101,-0.23744 9.48,-0.52765 z m -8.85637,-5.97779 c -0.198,-0.20601 -0.36,-4.25365 -0.36,-8.99475 v -8.6202 l 4.00124,0.21001 c 4.74982,0.24931 6.76573,1.21908 8.3506,4.01713 2.19717,3.87907 0.97076,10.06088 -2.41057,12.15066 -1.76057,1.08809 -8.84531,2.00289 -9.58127,1.23715 z m 48.6,3.38544 v -3.12 h -8.16 -8.16 v -3.12 -3.12 h 7.44 7.44 v -2.88 -2.88 h -7.44 -7.44 v -2.88 -2.88 h 7.92 7.92 v -3.12 -3.12 h -11.52 -11.52 v 15.12 15.12 h 11.76 11.76 z m 46.56,-8.88 v -12 h 4.56 4.56 v -3.12 -3.12 h -12.72 -12.72 v 3.12 3.12 h 4.56 4.56 v 12 12 h 3.6 3.6 z m 20.16,6.9324 v -5.0676 l 2.0219,0.1476 c 1.94527,0.142 2.16593,0.33407 5.82216,5.0676 l 3.80025,4.92 h 4.01784 c 2.20982,0 4.01785,-0.16783 4.01785,-0.37295 0,-0.20513 -1.728,-2.50789 -3.84,-5.11724 -3.84742,-4.75346 -4.31884,-5.54981 -3.28531,-5.54981 1.09935,0 3.79494,-2.49633 4.77948,-4.42618 0.8019,-1.57187 0.96855,-2.62098 0.82366,-5.18524 -0.24104,-4.26587 -1.84325,-6.78815 -5.34873,-8.42029 -2.34381,-1.09126 -3.00045,-1.15919 -11.2491,-1.1636 l -8.76,-0.005 v 15.12 15.12 h 3.6 3.6 z m 0,-14.8524 v -4.08 h 4.25527 c 3.57812,0 4.45652,0.15831 5.52,0.99484 1.0204,0.80264 1.26473,1.39866 1.26473,3.08516 0,1.68649 -0.24433,2.28251 -1.26473,3.08516 -1.06348,0.83653 -1.94188,0.99484 -5.52,0.99484 h -4.25527 z m 47.4229,16.68 0.14291,-3 h -8.42291 -8.4229 v -3.12 -3.12 h 7.68 7.68 v -2.88 -2.88 h -7.68 -7.68 v -2.8684 -2.86839 l 8.04,-0.13161 8.04,-0.1316 0.1429,-3 0.14291,-3 h -11.54291 -11.5429 v 15.12853 15.12854 l 11.64,-0.12854 11.64,-0.12853 z M 32.687367,100.27397 C 23.854515,97.887867 17.810291,93.397083 12.608108,85.355331 7.1439515,76.90861 4.5687285,66.694274 4.5645654,53.451512 4.5595654,37.539767 8.6725204,24.780163 16.548823,16.272816 23.355934,8.9203242 30.93027,5.5634632 40.731513,5.5553192 c 6.081242,-0.005 10.775006,1.376277 15.783825,4.6450288 3.760218,2.453917 9.871898,8.636653 9.498716,9.609152 -0.141122,0.367758 -2.254315,3.385443 -4.695984,6.705967 l -4.439397,6.037316 -2.778594,-2.65033 C 50.33459,26.310785 46.845346,24.764488 41.931513,24.509817 35.144071,24.158043 29.685574,27.013187 25.6014,33.051513 c -6.324691,9.350862 -7.192548,26.238253 -1.919073,37.342695 6.265984,13.194382 21.139557,15.951389 31.643025,5.86544 l 3.020743,-2.900666 4.392709,6.622907 c 2.41599,3.642598 4.392709,6.902312 4.392709,7.243807 0,1.08843 -7.379628,7.918063 -10.587606,9.798524 -4.791903,2.808931 -8.469773,3.80207 -14.852394,4.0106 -4.398227,0.14371 -6.228048,-0.0109 -9.004146,-0.76085 z m 130.326103,0.44115 c -6.73533,-1.133779 -14.93318,-5.150731 -19.84822,-9.725632 l -2.73897,-2.549424 3.95123,-7.412894 c 2.17318,-4.077092 4.0346,-7.496262 4.1365,-7.598155 0.10189,-0.101893 0.99733,0.527747 1.98986,1.3992 3.00128,2.63516 7.22335,5.141946 10.61623,6.303211 2.53476,0.867563 4.27334,1.101361 8.25141,1.109621 4.58992,0.0095 5.29074,-0.112653 7.84779,-1.368219 3.82301,-1.877179 5.59221,-4.593792 5.59221,-8.586846 0,-3.158926 -0.41863,-4.220815 -2.55289,-6.475634 -1.85755,-1.962483 -5.0047,-3.147525 -11.72927,-4.416596 -18.23259,-3.440882 -25.23901,-10.406671 -25.90879,-25.758558 -0.42552,-9.753452 1.64224,-16.143979 7.11753,-21.997082 5.85321,-6.2570958 14.9045,-9.2065288 24.39559,-7.9494858 7.43336,0.984509 15.08746,4.276734 19.76251,8.5003588 l 1.83418,1.657068 -3.66702,7.352148 -3.66702,7.352149 -2.43241,-1.815384 c -5.36851,-4.006688 -9.98501,-5.478524 -16.30176,-5.19734 -3.70125,0.164757 -4.76211,0.408287 -6.92659,1.590065 -3.67226,2.005013 -5.06047,4.50978 -4.79655,8.654516 0.13507,2.121265 0.50495,3.517047 1.17239,4.424135 1.67421,2.27535 5.53645,3.977406 11.86626,5.229361 7.22069,1.42816 9.72122,2.220507 13.97867,4.429456 6.42825,3.335253 10.87662,9.092305 12.52825,16.214008 0.96599,4.165282 0.96159,12.038408 -0.009,16.223841 -2.40903,10.387541 -10.10303,18.043506 -20.30605,20.205662 -3.46143,0.73353 -10.42184,0.83504 -14.15599,0.20645 z m 47.15804,-0.24529 c 0,-0.14392 1.04468,-1.817917 2.32152,-3.719995 1.27683,-1.902078 7.5804,-11.990323 14.00793,-22.418323 13.8092,-22.404002 22.60463,-36.098027 23.34326,-36.344238 0.29272,-0.09757 0.6846,0.533965 0.87085,1.403417 0.18625,0.869452 0.4475,15.026821 0.58057,31.460821 l 0.24193,29.879998 h -20.68303 c -11.37567,0 -20.68303,-0.11776 -20.68303,-0.26168 z m 48.75737,-1.058318 c 0.47728,-0.726 5.70973,-8.754317 11.62766,-17.840704 19.54453,-30.008641 30.28435,-46.119295 30.74445,-46.119295 0.85955,0 1.03656,4.651158 1.32894,34.919999 l 0.29326,30.359998 H 280.49215 258.0611 Z m 62.24029,-46.08 0.12234,-47.3999988 h 4.8 4.8 l -0.12492,17.5199998 c -0.0687,9.636 -0.25947,30.965999 -0.42393,47.399999 l -0.29903,29.879998 h -4.4984 -4.4984 z m -244.437658,0.12 V 7.6115132 h 18.139153 c 14.748195,0 18.667245,0.13755 20.964065,0.735796 8.81827,2.2968678 15.19533,9.3969908 18.09276,20.1442038 1.5053,5.583502 1.50109,17.965338 -0.008,23.519999 -2.20758,8.125705 -6.63994,14.743741 -11.96517,17.865428 -4.52183,2.650729 -7.17529,3.130092 -18.70281,3.378765 l -10.679998,0.230389 v 12.902709 12.902709 h -7.92 -7.92 z m 35.212788,0.611521 c 2.69097,-0.806235 5.25986,-3.524404 6.53657,-6.916416 0.8954,-2.378946 1.03287,-3.559323 0.88729,-7.618532 -0.15447,-4.307067 -0.32541,-5.075876 -1.65428,-7.439999 -0.85764,-1.525804 -2.33719,-3.243235 -3.5119,-4.076573 l -2.02991,-1.44 -9.80028,-0.147451 -9.800278,-0.147451 v 14.187451 14.18745 h 8.704308 c 5.4845,0 9.43088,-0.217684 10.66848,-0.588479 z m 98.5472,-1.372931 c -0.17438,-4.597224 -0.31772,-17.052589 -0.31852,-27.678589 l -0.001,-19.3199998 h 18.72 c 10.296,0 18.72,0.0929 18.72,0.206436 0,0.499705 -33.85822,51.5265148 -35.66659,53.7521528 l -1.13637,1.398589 z m 59.51295,-6.993259 c -0.17212,-2.813069 -0.31294,-12.965069 -0.31294,-22.56 V 5.6915132 h 14.88 c 8.184,0 14.88,0.123082 14.88,0.273516 0,0.150433 -0.62006,1.176433 -1.37791,2.28 -0.75785,1.103566 -5.64205,8.8104838 -10.85377,17.1264838 -10.52403,16.792474 -16.17035,25.439999 -16.6108,25.439999 -0.1604,0 -0.43246,-2.301601 -0.60458,-5.114669 z"
       id="path1" />
  </g>
</svg>
