<?xml version="1.0" encoding="UTF-8" standalone="no"?>
<!-- Created with Inkscape (http://www.inkscape.org/) -->

<svg
   version="1.1"
   id="svg1"
   width="518.3291"
   height="291.42618"
   viewBox="0 0 518.32911 291.42618"
   sodipodi:docname="logoOrla26.svg"
   inkscape:export-filename="LogoOrla26.png"
   inkscape:export-xdpi="150"
   inkscape:export-ydpi="150"
   inkscape:version="1.3 (0e150ed6c4, 2023-07-21)"
   xmlns:inkscape="http://www.inkscape.org/namespaces/inkscape"
   xmlns:sodipodi="http://sodipodi.sourceforge.net/DTD/sodipodi-0.dtd"
   xmlns="http://www.w3.org/2000/svg"
   xmlns:svg="http://www.w3.org/2000/svg">
  <defs
     id="defs1" />
  <sodipodi:namedview
     id="namedview1"
     pagecolor="#ffffff"
     bordercolor="#000000"
     borderopacity="0.25"
     inkscape:showpageshadow="2"
     inkscape:pageopacity="0.0"
     inkscape:pagecheckerboard="0"
     inkscape:deskcolor="#d1d1d1"
     inkscape:zoom="1.3610332"
     inkscape:cx="279.56702"
     inkscape:cy="216.37973"
     inkscape:window-width="1902"
     inkscape:window-height="973"
     inkscape:window-x="0"
     inkscape:window-y="0"
     inkscape:window-maximized="0"
     inkscape:current-layer="g1" />
  <g
     id="g1"
     inkscape:groupmode="layer"
     inkscape:label="1"
     transform="translate(-55.459273,-12.78343)">
    <g
       id="g38">
      <path
         style="fill:none;stroke:#000000;stroke-width:3.80026;stroke-dasharray:none"
         d="M 208.27422,32.999766 559.01756,32.45311 c 12.53277,-1.125113 12.53273,4.882175 12.43786,9.793981 L 570.9872,271.15456 c 1.08335,12.11652 -3.34116,13.01552 -11.32055,12.81585 l -358.78676,-1.04685 -2.06962,-0.67368"
         id="path34"
         sodipodi:nodetypes="ccccccc" />
      <path
         style="fill:#000000;stroke-width:1.59644"
         d="m 180.3581,303.76834 c -4.38454,-1.18318 -8.04196,-2.98004 -25.89088,-12.71994 -37.0497,-20.21749 -84.124747,-46.59562 -87.851217,-49.22673 -5.63532,-3.97887 -9.70692,-10.77063 -10.26173,-17.11743 -0.40532,-4.63681 -0.88654,-55.86521 -0.89427,-95.20299 -0.006,-33.753118 0.0112,-34.870708 0.60332,-37.184698 0.33558,-1.31214 1.06014,-3.22998 1.61013,-4.26185 1.20464,-2.26014 5.0325,-6.38242 7.84722,-8.45076 4.42939,-3.25487 100.335207,-59.8402 107.629187,-63.50224 2.97009,-1.49117 7.53679,-3.0619 9.49803,-3.26688 2.23128,-0.23323 5.63174,0.33897 8.80043,1.48082 3.31349,1.19402 26.81587,14.40768 80.87438,45.46972 29.30085,16.83627 29.86931,17.17476 32.40273,19.29394 4.09092,3.42203 7.96256,8.99397 9.27122,13.34287 0.32094,1.06646 0.6096,3.71294 0.78571,7.20313 0.34823,6.901768 0.36317,107.676048 0.0172,116.629418 -0.24148,6.25064 -0.30494,6.7401 -1.23194,9.50201 -2.67049,7.95644 -6.21799,12.05488 -15.5529,17.96825 -8.10472,5.1341 -39.42049,23.02588 -79.17917,45.23778 -22.13328,12.36517 -25.26046,14.01501 -27.7917,14.6624 -2.79249,0.7142 -8.29653,0.78794 -10.68582,0.1432 z m -31.56124,-59.62063 0.36123,-1.0728 h 10.08757 c 5.54818,0 28.74294,0.11239 51.54391,0.2497 l 41.45632,0.2497 V 231.4471 219.31989 l -15.09592,-1.6e-4 c -8.30276,-8e-5 -29.44089,-0.0916 -46.97361,-0.20329 l -31.87769,-0.20315 -0.45977,1.04622 -0.45978,1.04621 -19.54042,0.0789 -19.54041,0.0789 v 11.94427 11.94427 l 4.98089,0.0944 c 2.73949,0.0519 9.5204,0.0899 15.06868,0.0843 l 10.08778,-0.01 z m -24.06172,-12.71223 v -6.29179 h 1.37932 1.37932 v 4.90426 4.90428 h 3.23605 3.23605 l -0.0942,1.30269 -0.0942,1.3027 -4.52111,0.0848 -4.52112,0.0848 z m 19.92356,5.04933 -0.62549,-1.22607 h -2.91064 -2.91063 l -0.51158,1.07281 c -0.48006,1.00668 -0.60255,1.07281 -1.9874,1.07281 -0.81169,0 -1.47581,-0.0867 -1.47581,-0.19276 0,-0.106 1.19615,-2.86466 2.6581,-6.13032 l 2.6581,-5.93759 h 1.59633 1.59633 l 2.67373,5.90044 c 1.47058,3.24526 2.7433,6.07287 2.82825,6.2836 0.1116,0.27653 -0.27929,0.38314 -1.40465,0.38314 -1.51043,0 -1.57871,-0.0383 -2.18464,-1.22606 z m -1.83911,-4.12924 c 0,-0.86097 -1.54035,-3.95517 -1.82428,-3.66451 -0.15262,0.15629 -0.56995,1.03042 -0.9274,1.94259 -0.75585,1.92885 -0.60079,2.16088 1.44899,2.16826 0.94451,0.003 1.30269,-0.11926 1.30269,-0.44634 z m 64.21516,4.86422 c -0.33717,-0.082 -1.19925,-0.36145 -1.91573,-0.62074 -1.43718,-0.52013 -1.62179,-1.06118 -0.74908,-2.19526 0.51987,-0.67555 0.58208,-0.68412 1.66919,-0.22989 2.14065,0.89442 5.13359,0.44603 5.13359,-0.76908 0,-0.48321 -1.32976,-1.14444 -2.75865,-1.37176 -2.13629,-0.33987 -3.50773,-1.00073 -4.07716,-1.96472 -1.28896,-2.18204 0.075,-4.60239 2.95716,-5.24738 1.75055,-0.39175 4.51915,-0.0198 5.5696,0.74834 0.52182,0.38157 0.52055,0.4411 -0.0294,1.37202 -0.38005,0.64338 -0.73302,0.91212 -1.0416,0.79307 -2.72082,-1.04977 -4.75796,-0.83568 -4.75796,0.50001 0,0.77421 0.003,0.77556 3.80606,1.80789 1.86785,0.50699 3.09056,1.78481 3.09056,3.22985 0,1.39046 -0.71727,2.65447 -1.90411,3.35557 -0.89688,0.52979 -3.82313,0.87682 -4.99251,0.59208 z m -51.64798,-6.25229 v -6.13032 l 3.29505,0.002 c 5.48616,0.003 6.8336,0.75402 7.0639,3.93805 0.23878,3.30113 -1.06972,4.56696 -5.03063,4.86654 l -2.26316,0.17115 v 1.6416 1.6416 h -1.53258 -1.53258 z m 5.57203,0.005 c 1.28467,-0.005 2.09087,-0.64654 2.09087,-1.66441 0,-1.10124 -1.04116,-1.79895 -2.91664,-1.95448 l -1.6811,-0.13936 v 2.06606 c 0,1.99301 0.0244,2.05953 0.68966,1.88124 0.37931,-0.10169 1.19706,-0.1867 1.81721,-0.189 z m 6.68862,-0.005 v -6.13032 h 4.751 4.751 v 1.22606 1.22607 h -3.21842 -3.21842 v 1.22606 1.22607 h 2.9119 2.91191 v 1.22606 1.22608 h -2.91191 -2.9119 v 1.22607 1.22606 h 3.21842 3.21842 v 1.22607 1.22606 h -4.751 -4.751 z m 11.64761,0 v -6.13032 l 2.98853,0.002 c 3.4975,0.002 4.90605,0.33 6.24106,1.45334 2.57489,2.16664 2.82916,6.6388 0.5053,8.88793 -1.59308,1.54186 -2.86819,1.91767 -6.50662,1.91767 h -3.22827 z m 7.43302,2.44514 c 1.12175,-1.2273 1.19629,-3.53391 0.15326,-4.74296 -0.68042,-0.78873 -2.33465,-1.35874 -3.98471,-1.37305 l -0.84292,-0.008 v 2.72033 c 0,1.4962 0.0896,3.16796 0.19895,3.71504 l 0.19893,0.9947 1.71679,-0.19226 c 1.3821,-0.1547 1.8811,-0.37202 2.5597,-1.11448 z m 5.74718,-2.44514 v -6.13032 h 4.751 4.751 v 1.22606 1.22607 h -3.21842 -3.21842 v 1.22606 1.22607 h 3.06516 3.06517 v 1.22606 1.22608 h -3.06517 -3.06516 v 1.22607 1.22606 h 3.37168 3.37168 v 1.22607 1.22606 h -4.90426 -4.90426 z m 25.74736,1.22608 v -4.90427 h -1.8391 -1.83909 v -1.22607 -1.22606 h 5.21077 5.21078 v 1.22606 1.22607 h -1.8391 -1.8391 v 4.90427 4.90426 h -1.53258 -1.53258 z m 8.27594,-1.22608 v -6.13032 h 3.53479 c 2.38295,0 3.87896,0.14384 4.59103,0.44133 2.73438,1.14249 3.08421,5.31321 0.5976,7.12457 l -0.79575,0.57967 1.55347,1.94336 c 0.85439,1.06883 1.55344,1.99473 1.55344,2.05754 0,0.0627 -0.73386,0.11414 -1.63082,0.11414 h -1.63085 l -1.59656,-1.99235 c -1.18898,-1.48373 -1.78991,-1.99236 -2.35389,-1.99236 -0.72772,0 -0.7573,0.0778 -0.7573,1.99236 v 1.99235 h -1.53258 -1.53258 z m 7.18576,-0.98775 c 0.63061,-0.90032 0.60187,-1.33965 -0.13586,-2.07741 -0.46442,-0.4644 -1.02172,-0.61303 -2.29887,-0.61303 h -1.68584 v 1.68584 1.68584 h 1.82173 c 1.53504,0 1.89679,-0.10713 2.29887,-0.68124 z m 5.68792,0.98775 v -6.13032 h 4.78932 4.78931 l -0.19157,0.95786 c -0.10537,0.52683 -0.19157,1.07855 -0.19157,1.22607 0,0.14751 -1.44829,0.2682 -3.21842,0.2682 h -3.21842 v 1.22606 1.22607 h 3.06516 3.06516 v 1.22606 1.22608 h -3.06516 -3.06516 v 1.22607 1.22606 h 3.37167 3.37168 v 1.22607 1.22606 h -4.751 -4.751 z M 138.5471,213.09133 c 1.6391,-0.77989 5.49857,-3.95197 5.49857,-4.51923 0,-0.15118 -0.7854,-1.50451 -1.74534,-3.00751 l -1.74532,-2.73272 -1.39647,1.17592 c -3.93594,3.31438 -8.44072,3.18422 -11.44946,-0.33083 -3.95756,-4.62351 -3.68668,-14.34675 0.51755,-18.57664 2.97839,-2.9966 7.05336,-3.05581 10.36224,-0.15054 0.60128,0.52792 1.169,0.95985 1.26161,0.95985 0.32855,0 3.58214,-4.68237 3.58214,-5.1552 0,-0.78591 -3.11288,-3.56181 -5.07396,-4.52469 -1.69381,-0.83165 -2.07231,-0.89492 -5.35485,-0.89492 -3.36837,0 -3.62638,0.0463 -5.56209,0.99973 -2.53487,1.24841 -5.35731,4.17125 -6.64541,6.8818 -1.88433,3.96515 -2.66519,9.30303 -2.15467,14.72883 0.75199,7.99214 4.42487,13.44253 10.53397,15.63195 2.36232,0.84662 7.08581,0.60178 9.37149,-0.48578 z m 53.06406,-0.13729 c 3.84127,-1.89106 5.75851,-4.99339 6.00562,-9.71784 0.10888,-2.08034 0.0128,-3.26301 -0.37098,-4.58427 -1.30177,-4.47788 -3.91241,-6.52339 -10.21058,-8.00025 -4.09969,-0.96133 -5.13245,-1.54622 -5.62334,-3.18467 -0.29846,-0.99616 -0.28701,-1.44513 0.0602,-2.35724 0.67625,-1.77677 1.75976,-2.38878 4.47156,-2.52573 2.75938,-0.13936 4.10655,0.21401 6.20827,1.62836 l 1.56082,1.05036 1.51965,-3.02826 1.51965,-3.02823 -1.14219,-0.89757 c -3.1663,-2.48817 -7.88494,-3.76648 -11.4901,-3.11273 -3.66207,0.66405 -6.24258,2.47891 -7.91798,5.56868 -1.03004,1.89962 -1.04463,1.98004 -1.04463,5.75797 0,3.38301 0.0857,4.02116 0.73238,5.45222 1.32612,2.93472 3.96359,4.64348 8.90751,5.77095 3.76256,0.85807 4.31479,1.0634 5.38343,2.00168 0.96637,0.84849 1.06878,1.09294 1.06878,2.55115 0,2.95077 -2.12748,4.36282 -6.14064,4.07568 -2.25527,-0.16137 -5.50739,-1.50178 -6.61618,-2.72699 -0.28511,-0.31504 -0.69201,-0.57282 -0.90421,-0.57282 -0.2122,0 -1.10743,1.33862 -1.98941,2.97468 l -1.6036,2.97468 1.19144,1.02992 c 1.59979,1.38292 4.12107,2.79715 6.21808,3.48789 1.32332,0.43587 2.46949,0.54882 4.95209,0.488 2.94096,-0.072 3.41153,-0.16838 5.25442,-1.07562 z m 27.83532,-9.64966 c -0.002,-10.35851 -0.17988,-14.94899 -0.57854,-14.93716 -0.26707,0.008 -1.48704,1.89455 -9.2524,14.30836 -6.17439,9.87046 -6.86921,11.10948 -6.29331,11.22274 0.35605,0.0699 4.13015,0.14607 8.38689,0.16903 l 7.73954,0.0417 z m 21.01508,-2.29887 c -0.12197,-7.20696 -0.33559,-13.22222 -0.47477,-13.36725 -0.13921,-0.14496 -1.62361,1.78603 -3.29875,4.29122 -2.61508,3.91091 -13.60492,20.68099 -14.28375,21.79645 -0.18452,0.30321 1.69805,0.38315 9.02292,0.38315 h 9.25607 z m 11.27481,5.51729 c 0.11095,-4.17245 0.20198,-12.93115 0.20235,-19.46378 l 6.5e-4,-11.8775 h -1.99235 -1.99236 v 19.46378 19.46378 h 1.79003 1.79002 z m -97.26915,1.64649 v -5.32676 l 4.67437,-0.13633 c 4.01361,-0.11702 4.90086,-0.23556 6.27656,-0.83828 4.33316,-1.89847 6.92299,-7.73597 6.38373,-14.389 -0.43114,-5.31916 -2.73852,-9.12557 -6.59101,-10.87296 -1.26625,-0.57434 -2.12287,-0.64401 -9.2877,-0.75545 l -7.89279,-0.12277 v 18.88416 18.88415 h 3.21842 3.21842 z m 0,-18.89205 v -5.87534 l 4.06134,0.20652 c 4.45033,0.22627 5.11152,0.46869 6.15955,2.2583 0.3111,0.53123 0.64053,1.7918 0.73205,2.80127 0.20134,2.22038 -0.41191,4.07477 -1.78209,5.38878 -0.92341,0.88555 -0.97707,0.89611 -5.05209,0.99543 l -4.11876,0.10041 z m 55.88,-2.5247 c 3.93787,-5.94259 7.25994,-10.97711 7.38241,-11.18784 0.17562,-0.30224 -1.39917,-0.38315 -7.45837,-0.38315 h -7.681 v 9.30379 c 0,8.22538 0.18372,13.07189 0.49552,13.07189 0.0559,0 3.32356,-4.86211 7.26144,-10.80469 z m 18.46242,4.751 c 1.89325,-2.84747 10.25605,-16.05072 10.25605,-16.19233 0,-0.0714 -2.7805,-0.12963 -6.17888,-0.12963 h -6.17891 l 0.20184,6.02637 c 0.11095,3.31449 0.20182,7.38349 0.20182,9.04222 0,1.65874 0.11846,3.01587 0.26313,3.01587 0.14463,0 0.79044,-0.79311 1.43495,-1.76247 z M 84.569673,159.24271 c 16.702007,-17.19298 74.756017,-75.949898 75.913867,-76.833028 0.73589,-0.5613 1.24179,-0.72977 1.78327,-0.59386 0.41576,0.1044 7.62411,4.78494 16.01857,10.40132 14.10795,9.439038 19.56838,12.772198 20.92356,12.772198 0.29282,0 2.79411,-0.83773 5.55843,-1.86163 6.77968,-2.51115 9.54624,-3.152878 12.75317,-2.95823 3.63648,0.22073 7.19585,2.00969 11.73663,5.89894 4.88492,4.18399 30.00242,27.99537 53.48708,50.70571 7.24913,7.01009 14.8354,14.32988 16.85841,16.26618 l 3.6782,3.52056 0.0777,-40.11484 0.0778,-40.114858 -1.15059,-2.18128 c -2.83939,-5.38312 -4.95204,-6.73833 -55.71042,-35.7373 -54.47572,-31.12276 -58.6824,-33.45364 -61.0629,-33.83429 -1.90137,-0.30404 -4.04411,0.28314 -7.53246,2.06416 -4.42493,2.2592 -19.43364,11.05221 -65.81202,38.55663 -9.52499,5.64875 -21.456127,12.72362 -26.513647,15.72196 -5.05752,2.99831 -10.34202,6.19446 -11.74332,7.10253 -2.86941,1.85946 -5.41238,4.11486 -6.06719,5.3811 -0.94991,1.83692 -1.12284,9.903158 -0.9252,43.155828 0.10569,17.7856 0.28316,34.11316 0.39432,36.28346 l 0.20213,3.94598 3.09313,-3.17969 c 1.70123,-1.74884 7.9839,-8.21424 13.96149,-14.36755 z m 17.037837,-3.96627 c 4.36209,-0.94511 7.61871,-1.44979 17.91685,-2.77659 18.65754,-2.40381 22.88453,-3.80079 28.99732,-9.58339 3.14642,-2.97647 5.43155,-5.6756 10.4413,-12.33302 7.32885,-9.73922 7.37049,-9.75758 26.76889,-11.80462 4.80464,-0.50702 9.14677,-1.00739 9.64916,-1.11192 l 0.91344,-0.19008 -1.39602,-1.26286 C 191.1025,112.78013 166.36753,93.886172 164.078,92.671582 l -1.28077,-0.67944 -2.38689,2.13073 c -12.20105,10.891768 -62.988031,61.748158 -61.663861,61.748158 0.0642,0 1.351661,-0.26756 2.861031,-0.59459 z M 232.54965,132.1957 c -0.93934,-1.39249 -3.28858,-4.84056 -5.22054,-7.66239 -1.93196,-2.82182 -4.04713,-6.20116 -4.70038,-7.50965 -1.26669,-2.53725 -1.2604,-2.48152 -0.95772,-8.49772 0.0678,-1.34702 -0.0112,-1.56797 -0.68977,-1.9325 -2.57006,-1.38041 -13.50385,1.99931 -15.56137,4.81015 l -0.57746,0.78888 8.57702,6.74335 c 16.00409,12.58262 20.54783,16.08195 20.6931,15.93666 0.0797,-0.0798 -0.62355,-1.28429 -1.56288,-2.67678 z"
         id="path1" />
      <text
         xml:space="preserve"
         style="font-style:normal;font-variant:normal;font-weight:900;font-stretch:normal;font-size:32px;font-family:Nexa;-inkscape-font-specification:'Nexa Heavy';text-align:start;text-anchor:start;fill:#000000;stroke:#000000;stroke-width:0"
         x="329.32629"
         y="92.913788"
         id="text35"><tspan
           sodipodi:role="line"
           id="tspan35"
           x="329.32629"
           y="92.913788">CARRERA</tspan></text>
      <text
         xml:space="preserve"
         style="font-style:normal;font-variant:normal;font-weight:900;font-stretch:normal;font-size:32px;font-family:Nexa;-inkscape-font-specification:'Nexa Heavy';text-align:start;text-anchor:start;fill:#000000;stroke:#000000;stroke-width:0"
         x="328.0463"
         y="148.46742"
         id="text36"><tspan
           sodipodi:role="line"
           id="tspan36"
           x="328.0463"
           y="148.46742">PEDESTRE</tspan></text>
      <text
         xml:space="preserve"
         style="font-style:normal;font-variant:normal;font-weight:900;font-stretch:normal;font-size:32px;font-family:Nexa;-inkscape-font-specification:'Nexa Heavy';text-align:start;text-anchor:start;fill:#000000;stroke:#000000;stroke-width:0"
         x="329.45428"
         y="198.14316"
         id="text37"><tspan
           sodipodi:role="line"
           id="tspan37"
           x="329.45428"
           y="198.14316">SIERRA</tspan></text>
      <text
         xml:space="preserve"
         style="font-style:normal;font-variant:normal;font-weight:900;font-stretch:normal;font-size:32px;font-family:Nexa;-inkscape-font-specification:'Nexa Heavy';text-align:start;text-anchor:start;fill:#000000;stroke:#000000;stroke-width:0"
         x="328.0463"
         y="248.67575"
         id="text38"><tspan
           sodipodi:role="line"
           id="tspan38"
           x="328.0463"
           y="248.67575">MARMOLEJO</tspan></text>
    </g>
  </g>
</svg>
