<?xml version="1.0" encoding="UTF-8" standalone="no"?>
<!-- Created with Inkscape (http://www.inkscape.org/) -->

<svg
   width="80.697716mm"
   height="90.765266mm"
   viewBox="0 0 80.697716 90.765266"
   version="1.1"
   id="svg31112"
   inkscape:export-filename="logoTransp.png"
   inkscape:export-xdpi="300"
   inkscape:export-ydpi="300"
   sodipodi:docname="logoVacioNegro.svg"
   inkscape:version="1.2.1 (9c6d41e410, 2022-07-14)"
   xmlns:inkscape="http://www.inkscape.org/namespaces/inkscape"
   xmlns:sodipodi="http://sodipodi.sourceforge.net/DTD/sodipodi-0.dtd"
   xmlns="http://www.w3.org/2000/svg"
   xmlns:svg="http://www.w3.org/2000/svg">
  <sodipodi:namedview
     id="namedview31114"
     pagecolor="#ffffff"
     bordercolor="#000000"
     borderopacity="0.25"
     inkscape:showpageshadow="2"
     inkscape:pageopacity="0.0"
     inkscape:pagecheckerboard="0"
     inkscape:deskcolor="#d1d1d1"
     inkscape:document-units="mm"
     showgrid="false"
     inkscape:zoom="0.8409652"
     inkscape:cx="113.55999"
     inkscape:cy="191.44669"
     inkscape:window-width="958"
     inkscape:window-height="1018"
     inkscape:window-x="946"
     inkscape:window-y="0"
     inkscape:window-maximized="0"
     inkscape:current-layer="layer1" />
  <defs
     id="defs31109" />
  <g
     inkscape:label="Capa 1"
     inkscape:groupmode="layer"
     id="layer1"
     transform="translate(-75.430805,-84.240247)">
    <g
       id="g4343">
      <path
         style="fill:none;fill-opacity:1;stroke:#1a1a1a;stroke-width:1.39991;stroke-dasharray:none;stroke-opacity:1;paint-order:markers fill stroke"
         d="M 110.85225,172.55594 79.702483,155.20907 c -3.57886,-2.41123 -3.558858,-4.92689 -3.450723,-7.46104 0.124328,-12.76964 -0.217619,-24.74571 -0.09327,-37.11858 0.132662,-1.80589 -0.107474,-3.5614 4.476617,-5.96882 L 111.52305,86.413128 c 3.12002,-1.321171 3.48713,-2.43295 7.59039,-0.189839 l 32.58793,18.717111 c 2.94386,1.94294 3.72124,4.16719 3.72719,5.91656 l -0.0843,37.87132 c -0.43098,4.31443 -2.84763,5.25862 -4.69612,6.79921 l -32.33488,18.14761 c -2.91907,1.52797 -5.13665,-0.0306 -7.46104,-1.11916 z"
         id="path30998"
         sodipodi:nodetypes="ccccccccccccc" />
      <path
         style="fill:#1a1a1a;stroke:#1a1a1a;stroke-width:0.264583"
         d="m 75.704893,138.22655 c 0.212963,-0.57206 32.290197,-33.16362 32.640247,-33.16362 0.0752,0 2.70647,1.76385 5.84726,3.91959 5.53503,3.79923 5.74289,3.90631 6.76836,3.48655 5.88682,-2.40975 5.92143,-2.39869 12.76096,4.0835 8.52861,8.08289 22.14647,21.33327 22.26826,21.66734 0.0707,0.1937 -15.95131,0.32236 -40.14253,0.32236 -23.573343,0 -40.211428,-0.13083 -40.142557,-0.31572 z m 14.408626,-9.85494 c 1.061773,-0.21222 3.583385,-0.54904 5.603611,-0.74843 6.3259,-0.62428 8.10167,-1.67476 11.84886,-7.00915 2.07529,-2.95434 2.38488,-3.09338 7.86577,-3.53357 2.19581,-0.17634 4.05855,-0.38674 4.13938,-0.46754 0.16635,-0.16619 -10.44043,-8.34528 -10.89252,-8.39936 -0.16074,-0.0193 -5.06196,4.68114 -10.891602,10.4453 -5.829591,5.76416 -10.375344,10.39442 -10.101659,10.28946 0.273738,-0.10496 1.366387,-0.36449 2.42816,-0.57671 z m 40.391981,-7.89056 c -2.96429,-4.06808 -3.50327,-5.16171 -3.04231,-6.17281 0.56597,-1.24127 0.0451,-1.62862 -1.81486,-1.34985 -1.74493,0.26149 -4.05826,1.52093 -3.58854,1.95368 0.78422,0.72255 9.76145,7.77158 9.89748,7.77158 0.0843,0 -0.56902,-0.99115 -1.45177,-2.2026 z"
         id="path31000" />
      <path
         style="fill:#1a1a1a;fill-opacity:1;stroke:#1a1a1a;stroke-width:1.90262;stroke-dasharray:none;stroke-opacity:1;paint-order:markers fill stroke"
         d="m 76.60273,138.32664 h 77.96771 l -0.18653,9.5128 c -0.0495,2.52296 -1.26667,4.91617 -4.4766,7.08798 l -30.21716,16.97381 c -2.86006,1.34504 -5.7201,1.3026 -8.58017,0.18653 L 80.706285,154.92742 c -2.690389,-2.1358 -3.48435,-4.81344 -3.730519,-7.64757 z"
         id="path31002"
         sodipodi:nodetypes="ccccccccc" />
      <g
         id="g4316">
        <g
           aria-label="C"
           transform="scale(1.0000245,0.99997551)"
           id="text31006"
           style="font-size:22.326px;font-family:'League Gothic';-inkscape-font-specification:'League Gothic';fill:#ffffff;stroke-width:1.90262;paint-order:markers fill stroke">
          <path
             d="m 106.17678,144.37295 v 2.25492 c -0.0223,0.66978 -0.15628,1.27259 -0.40187,1.78608 -0.20093,0.44652 -0.5135,0.87072 -0.96002,1.20561 -0.44652,0.35721 -1.04932,0.55815 -1.85306,0.55815 -0.80373,0 -1.42886,-0.20094 -1.87538,-0.55815 -0.44652,-0.33489 -0.73676,-0.75909 -0.93769,-1.20561 -0.245588,-0.51349 -0.379544,-1.1163 -0.40187,-1.78608 v -9.66715 c 0.02233,-0.64746 0.156282,-1.25026 0.40187,-1.76376 0.20093,-0.44652 0.49117,-0.89304 0.93769,-1.22793 0.44652,-0.33489 1.07165,-0.55815 1.87538,-0.55815 0.80374,0 1.40654,0.22326 1.85306,0.55815 0.44652,0.33489 0.75909,0.78141 0.96002,1.22793 0.24559,0.5135 0.37954,1.1163 0.40187,1.76376 v 2.25492 h -2.25493 v -2.25492 c 0,-0.44652 -0.11163,-0.75909 -0.35721,-1.027 -0.11163,-0.11163 -0.31257,-0.17861 -0.55815,-0.17861 -0.4242,0 -0.62513,0.31257 -0.73676,0.6028 -0.067,0.17861 -0.0893,0.37955 -0.11163,0.60281 v 9.66715 c 0.0223,0.46885 0.15628,0.78141 0.37954,1.027 0.11163,0.11163 0.26791,0.17861 0.46885,0.17861 0.51349,0 0.71443,-0.26791 0.82606,-0.6028 0.067,-0.15629 0.0893,-0.35722 0.0893,-0.60281 v -2.25492 z"
             id="path4262" />
        </g>
        <g
           aria-label="P"
           transform="scale(1.0000245,0.99997551)"
           id="text31010"
           style="font-size:22.326px;font-family:'League Gothic';-inkscape-font-specification:'League Gothic';fill:#ffffff;stroke-width:1.90262;paint-order:markers fill stroke">
          <path
             d="m 107.02926,133.72531 h 2.41121 c 1.04932,0 2.09864,0.26791 2.90238,1.02699 0.80374,0.75909 1.33956,2.00934 1.33956,3.88473 0,1.87538 -0.53582,3.10331 -1.33956,3.8624 -0.80374,0.75908 -1.85306,1.07164 -2.90238,1.07164 v 6.56385 h -2.41121 z m 2.41121,7.3899 c 0.73676,0 1.2056,-0.13395 1.47352,-0.51349 0.26791,-0.35722 0.33489,-0.96002 0.33489,-1.87539 0,-0.91536 -0.067,-1.56282 -0.33489,-1.96469 -0.26792,-0.40186 -0.73676,-0.58047 -1.47352,-0.58047 z"
             id="path4265" />
        </g>
        <g
           aria-label="S"
           transform="scale(1.0000245,0.99997551)"
           id="text31014"
           style="font-size:22.326px;font-family:'League Gothic';-inkscape-font-specification:'League Gothic';fill:#ffffff;stroke-width:1.90262;paint-order:markers fill stroke">
          <path
             d="m 118.02755,137.89169 c 0,-0.53583 -0.0223,-1.13863 -0.17861,-1.60747 -0.15628,-0.44652 -0.40187,-0.75909 -0.78141,-0.75909 -0.62513,0.0223 -0.82606,0.66978 -0.82606,1.6298 0,0.55815 0.24558,1.13863 0.6028,1.76375 0.35722,0.62513 0.82606,1.27259 1.29491,1.96469 0.55815,0.82606 1.1163,1.67445 1.54049,2.50051 0.4242,0.82607 0.71443,1.67445 0.71443,2.56749 0,1.09398 -0.1786,2.12097 -0.6921,2.88006 -0.5135,0.75908 -1.33956,1.25025 -2.6568,1.25025 -1.54049,0 -2.4112,-0.58047 -2.90238,-1.47351 -0.49117,-0.89304 -0.6028,-2.07632 -0.6028,-3.30425 l 2.36656,-0.22326 c 0,0.69211 0.0223,1.38421 0.20093,1.89771 0.15628,0.53582 0.4242,0.89304 0.93769,0.89304 0.71444,0 0.98235,-0.75908 0.98235,-1.80841 0,-0.53582 -0.26791,-1.16095 -0.62513,-1.8084 -0.20093,-0.31257 -0.40187,-0.64746 -0.62513,-0.98235 -0.46884,-0.66978 -0.98234,-1.42886 -1.51817,-2.25492 -0.53582,-0.82606 -0.93769,-1.67445 -1.18327,-2.54517 -0.13396,-0.42419 -0.20094,-0.87071 -0.20094,-1.31723 0,-0.89304 0.20094,-1.85306 0.71443,-2.58982 0.5135,-0.71443 1.29491,-1.22793 2.43354,-1.25025 1.45119,-0.0223 2.29958,0.58047 2.76842,1.45119 0.46885,0.89304 0.6028,1.98701 0.6028,2.90238 z"
             id="path4268" />
        </g>
        <g
           aria-label="M"
           transform="scale(1.0000245,0.99997551)"
           id="text31018"
           style="font-size:22.326px;font-family:'League Gothic';-inkscape-font-specification:'League Gothic';fill:#ffffff;stroke-width:1.90262;paint-order:markers fill stroke">
          <path
             d="m 124.89362,149.83516 -1.54049,-10.31461 -0.0893,-0.69211 h -0.13395 v 11.00672 h -2.2326 v -16.40961 h 2.94703 l 1.42886,7.50154 0.11163,0.87071 h 0.0447 l 0.11163,-0.87071 1.42887,-7.50154 h 2.94703 v 16.40961 h -2.2326 v -11.00672 h -0.13396 l -0.0893,0.69211 -1.54049,10.31461 z"
             id="path4271" />
        </g>
        <path
           style="fill:#ffffff;fill-opacity:1;stroke:#ffffff;stroke-width:1.90262;stroke-dasharray:none;stroke-opacity:1;paint-order:markers fill stroke"
           d="m 97.298941,151.43735 36.391739,0.11814"
           id="path31020"
           sodipodi:nodetypes="cc" />
        <path
           style="fill:#ffffff;fill-opacity:1;stroke:#ffffff;stroke-width:1.90262;stroke-dasharray:none;stroke-opacity:1;paint-order:markers fill stroke"
           d="m 97.311562,131.43964 36.369568,0.11814"
           id="path31022"
           sodipodi:nodetypes="cc" />
        <g
           aria-label="LA PEDESTRE"
           transform="scale(1.0000245,0.99997551)"
           id="text31026"
           style="font-size:9.9227px;font-family:'League Gothic';-inkscape-font-specification:'League Gothic';fill:#ffffff;stroke-width:1.90262;paint-order:markers fill stroke">
          <path
             d="m 98.661061,152.91121 h 1.071651 v 6.30091 h 1.418948 v 0.99227 h -2.490599 z"
             id="path4274" />
          <path
             d="m 101.38981,160.20439 1.10142,-7.29318 h 1.30979 l 1.10142,7.29318 h -1.04188 l -0.19846,-1.4884 h -1.03196 l -0.19845,1.4884 z m 1.81585,-4.92166 -0.0298,-0.18853 h -0.0595 l -0.0298,0.18853 -0.30761,2.30207 h 0.73428 z"
             id="path4276" />
          <path
             d="m 106.92667,152.91121 h 1.07165 c 0.46637,0 0.93274,0.11907 1.28995,0.45644 0.35722,0.33737 0.59537,0.89304 0.59537,1.72655 0,0.83351 -0.23815,1.37926 -0.59537,1.71663 -0.35721,0.33737 -0.82358,0.47629 -1.28995,0.47629 v 2.91727 h -1.07165 z m 1.07165,3.28441 c 0.32745,0 0.53583,-0.0595 0.6549,-0.22822 0.11907,-0.15876 0.14884,-0.42668 0.14884,-0.83351 0,-0.40683 -0.0298,-0.69459 -0.14884,-0.8732 -0.11907,-0.1786 -0.32745,-0.25799 -0.6549,-0.25799 z"
             id="path4278" />
          <path
             d="m 110.41945,152.91121 h 2.45091 v 1.10142 h -1.37925 v 1.91508 h 0.99227 v 1.17088 h -0.99227 v 2.00438 h 1.37925 v 1.10142 h -2.45091 z"
             id="path4280" />
          <path
             d="m 113.46572,160.20439 v -7.29318 h 0.84343 c 0.99227,0 1.52809,0.19845 1.81585,0.75412 0.27783,0.55567 0.31753,1.46856 0.31753,2.89743 0,1.42887 -0.0397,2.33184 -0.31753,2.88751 -0.28776,0.55567 -0.82358,0.75412 -1.81585,0.75412 z m 1.07165,-1.07165 c 0.36714,0 0.57551,-0.0397 0.68466,-0.39691 0.0496,-0.16868 0.0893,-0.42667 0.0992,-0.77397 0.01,-0.34729 0.01,-0.81366 0.01,-1.40902 0,-0.59536 0,-1.06173 -0.01,-1.40903 -0.01,-0.33737 -0.0496,-0.59536 -0.0992,-0.77397 -0.10915,-0.34729 -0.31752,-0.38698 -0.68466,-0.38698 z"
             id="path4282" />
          <path
             d="m 117.15696,152.91121 h 2.4509 v 1.10142 h -1.37925 v 1.91508 h 0.99227 v 1.17088 h -0.99227 v 2.00438 h 1.37925 v 1.10142 h -2.4509 z"
             id="path4284" />
          <path
             d="m 121.97938,154.86598 c 0,-0.23815 -0.01,-0.50606 -0.0794,-0.71444 -0.0695,-0.19845 -0.17861,-0.33737 -0.34729,-0.33737 -0.27784,0.01 -0.36714,0.29768 -0.36714,0.72436 0,0.24807 0.10915,0.50606 0.26791,0.78389 0.15876,0.27784 0.36714,0.5656 0.57552,0.8732 0.24806,0.36714 0.49613,0.7442 0.68466,1.11134 0.18853,0.36714 0.31753,0.74421 0.31753,1.14111 0,0.48622 -0.0794,0.94266 -0.30761,1.28003 -0.22822,0.33737 -0.59536,0.55567 -1.1808,0.55567 -0.68466,0 -1.07165,-0.25799 -1.28995,-0.6549 -0.2183,-0.3969 -0.26791,-0.92281 -0.26791,-1.46855 l 1.05181,-0.0992 c 0,0.3076 0.01,0.61521 0.0893,0.84343 0.0695,0.23814 0.18853,0.39691 0.41675,0.39691 0.31753,0 0.4366,-0.33738 0.4366,-0.80374 0,-0.23815 -0.11907,-0.51598 -0.27783,-0.80374 -0.0893,-0.13892 -0.17861,-0.28776 -0.27784,-0.4366 -0.20838,-0.29768 -0.4366,-0.63505 -0.67474,-1.00219 -0.23815,-0.36714 -0.41676,-0.74421 -0.52591,-1.13119 -0.0595,-0.18853 -0.0893,-0.38699 -0.0893,-0.58544 0,-0.39691 0.0893,-0.82358 0.31753,-1.15103 0.22822,-0.31753 0.57551,-0.54575 1.08157,-0.55567 0.64498,-0.01 1.02204,0.25799 1.23042,0.64497 0.20837,0.39691 0.26791,0.88312 0.26791,1.28995 z"
             id="path4286" />
          <path
             d="m 123.22965,154.01263 v -1.10142 h 3.09588 v 1.10142 h -1.01212 v 6.19176 h -1.07165 v -6.19176 z"
             id="path4288" />
          <path
             d="m 128.65736,160.20439 -0.55567,-3.07604 h -0.28776 v 3.07604 h -1.07165 v -7.29318 h 1.07165 c 1.28003,0 1.82578,0.72435 1.82578,2.10361 0,0.72436 -0.18853,1.37925 -0.59536,1.65709 l 0.68466,3.53248 z m -0.84343,-4.06831 c 0.14884,0 0.3473,-0.0198 0.50606,-0.15876 0.15876,-0.13892 0.28776,-0.40683 0.28776,-0.92281 0,-0.51598 -0.129,-0.79382 -0.28776,-0.93273 -0.15876,-0.13892 -0.35722,-0.14884 -0.50606,-0.14884 z"
             id="path4290" />
          <path
             d="m 130.32438,152.91121 h 2.4509 v 1.10142 h -1.37925 v 1.91508 h 0.99227 v 1.17088 h -0.99227 v 2.00438 h 1.37925 v 1.10142 h -2.4509 z"
             id="path4292" />
        </g>
      </g>
    </g>
  </g>
</svg>
