<?xml version="1.0" encoding="UTF-8" standalone="no"?>
<!-- Created with Inkscape (http://www.inkscape.org/) -->

<svg
   width="80.697716mm"
   height="90.765282mm"
   viewBox="0 0 80.697716 90.765282"
   version="1.1"
   id="svg27657"
   inkscape:export-filename="logoNegro.png"
   inkscape:export-xdpi="96"
   inkscape:export-ydpi="96"
   inkscape:version="1.2.1 (9c6d41e410, 2022-07-14)"
   sodipodi:docname="logoNegro.svg"
   xmlns:inkscape="http://www.inkscape.org/namespaces/inkscape"
   xmlns:sodipodi="http://sodipodi.sourceforge.net/DTD/sodipodi-0.dtd"
   xmlns="http://www.w3.org/2000/svg"
   xmlns:svg="http://www.w3.org/2000/svg">
  <sodipodi:namedview
     id="namedview27659"
     pagecolor="#ffffff"
     bordercolor="#000000"
     borderopacity="0.25"
     inkscape:showpageshadow="2"
     inkscape:pageopacity="0.0"
     inkscape:pagecheckerboard="0"
     inkscape:deskcolor="#d1d1d1"
     inkscape:document-units="mm"
     showgrid="false"
     inkscape:zoom="1.6819304"
     inkscape:cx="300.54751"
     inkscape:cy="222.66082"
     inkscape:window-width="1920"
     inkscape:window-height="1027"
     inkscape:window-x="-8"
     inkscape:window-y="-8"
     inkscape:window-maximized="1"
     inkscape:current-layer="layer1" />
  <defs
     id="defs27654" />
  <g
     inkscape:label="Capa 1"
     inkscape:groupmode="layer"
     id="layer1"
     transform="translate(117.6948,-214.60654)">
    <g
       id="g3424">
      <path
         style="fill:#1a1a1a;fill-opacity:1;stroke:#f9f9f9;stroke-width:1.39991;stroke-dasharray:none;stroke-opacity:1;paint-order:markers fill stroke"
         d="m -82.273356,302.92225 -31.149764,-17.34687 c -3.57886,-2.41123 -3.55886,-4.92689 -3.45073,-7.46104 0.12433,-12.76964 -0.21762,-24.74571 -0.0933,-37.11858 0.13266,-1.80589 -0.10747,-3.5614 4.47662,-5.96882 l 30.887932,-18.24751 c 3.12002,-1.32118 3.487129,-2.43295 7.590394,-0.18984 l 32.587935,18.71712 c 2.943859,1.94295 3.721232,4.16719 3.727185,5.91656 l -0.08427,37.87132 c -0.43098,4.31443 -2.847631,5.25862 -4.696116,6.79921 l -32.334887,18.14762 c -2.919069,1.52796 -5.136648,-0.0306 -7.461039,-1.11917 z"
         id="path1724"
         sodipodi:nodetypes="ccccccccccccc" />
      <path
         style="fill:#ffffff;stroke:#ffffff;stroke-width:0.264583"
         d="m -117.42071,268.59286 c 0.21296,-0.57206 32.290198,-33.16362 32.640242,-33.16362 0.07522,0 2.706476,1.76385 5.847265,3.91959 5.535031,3.79923 5.742887,3.90631 6.768359,3.48655 5.886821,-2.40975 5.921428,-2.39869 12.76096,4.0835 8.528606,8.08289 22.146472,21.33327 22.268259,21.66734 0.07067,0.1937 -15.951305,0.32237 -40.14253,0.32237 -23.573345,0 -40.211425,-0.13084 -40.142555,-0.31573 z m 14.40863,-9.85494 c 1.06177,-0.21222 3.583379,-0.54903 5.603605,-0.74842 6.325897,-0.62429 8.101674,-1.67476 11.848862,-7.00916 2.075286,-2.95434 2.384875,-3.09338 7.865771,-3.53356 2.195804,-0.17635 4.05855,-0.38675 4.13938,-0.46755 0.166344,-0.16618 -10.440432,-8.34527 -10.892525,-8.39936 -0.160734,-0.0193 -5.061955,4.68114 -10.891599,10.4453 -5.829594,5.76416 -10.375344,10.39443 -10.101664,10.28946 0.27374,-0.10496 1.36639,-0.36449 2.42817,-0.57671 z m 40.391974,-7.89056 c -2.964286,-4.06807 -3.503268,-5.1617 -3.042311,-6.17281 0.56597,-1.24126 0.04514,-1.62861 -1.814857,-1.34985 -1.744927,0.26149 -4.058258,1.52093 -3.588543,1.95368 0.784225,0.72255 9.761458,7.77158 9.89748,7.77158 0.08427,0 -0.569013,-0.99115 -1.451769,-2.2026 z"
         id="path1726" />
      <path
         style="fill:#ffffff;fill-opacity:1;stroke:#ffffff;stroke-width:1.90262;stroke-dasharray:none;stroke-opacity:1;paint-order:markers fill stroke"
         d="m -116.52288,268.69295 h 77.967713 l -0.186531,9.5128 c -0.0495,2.52296 -1.266667,4.91617 -4.476592,7.08798 l -30.217162,16.97381 c -2.860067,1.34504 -5.720107,1.3026 -8.580173,0.18653 l -30.403695,-17.16034 c -2.69039,-2.1358 -3.48435,-4.81343 -3.73052,-7.64757 z"
         id="path1728"
         sodipodi:nodetypes="ccccccccc" />
      <g
         id="g3320">
        <g
           aria-label="C"
           transform="scale(1.0000245,0.99997551)"
           id="text1732"
           style="font-size:22.326px;font-family:'League Gothic';-inkscape-font-specification:'League Gothic';stroke-width:1.90262;paint-order:markers fill stroke">
          <path
             d="m -86.944102,274.7425 v 2.25493 c -0.02233,0.66978 -0.156282,1.27258 -0.401868,1.78608 -0.200934,0.44652 -0.513498,0.87071 -0.960018,1.2056 -0.44652,0.35722 -1.049322,0.55815 -1.853058,0.55815 -0.803736,0 -1.428864,-0.20093 -1.875384,-0.55815 -0.44652,-0.33489 -0.736758,-0.75908 -0.937692,-1.2056 -0.245586,-0.5135 -0.379542,-1.1163 -0.401868,-1.78608 v -9.66716 c 0.02233,-0.64746 0.156282,-1.25026 0.401868,-1.76376 0.200934,-0.44652 0.491172,-0.89304 0.937692,-1.22793 0.44652,-0.33489 1.071648,-0.55815 1.875384,-0.55815 0.803736,0 1.406538,0.22326 1.853058,0.55815 0.44652,0.33489 0.759084,0.78141 0.960018,1.22793 0.245586,0.5135 0.379542,1.1163 0.401868,1.76376 v 2.25492 h -2.254926 v -2.25492 c 0,-0.44652 -0.11163,-0.75909 -0.357216,-1.027 -0.11163,-0.11163 -0.312564,-0.17861 -0.55815,-0.17861 -0.424194,0 -0.625128,0.31257 -0.736758,0.60281 -0.06698,0.1786 -0.0893,0.37954 -0.11163,0.6028 v 9.66716 c 0.02233,0.46884 0.156282,0.78141 0.379542,1.02699 0.11163,0.11163 0.267912,0.17861 0.468846,0.17861 0.513498,0 0.714432,-0.26791 0.826062,-0.6028 0.06698,-0.15628 0.0893,-0.35722 0.0893,-0.6028 v -2.25493 z"
             id="path3322" />
        </g>
        <g
           aria-label="P"
           transform="scale(1.0000245,0.99997551)"
           id="text1736"
           style="font-size:22.326px;font-family:'League Gothic';-inkscape-font-specification:'League Gothic';stroke-width:1.90262;paint-order:markers fill stroke">
          <path
             d="m -86.091625,264.09485 h 2.411208 c 1.049322,0 2.098644,0.26791 2.90238,1.02699 0.803736,0.75909 1.33956,2.00934 1.33956,3.88473 0,1.87538 -0.535824,3.10331 -1.33956,3.86239 -0.803736,0.75909 -1.853058,1.07165 -2.90238,1.07165 v 6.56385 h -2.411208 z m 2.411208,7.3899 c 0.736758,0 1.205604,-0.13395 1.473516,-0.5135 0.267912,-0.35721 0.33489,-0.96001 0.33489,-1.87538 0,-0.91537 -0.06698,-1.56282 -0.33489,-1.96469 -0.267912,-0.40187 -0.736758,-0.58047 -1.473516,-0.58047 z"
             id="path3325" />
        </g>
        <g
           aria-label="S"
           transform="scale(1.0000245,0.99997551)"
           id="text1740"
           style="font-size:22.326px;font-family:'League Gothic';-inkscape-font-specification:'League Gothic';stroke-width:1.90262;paint-order:markers fill stroke">
          <path
             d="m -75.093341,268.26119 c 0,-0.53582 -0.02233,-1.13862 -0.178608,-1.60747 -0.156282,-0.44652 -0.401868,-0.75908 -0.78141,-0.75908 -0.625128,0.0223 -0.826062,0.66978 -0.826062,1.6298 0,0.55815 0.245586,1.13862 0.602802,1.76375 0.357216,0.62513 0.826062,1.27258 1.294908,1.96469 0.55815,0.82606 1.1163,1.67445 1.540494,2.50051 0.424194,0.82606 0.714432,1.67445 0.714432,2.56749 0,1.09397 -0.178608,2.12097 -0.692106,2.88005 -0.513498,0.75909 -1.33956,1.25026 -2.656794,1.25026 -1.540494,0 -2.411208,-0.58047 -2.90238,-1.47352 -0.491172,-0.89304 -0.602802,-2.07631 -0.602802,-3.30424 l 2.366556,-0.22326 c 0,0.6921 0.02233,1.38421 0.200934,1.89771 0.156282,0.53582 0.424194,0.89304 0.937692,0.89304 0.714432,0 0.982344,-0.75909 0.982344,-1.80841 0,-0.53582 -0.267912,-1.16095 -0.625128,-1.80841 -0.200934,-0.31256 -0.401868,-0.64745 -0.625128,-0.98234 -0.468846,-0.66978 -0.982344,-1.42886 -1.518168,-2.25493 -0.535824,-0.82606 -0.937692,-1.67445 -1.183278,-2.54516 -0.133956,-0.42419 -0.200934,-0.87071 -0.200934,-1.31723 0,-0.89304 0.200934,-1.85306 0.714432,-2.58982 0.513498,-0.71443 1.294908,-1.22793 2.433534,-1.25026 1.45119,-0.0223 2.299578,0.58048 2.768424,1.45119 0.468846,0.89304 0.602802,1.98702 0.602802,2.90238 z"
             id="path3328" />
        </g>
        <g
           aria-label="M"
           transform="scale(1.0000245,0.99997551)"
           id="text1744"
           style="font-size:22.326px;font-family:'League Gothic';-inkscape-font-specification:'League Gothic';stroke-width:1.90262;paint-order:markers fill stroke">
          <path
             d="m -68.227244,280.20465 -1.540494,-10.31461 -0.0893,-0.69211 h -0.133956 v 11.00672 h -2.2326 v -16.40961 h 2.947032 l 1.428864,7.50154 0.11163,0.87071 h 0.04465 l 0.11163,-0.87071 1.428864,-7.50154 h 2.947032 v 16.40961 h -2.2326 v -11.00672 h -0.133956 l -0.0893,0.69211 -1.540494,10.31461 z"
             id="path3331" />
        </g>
        <g
           id="path1746">
          <path
             style="color:#000000;stroke-width:1.90262;-inkscape-stroke:none;paint-order:markers fill stroke"
             d="m -95.826663,281.80366 36.391744,0.11814"
             id="path3365" />
          <path
             style="color:#000000;-inkscape-stroke:none;paint-order:markers fill stroke"
             d="m -95.824219,280.85156 -0.0059,1.9043 36.392578,0.11719 0.0059,-1.90235 z"
             id="path3367" />
        </g>
        <g
           id="path1748">
          <path
             style="color:#000000;stroke-width:1.90262;-inkscape-stroke:none;paint-order:markers fill stroke"
             d="m -95.814043,261.80595 36.369572,0.11814"
             id="path3371" />
          <path
             style="color:#000000;-inkscape-stroke:none;paint-order:markers fill stroke"
             d="m -95.810547,260.85547 -0.0059,1.90234 36.36914,0.11719 0.0059,-1.90234 z"
             id="path3373" />
        </g>
        <g
           aria-label="LA PEDESTRE"
           transform="scale(1.0000245,0.99997551)"
           id="text1752"
           style="font-size:9.9227px;font-family:'League Gothic';-inkscape-font-specification:'League Gothic';stroke-width:1.90262;paint-order:markers fill stroke">
          <path
             d="m -94.45982,283.2807 h 1.071652 v 6.30091 h 1.418946 v 0.99227 h -2.490598 z"
             id="path3334" />
          <path
             d="m -91.731074,290.57388 1.10142,-7.29318 h 1.309796 l 1.10142,7.29318 h -1.041884 l -0.198454,-1.4884 h -1.031961 l -0.198454,1.4884 z m 1.815854,-4.92166 -0.02977,-0.18853 h -0.05954 l -0.02977,0.18853 -0.307604,2.30207 h 0.73428 z"
             id="path3336" />
          <path
             d="m -86.194209,283.2807 h 1.071652 c 0.466367,0 0.932733,0.11907 1.289951,0.45644 0.357217,0.33737 0.595362,0.89305 0.595362,1.72655 0,0.83351 -0.238145,1.37926 -0.595362,1.71663 -0.357218,0.33737 -0.823584,0.47629 -1.289951,0.47629 v 2.91727 h -1.071652 z m 1.071652,3.28441 c 0.327449,0 0.535825,-0.0595 0.654898,-0.22822 0.119072,-0.15876 0.14884,-0.42668 0.14884,-0.83351 0,-0.40683 -0.02977,-0.69459 -0.14884,-0.87319 -0.119073,-0.17861 -0.327449,-0.25799 -0.654898,-0.25799 z"
             id="path3338" />
          <path
             d="m -82.701425,283.2807 h 2.450907 v 1.10142 h -1.379256 v 1.91508 h 0.99227 v 1.17088 h -0.99227 v 2.00438 h 1.379256 v 1.10142 h -2.450907 z"
             id="path3340" />
          <path
             d="m -79.655165,290.57388 v -7.29318 h 0.84343 c 0.99227,0 1.528096,0.19845 1.815854,0.75412 0.277836,0.55567 0.317526,1.46856 0.317526,2.89743 0,1.42887 -0.03969,2.33184 -0.317526,2.88751 -0.287758,0.55567 -0.823584,0.75412 -1.815854,0.75412 z m 1.071652,-1.07165 c 0.36714,0 0.575517,-0.0397 0.684666,-0.39691 0.04961,-0.16868 0.08931,-0.42667 0.09923,-0.77397 0.0099,-0.34729 0.0099,-0.81366 0.0099,-1.40902 0,-0.59536 0,-1.06173 -0.0099,-1.40902 -0.0099,-0.33738 -0.04961,-0.59537 -0.09923,-0.77397 -0.109149,-0.3473 -0.317526,-0.38699 -0.684666,-0.38699 z"
             id="path3342" />
          <path
             d="m -75.963922,283.2807 h 2.450907 v 1.10142 h -1.379256 v 1.91508 h 0.99227 v 1.17088 h -0.99227 v 2.00438 h 1.379256 v 1.10142 h -2.450907 z"
             id="path3344" />
          <path
             d="m -71.141498,285.23547 c 0,-0.23814 -0.0099,-0.50606 -0.07938,-0.71443 -0.06946,-0.19846 -0.178608,-0.33738 -0.347294,-0.33738 -0.277836,0.01 -0.36714,0.29769 -0.36714,0.72436 0,0.24807 0.10915,0.50606 0.267913,0.78389 0.158763,0.27784 0.36714,0.5656 0.575516,0.8732 0.248068,0.36714 0.496135,0.7442 0.684667,1.11134 0.188531,0.36714 0.317526,0.74421 0.317526,1.14112 0,0.48621 -0.07938,0.94265 -0.307604,1.28002 -0.228222,0.33738 -0.595362,0.55567 -1.180801,0.55567 -0.684666,0 -1.071652,-0.25799 -1.289951,-0.65489 -0.218299,-0.39691 -0.267913,-0.92281 -0.267913,-1.46856 l 1.051806,-0.0992 c 0,0.3076 0.0099,0.61521 0.0893,0.84343 0.06946,0.23814 0.188531,0.39691 0.416753,0.39691 0.317526,0 0.436599,-0.33737 0.436599,-0.80374 0,-0.23815 -0.119073,-0.51598 -0.277836,-0.80374 -0.0893,-0.13892 -0.178608,-0.28776 -0.277835,-0.4366 -0.208377,-0.29768 -0.436599,-0.63505 -0.674744,-1.00219 -0.238145,-0.36714 -0.416753,-0.7442 -0.525903,-1.13119 -0.05954,-0.18853 -0.0893,-0.38698 -0.0893,-0.58544 0,-0.39691 0.0893,-0.82358 0.317526,-1.15103 0.228222,-0.31753 0.575517,-0.54575 1.081574,-0.55567 0.644976,-0.01 1.022038,0.25799 1.230415,0.64497 0.208377,0.39691 0.267913,0.88312 0.267913,1.28995 z"
             id="path3346" />
          <path
             d="m -69.891234,284.38212 v -1.10142 h 3.095882 v 1.10142 h -1.012115 v 6.19176 h -1.071652 v -6.19176 z"
             id="path3348" />
          <path
             d="m -64.463518,290.57388 -0.555671,-3.07603 h -0.287758 v 3.07603 h -1.071652 v -7.29318 h 1.071652 c 1.280028,0 1.825776,0.72436 1.825776,2.10361 0,0.72436 -0.188531,1.37926 -0.595362,1.65709 l 0.684667,3.53248 z m -0.843429,-4.0683 c 0.14884,0 0.347294,-0.0199 0.506057,-0.15877 0.158764,-0.13891 0.287759,-0.40683 0.287759,-0.92281 0,-0.51598 -0.128995,-0.79381 -0.287759,-0.93273 -0.158763,-0.13892 -0.357217,-0.14884 -0.506057,-0.14884 z"
             id="path3350" />
          <path
             d="m -62.796503,283.2807 h 2.450907 v 1.10142 h -1.379255 v 1.91508 h 0.99227 v 1.17088 h -0.99227 v 2.00438 h 1.379255 v 1.10142 h -2.450907 z"
             id="path3352" />
        </g>
      </g>
    </g>
  </g>
</svg>
