<?xml version="1.0" encoding="UTF-8" standalone="no"?>
<!-- Created with Inkscape (http://www.inkscape.org/) -->

<svg
   width="80.697716mm"
   height="90.765266mm"
   viewBox="0 0 80.697716 90.765266"
   version="1.1"
   id="svg31112"
   inkscape:export-filename="logoTransp.png"
   inkscape:export-xdpi="300"
   inkscape:export-ydpi="300"
   sodipodi:docname="logoVacioNegro.svg"
   inkscape:version="1.2.1 (9c6d41e410, 2022-07-14)"
   xmlns:inkscape="http://www.inkscape.org/namespaces/inkscape"
   xmlns:sodipodi="http://sodipodi.sourceforge.net/DTD/sodipodi-0.dtd"
   xmlns="http://www.w3.org/2000/svg"
   xmlns:svg="http://www.w3.org/2000/svg">
  <sodipodi:namedview
     id="namedview31114"
     pagecolor="#ffffff"
     bordercolor="#000000"
     borderopacity="0.25"
     inkscape:showpageshadow="2"
     inkscape:pageopacity="0.0"
     inkscape:pagecheckerboard="0"
     inkscape:deskcolor="#d1d1d1"
     inkscape:document-units="mm"
     showgrid="false"
     inkscape:zoom="0.2102413"
     inkscape:cx="-95.128787"
     inkscape:cy="-133.1803"
     inkscape:window-width="958"
     inkscape:window-height="1018"
     inkscape:window-x="953"
     inkscape:window-y="0"
     inkscape:window-maximized="0"
     inkscape:current-layer="layer1" />
  <defs
     id="defs31109" />
  <g
     inkscape:label="Capa 1"
     inkscape:groupmode="layer"
     id="layer1"
     transform="translate(-75.430805,-84.240247)">
    <g
       id="g31107"
       transform="matrix(0.26458333,0,0,0.26458333,-287.74992,75.664061)">
      <path
         style="fill:none;fill-opacity:1;stroke:#1a1a1a;stroke-width:5.291;stroke-dasharray:none;stroke-opacity:1;paint-order:markers fill stroke"
         d="m 1506.5279,366.20554 -117.7314,-65.563 c -13.5264,-9.1133 -13.4508,-18.6213 -13.0421,-28.1992 0.4699,-48.2632 -0.8225,-93.5271 -0.3525,-140.2907 0.5014,-6.8254 -0.4062,-13.4604 16.9195,-22.5593 l 116.7418,-68.966946 c 11.7922,-4.9934 13.1797,-9.1954 28.6881,-0.7175 l 123.167,70.741846 c 11.1264,7.3434 14.0645,15.75 14.087,22.3618 l -0.3185,143.1357 c -1.6289,16.3065 -10.7627,19.8751 -17.7491,25.6978 l -122.2106,68.5894 c -11.0327,5.775 -19.4141,-0.1157 -28.1992,-4.2299 z"
         id="path30998"
         sodipodi:nodetypes="ccccccccccccc" />
      <path
         style="fill:#1a1a1a;stroke:#1a1a1a;stroke-width:1"
         d="m 1373.6875,236.45664 c 0.8049,-2.1621 122.0417,-125.3428 123.3647,-125.3428 0.2843,0 10.2292,6.6665 22.0999,14.8142 20.9198,14.3593 21.7054,14.764 25.5812,13.1775 22.2494,-9.1077 22.3802,-9.0659 48.2304,15.4337 32.2341,30.5495 83.7032,80.6297 84.1635,81.8923 0.2671,0.7321 -60.2884,1.2184 -151.7198,1.2184 -89.0961,0 -151.9802,-0.4945 -151.7199,-1.1933 z m 54.4578,-37.247 c 4.013,-0.8021 13.5435,-2.0751 21.179,-2.8287 23.9089,-2.3595 30.6205,-6.3298 44.7831,-26.4913 7.8436,-11.166 9.0137,-11.6915 29.7289,-13.3552 8.2991,-0.6665 15.3394,-1.4617 15.6449,-1.7671 0.6287,-0.6281 -39.4599,-31.5412 -41.1686,-31.7456 -0.6075,-0.073 -19.1318,17.6925 -41.1651,39.4783 -22.0331,21.7858 -39.2139,39.286 -38.1795,38.8893 1.0346,-0.3967 5.1643,-1.3776 9.1773,-2.1797 z m 152.6626,-29.8226 c -11.2036,-15.3754 -13.2407,-19.5088 -11.4985,-23.3303 2.1391,-4.6914 0.1706,-6.1554 -6.8593,-5.1018 -6.595,0.9883 -15.3383,5.7484 -13.563,7.384 2.964,2.7309 36.8937,29.3729 37.4078,29.3729 0.3185,0 -2.1506,-3.7461 -5.487,-8.3248 z"
         id="path31000" />
      <path
         style="fill:#1a1a1a;fill-opacity:1;stroke:#1a1a1a;stroke-width:7.191;stroke-dasharray:none;stroke-opacity:1;paint-order:markers fill stroke"
         d="m 1377.0809,236.83494 h 294.6811 l -0.705,35.9539 c -0.1871,9.5356 -4.7874,18.5808 -16.9194,26.7892 l -114.2066,64.153 c -10.8097,5.0836 -21.6193,4.9232 -32.429,0.705 l -114.9116,-64.858 c -10.1684,-8.0723 -13.1692,-18.1925 -14.0996,-28.9042 z"
         id="path31002"
         sodipodi:nodetypes="ccccccccc" />
      <text
         xml:space="preserve"
         style="font-size:84.3819px;font-family:'League Gothic';-inkscape-font-specification:'League Gothic';fill:#ffffff;fill-opacity:1;stroke:none;stroke-width:7.19101;stroke-dasharray:none;stroke-opacity:1;paint-order:markers fill stroke"
         x="1461.7437"
         y="280.94434"
         id="text31006"
         transform="scale(1.0000245,0.99997551)"><tspan
           sodipodi:role="line"
           id="tspan31004"
           x="1461.7437"
           y="280.94434"
           style="fill:#ffffff;stroke-width:7.19101">C</tspan></text>
      <text
         xml:space="preserve"
         style="font-size:84.3819px;font-family:'League Gothic';-inkscape-font-specification:'League Gothic';fill:#ffffff;fill-opacity:1;stroke:none;stroke-width:7.19101;stroke-dasharray:none;stroke-opacity:1;paint-order:markers fill stroke"
         x="1488.6769"
         y="281.45764"
         id="text31010"
         transform="scale(1.0000245,0.99997551)"><tspan
           sodipodi:role="line"
           id="tspan31008"
           x="1488.6769"
           y="281.45764"
           style="fill:#ffffff;stroke-width:7.19101">P</tspan></text>
      <text
         xml:space="preserve"
         style="font-size:84.3819px;font-family:'League Gothic';-inkscape-font-specification:'League Gothic';fill:#ffffff;fill-opacity:1;stroke:none;stroke-width:7.19101;stroke-dasharray:none;stroke-opacity:1;paint-order:markers fill stroke"
         x="1515.1409"
         y="280.58142"
         id="text31014"
         transform="scale(1.0000245,0.99997551)"><tspan
           sodipodi:role="line"
           id="tspan31012"
           x="1515.1409"
           y="280.58142"
           style="fill:#ffffff;stroke-width:7.19101">S</tspan></text>
      <text
         xml:space="preserve"
         style="font-size:84.3819px;font-family:'League Gothic';-inkscape-font-specification:'League Gothic';fill:#ffffff;fill-opacity:1;stroke:none;stroke-width:7.19101;stroke-dasharray:none;stroke-opacity:1;paint-order:markers fill stroke"
         x="1541.0914"
         y="280.32471"
         id="text31018"
         transform="scale(1.0000245,0.99997551)"><tspan
           sodipodi:role="line"
           id="tspan31016"
           x="1541.0914"
           y="280.32471"
           style="fill:#ffffff;stroke-width:7.19101">M</tspan></text>
      <path
         style="fill:#ffffff;fill-opacity:1;stroke:#ffffff;stroke-width:7.19101;stroke-dasharray:none;stroke-opacity:1;paint-order:markers fill stroke"
         d="m 1455.3028,286.38724 137.5436,0.4465"
         id="path31020"
         sodipodi:nodetypes="cc" />
      <path
         style="fill:#ffffff;fill-opacity:1;stroke:#ffffff;stroke-width:7.19101;stroke-dasharray:none;stroke-opacity:1;paint-order:markers fill stroke"
         d="m 1455.3505,210.80534 137.4598,0.4465"
         id="path31022"
         sodipodi:nodetypes="cc" />
      <text
         xml:space="preserve"
         style="font-size:37.5031px;font-family:'League Gothic';-inkscape-font-specification:'League Gothic';fill:#ffffff;fill-opacity:1;stroke:none;stroke-width:7.19101;stroke-dasharray:none;stroke-opacity:1;paint-order:markers fill stroke"
         x="1458.9242"
         y="319.5155"
         id="text31026"
         transform="scale(1.0000245,0.99997551)"><tspan
           sodipodi:role="line"
           id="tspan31024"
           x="1458.9242"
           y="319.5155"
           style="fill:#ffffff;stroke-width:7.19101">LA PEDESTRE</tspan></text>
    </g>
  </g>
</svg>
