<?xml version="1.0" encoding="UTF-8" standalone="no"?>
<!-- Created with Inkscape (http://www.inkscape.org/) -->

<svg
   width="87.801186mm"
   height="76.167969mm"
   viewBox="0 0 87.801186 76.167969"
   version="1.1"
   id="svg1"
   inkscape:version="1.3 (0e150ed6c4, 2023-07-21)"
   sodipodi:docname="trofeoVctr.svg"
   xmlns:inkscape="http://www.inkscape.org/namespaces/inkscape"
   xmlns:sodipodi="http://sodipodi.sourceforge.net/DTD/sodipodi-0.dtd"
   xmlns="http://www.w3.org/2000/svg"
   xmlns:svg="http://www.w3.org/2000/svg">
  <sodipodi:namedview
     id="namedview1"
     pagecolor="#ffffff"
     bordercolor="#000000"
     borderopacity="0.25"
     inkscape:showpageshadow="2"
     inkscape:pageopacity="0.0"
     inkscape:pagecheckerboard="0"
     inkscape:deskcolor="#d1d1d1"
     inkscape:document-units="mm"
     inkscape:zoom="0.69219276"
     inkscape:cx="266.54425"
     inkscape:cy="194.31004"
     inkscape:window-width="1920"
     inkscape:window-height="991"
     inkscape:window-x="-9"
     inkscape:window-y="-9"
     inkscape:window-maximized="1"
     inkscape:current-layer="layer1" />
  <defs
     id="defs1" />
  <g
     inkscape:label="Capa 1"
     inkscape:groupmode="layer"
     id="layer1"
     transform="translate(-34.395827,-97.102085)">
    <path
       style="fill:#0000ff;stroke-width:0.806243"
       d="m 77.99249,173.20163 c -0.49361,-0.1069 -1.00046,-0.28901 -1.61358,-0.57977 -0.27923,-0.13229 -0.531,-0.24074 -0.55949,-0.24074 -0.0264,0 -1.10864,-0.60588 -2.40034,-1.3464 -1.29169,-0.74044 -6.11226,-3.50353 -10.71238,-6.14003 -4.60012,-2.6365 -8.50732,-4.90052 -8.68278,-5.03113 -0.50701,-0.3772 -1.22789,-1.12374 -1.53871,-1.59337 -0.64059,-0.96805 -0.89575,-1.86178 -0.90507,-3.17299 0,-0.87647 0.0513,-4.47229 0.083,-5.06846 l 0.0226,-0.46076 h 27.48359 27.4836 l -0.0264,2.73391 c -0.0302,2.89942 -0.0543,3.42662 -0.19131,4.05345 -0.3132,1.44569 -1.00861,2.56491 -2.16435,3.483 -1.25623,0.99802 -0.70062,0.68126 -12.14604,6.92611 -5.87943,3.2078 -10.89267,5.93065 -11.14033,6.05061 -0.7059,0.34176 -1.08811,0.43118 -1.92499,0.45037 -0.57961,0.0132 -0.75813,0 -1.06488,-0.0638 z m 2.39592,-4.85488 c 0,-0.0963 -0.46791,-0.73078 -0.78963,-1.07027 -0.18302,-0.19312 -0.17434,-0.25372 0.0604,-0.43272 0.22264,-0.16984 0.28112,-0.17116 0.67602,-0.0159 0.5659,0.22116 0.96185,0.28999 1.67074,0.29074 0.63862,6.7e-4 0.79722,-0.0332 0.89559,-0.19154 0.0619,-0.10052 -0.0468,-0.20267 -0.41844,-0.39423 -0.44229,-0.22754 -0.80775,-0.34632 -1.08102,-0.35127 -0.1283,0 -0.2298,-0.0211 -0.22263,-0.0437 0.0151,-0.0516 0.75507,-0.30765 0.88846,-0.30829 0.0619,-3.4e-4 0.18641,0.0685 0.3064,0.16747 0.39248,0.32418 1.0462,0.57001 1.51169,0.56839 0.40278,0 1.0877,-0.19682 1.31419,-0.37508 0.0906,-0.0709 0.0996,-0.095 0.0543,-0.14022 -0.0785,-0.0788 -0.85632,-0.32509 -1.3614,-0.43112 -0.23961,-0.05 -0.42127,-0.10369 -0.40379,-0.11878 0.0151,-0.0159 0.25923,-0.0701 0.53719,-0.12276 0.48379,-0.091 0.51047,-0.0921 0.61447,-0.0238 0.55047,0.35943 1.24068,0.35184 1.96937,-0.0211 0.33244,-0.17037 0.73998,-0.49433 0.73998,-0.58802 0,-0.16826 -0.61353,-0.1775 -1.2354,-0.0185 -0.18188,0.0468 -0.34037,0.0741 -0.35282,0.0622 -0.0302,-0.0298 -0.0453,-0.0211 0.41361,-0.26629 0.38841,-0.20822 0.41769,-0.21694 0.84745,-0.25135 0.50157,-0.0402 0.73756,-0.11589 1.08721,-0.34788 0.29622,-0.19682 0.88518,-0.76917 0.97706,-0.94966 0.0634,-0.12539 0.0634,-0.13546 0,-0.16059 -0.10716,-0.041 -0.44123,0.0937 -0.90767,0.36564 -0.23207,0.13521 -0.43244,0.2352 -0.44542,0.22196 -0.0151,-0.0132 -0.10867,0.0444 -0.21093,0.12803 -0.10264,0.0836 -0.17585,0.13362 -0.16151,0.11113 0.0151,-0.0211 0.11019,-0.16958 0.2132,-0.32659 0.27131,-0.41169 0.5301,-1.12739 0.40757,-1.12739 -0.0649,0 -0.43987,0.31278 -0.67631,0.56336 -0.50535,0.53572 -0.80205,0.97672 -0.95231,1.41527 l -0.086,0.2532 -0.43002,0.21508 c -0.2366,0.11826 -0.44546,0.21509 -0.46463,0.21509 -0.0189,1.6e-4 0.0936,-0.13652 0.24943,-0.30403 0.29961,-0.32067 0.58398,-0.80036 0.58398,-0.98442 0,-0.12513 -0.0151,-0.12381 -0.4281,0.0481 -0.39942,0.16615 -0.80805,0.41407 -1.01933,0.61829 -0.24792,0.23942 -0.50655,0.61316 -0.58594,0.846 -0.077,0.22807 -0.12075,0.24418 -1.0691,0.40634 -0.2049,0.0347 -0.15811,-0.0238 0.14037,-0.17803 0.14943,-0.0783 0.36678,-0.2352 0.48123,-0.3495 0.20679,-0.20743 0.49901,-0.72507 0.45206,-0.8011 -0.0377,-0.0587 -0.24452,-0.0468 -0.66315,0.0394 -0.8025,0.16562 -1.30075,0.53916 -1.60889,1.20628 -0.17396,0.37637 -0.14188,0.35188 -0.7139,0.5344 -0.32452,0.10343 -0.33697,0.0799 -0.0936,-0.17698 0.37206,-0.38992 0.87537,-1.21888 0.79114,-1.30298 -0.0528,-0.0532 -0.56085,0.0863 -0.87491,0.24021 -0.7184,0.35199 -1.3306,1.12422 -1.46052,1.8426 -0.0574,0.31546 -0.29924,0.4601 -0.4678,0.27927 -0.0423,-0.0458 -0.11924,-0.22543 -0.16868,-0.39934 -0.21886,-0.75763 -0.72971,-1.37013 -1.43878,-1.72544 -0.29622,-0.14867 -0.83114,-0.28889 -0.88729,-0.23282 -0.074,0.0733 0.44802,0.9196 0.79993,1.29973 0.12226,0.13177 0.20188,0.23996 0.17736,0.23996 -0.0264,0 -0.22188,-0.0563 -0.43776,-0.12592 -0.37207,-0.11932 -0.3961,-0.13389 -0.45376,-0.27645 -0.30792,-0.76375 -0.72372,-1.14408 -1.47984,-1.35354 -0.3649,-0.10106 -0.84835,-0.154 -0.88379,-0.0968 -0.0468,0.0749 0.2566,0.60807 0.46067,0.81229 0.11018,0.11034 0.32225,0.26509 0.47081,0.34395 0.27396,0.14524 0.34641,0.22169 0.17887,0.18784 -0.0513,-0.0106 -0.26754,-0.05 -0.48139,-0.0884 -0.21395,-0.0386 -0.42126,-0.0863 -0.46081,-0.10663 -0.0392,-0.0211 -0.13736,-0.17487 -0.21735,-0.34346 -0.18037,-0.38015 -0.54293,-0.77886 -0.95141,-1.04644 -0.31961,-0.20927 -0.92635,-0.46577 -0.99759,-0.42174 -0.12528,0.0783 0.12075,0.55117 0.5398,1.03643 0.1581,0.18256 0.27697,0.33192 0.26489,0.33192 -0.0528,0 -0.82812,-0.40796 -0.86974,-0.45804 -0.0264,-0.0306 -0.0891,-0.17619 -0.14339,-0.32328 -0.13283,-0.36708 -0.43324,-0.8015 -0.86918,-1.2584 -0.43082,-0.45148 -0.70621,-0.66089 -0.743,-0.56485 -0.0513,0.13362 0.28376,0.91669 0.52119,1.2179 0.16528,0.2098 0.14641,0.22807 -0.0604,0.059 -0.0981,-0.0799 -0.18868,-0.13468 -0.20226,-0.1209 -0.0151,0.0132 -0.13132,-0.0402 -0.26226,-0.11958 -0.29961,-0.18151 -1.1346,-0.60186 -1.19555,-0.60186 -0.083,0 -0.0498,0.0614 0.18528,0.35036 0.3415,0.42063 0.53946,0.62181 0.81182,0.82507 0.39595,0.29554 0.60855,0.36995 1.19827,0.41924 0.3958,0.0332 0.44063,0.0468 0.81922,0.24791 0.43625,0.23177 0.5461,0.31135 0.37995,0.27509 -0.81047,-0.17698 -0.94593,-0.19815 -1.17804,-0.18415 -0.16867,0.0106 -0.27999,0.0394 -0.32527,0.0849 -0.0634,0.0643 -0.0574,0.0799 0.11433,0.24392 0.44863,0.42561 1.0554,0.66665 1.67486,0.66554 0.33923,-6.6e-4 0.41783,-0.0159 0.61428,-0.11166 0.12377,-0.0614 0.25546,-0.13309 0.2932,-0.16033 0.0528,-0.0394 0.17018,-0.0298 0.57341,0.0452 0.27811,0.0526 0.52059,0.10796 0.53886,0.1246 0.0189,0.0159 -0.083,0.0516 -0.22528,0.0788 -0.70349,0.13362 -1.61282,0.44577 -1.58052,0.54252 0.0226,0.0759 0.61251,0.31074 0.95186,0.38087 0.37735,0.0783 0.57768,0.0783 0.93695,0 0.37244,-0.0788 0.65791,-0.21456 0.99382,-0.47183 0.32376,-0.24841 0.35169,-0.24924 0.94654,-0.0313 l 0.35998,0.13151 -0.25961,0.0298 c -0.61866,0.0709 -1.61595,0.54714 -1.55271,0.74136 0.0574,0.17381 0.7599,0.2692 1.47079,0.19973 0.47108,-0.0458 0.61926,-0.0844 1.27162,-0.3278 0.17207,-0.0643 0.25961,-0.0775 0.3332,-0.0492 0.13433,0.0508 0.39564,0.28403 0.39564,0.35233 0,0.0298 -0.12829,0.19445 -0.28753,0.36482 -0.47939,0.5172 -0.71134,0.95715 -0.52482,0.99596 0.0483,0.0106 0.16679,-0.13072 0.40259,-0.47916 0.36263,-0.53503 0.51682,-0.68128 0.67617,-0.6413 0.0981,0.0238 0.39459,0.38523 0.75164,0.91455 0.1566,0.2315 0.17961,0.25082 0.25282,0.20505 0.0453,-0.0272 0.0815,-0.0693 0.0815,-0.0921 z M 70.2285,162.39644 c -0.13131,-0.39753 -0.5713,-1.37769 -0.7596,-1.68803 -0.089,-0.1463 -0.18829,-0.26622 -0.22188,-0.26622 -0.14037,0 -0.0785,0.59631 0.1117,1.07597 0.0574,0.14233 0.0936,0.26878 0.0815,0.28112 -0.0151,0.0132 -0.0725,-0.0532 -0.13434,-0.14577 -0.0619,-0.0926 -0.12075,-0.15928 -0.13283,-0.14788 -0.0151,0.0132 -0.18905,-0.14022 -0.39504,-0.33705 -0.38689,-0.36927 -0.82314,-0.6975 -0.86767,-0.65289 -0.034,0.0332 0.18037,0.41116 0.48451,0.85645 0.39025,0.57149 1.01525,1.11022 1.41181,1.21705 0.0906,0.0238 0.23773,0.10158 0.32527,0.17143 l 0.15811,0.12671 0.0151,-0.10796 c 0,-0.0598 -0.0264,-0.23176 -0.077,-0.38295 z m 18.16974,0.33935 c 0.10263,-0.0788 0.22603,-0.14339 0.27244,-0.14339 0.24565,0 0.83492,-0.46817 1.25804,-1.00008 0.40712,-0.5117 0.68416,-1.04779 0.54141,-1.04779 -0.0709,0 -0.40259,0.26905 -0.77231,0.62671 -0.20943,0.20237 -0.38071,0.3527 -0.38071,0.33368 0,-0.0185 -0.0573,0.0434 -0.12679,0.13917 -0.0709,0.0958 -0.13584,0.16641 -0.1449,0.15716 -0.0151,-0.008 0.0226,-0.10663 0.0694,-0.21667 0.12075,-0.28218 0.2015,-0.65223 0.20225,-0.92765 9.1e-4,-0.29931 -0.0589,-0.30493 -0.24188,-0.0238 -0.38976,0.59556 -1.03936,2.24528 -0.88408,2.24528 0.0151,0 0.10566,-0.0646 0.20792,-0.14339 z m -2.32623,-0.64017 c 0.20754,-0.10026 0.43232,-0.38343 0.50021,-0.6295 0.0302,-0.11192 0.0408,-0.75732 0.034,-2.02859 l -0.0151,-1.8647 -0.10566,-0.2032 c -0.20943,-0.40701 -0.65202,-0.60911 -1.12057,-0.51189 -0.20037,0.0421 -0.2732,0.0834 -0.45538,0.2606 -0.35244,0.34316 -0.35282,0.34652 -0.33848,2.49131 0.0151,2.00455 0,1.95029 0.28301,2.2652 0.19244,0.21879 0.40515,0.306 0.75039,0.30713 0.20754,6.3e-4 0.33244,-0.0211 0.46432,-0.0863 z m -0.62927,-0.73618 c -0.074,-0.0812 -0.0785,-0.18045 -0.0906,-1.73044 0,-0.90436 0,-1.70359 0.0151,-1.77608 0.0468,-0.25188 0.28075,-0.34757 0.40773,-0.16615 0.0543,0.0788 0.0634,0.32275 0.0634,1.83397 0,1.51123 0,1.75505 -0.0634,1.83396 -0.0815,0.11457 -0.22792,0.11668 -0.32905,0.008 z m -13.2049,-0.26007 v -1.04257 l 0.15282,-0.0238 c 0.47897,-0.0775 0.86405,-0.3824 1.03578,-0.81962 0.083,-0.21033 0.0966,-0.31595 0.0966,-0.75642 0,-0.43037 -0.0151,-0.54823 -0.089,-0.73941 -0.11472,-0.29395 -0.25547,-0.4806 -0.46508,-0.62127 -0.24377,-0.16377 -0.40259,-0.19524 -0.98658,-0.19551 l -0.52209,-2.6e-4 v 2.62129 2.62123 h 0.38916 0.38889 z m 0,-2.64358 c 0,-0.85542 0,-0.84561 0.24716,-0.7161 0.16679,0.0863 0.24792,0.26621 0.27357,0.61025 0.0302,0.40076 -0.0634,0.7348 -0.2332,0.82203 -0.0649,0.034 -0.1581,0.0622 -0.20414,0.0622 -0.0815,0 -0.0845,-0.0211 -0.0845,-0.7782 z m 2.33453,3.65544 c -1.2e-4,-0.0185 0.0302,-0.25663 0.0664,-0.53246 l 0.0679,-0.50172 h 0.36301 c 0.19962,0 0.36452,0.008 0.36603,0.0106 0,0.008 0.034,0.24048 0.0724,0.52222 l 0.0694,0.51196 0.37799,0.0132 c 0.20829,0.008 0.37817,0 0.37817,-0.0211 0,-0.0185 -0.17509,-1.19001 -0.38919,-2.60491 -0.21396,-1.41479 -0.38901,-2.58044 -0.38901,-2.59036 0,-0.0106 -0.2166,-0.0185 -0.48123,-0.0185 l -0.48134,8e-5 -0.38493,2.56996 c -0.21207,1.41352 -0.39369,2.59306 -0.40395,2.62118 -0.0151,0.0389 0.077,0.0508 0.37508,0.0508 0.21622,0 0.39338,-0.0132 0.39338,-0.0306 z m 0.24565,-1.87452 c 0,-0.0132 0.0559,-0.46635 0.12377,-1.0104 0.11622,-0.9354 0.16339,-1.19589 0.16339,-0.89942 0,0.0717 0.0468,0.48357 0.10264,0.91513 0.14339,1.09684 0.15471,1.01588 -0.14339,1.01588 -0.13434,0 -0.24566,-0.0106 -0.24566,-0.0211 z m 3.42525,-0.61363 c 0.20867,-1.37416 0.38927,-2.54909 0.40105,-2.61103 l 0.0226,-0.11271 h -0.38795 c -0.21321,0 -0.3878,0.0132 -0.38735,0.0306 0,0.0402 -0.36112,3.02713 -0.40576,3.34823 l -0.034,0.24577 v -0.21826 c 0,-0.20584 -0.35395,-3.11685 -0.39686,-3.31429 -0.0189,-0.0873 -0.0392,-0.0923 -0.38795,-0.0923 -0.21169,0 -0.36791,0.0159 -0.36791,0.0394 0,0.0211 0.17509,1.18745 0.38919,2.58991 0.21396,1.40254 0.38886,2.56472 0.38886,2.58279 0,0.0185 0.17848,0.0272 0.39655,0.0211 l 0.39671,-0.0132 z m 1.57157,-0.10238 v -2.62128 h -0.38915 -0.38905 v 2.62128 2.62124 h 0.38905 0.38915 z m 2.37559,2.25264 v -0.36863 H 81.6783 81.16627 v -2.25264 -2.25266 h -0.38885 -0.3892 v 2.62128 2.62124 h 0.90107 0.90114 z m 2.08873,0 v -0.36863 h -0.51199 -0.51202 v -2.25264 -2.25266 h -0.389 -0.38916 v 2.62128 2.62124 h 0.90099 0.90118 z m -15.33832,-0.93397 c -0.25999,-0.83914 -0.82404,-2.11871 -1.00721,-2.28446 -0.0649,-0.059 -0.0725,-0.054 -0.0981,0.0587 -0.0634,0.28485 0.12679,1.08932 0.3732,1.57485 0.20942,0.41489 0.79126,1.15871 0.82552,1.05569 0.0151,-0.0268 -0.034,-0.20901 -0.0951,-0.40492 z m 20.83309,0.11193 c 0.55485,-0.75714 0.84865,-1.41165 0.87956,-1.95956 0.0226,-0.40079 -0.0226,-0.53223 -0.13434,-0.39267 -0.11924,0.14735 -0.57402,1.13448 -0.78877,1.70819 -0.343,0.91735 -0.32716,1.15004 0.0423,0.64404 z m -27.04795,-5.49463 c 0.25396,-0.16826 0.35207,-0.41164 0.37169,-0.92262 l 0.0151,-0.41981 h -0.29131 -0.29131 l -6e-4,0.31746 c -8e-4,0.38114 -0.0574,0.51688 -0.22377,0.53593 -0.22188,0.0264 -0.22603,-0.002 -0.22603,-1.49873 0,-0.86391 0.0151,-1.39606 0.0423,-1.44614 0.0513,-0.0979 0.25282,-0.10634 0.32905,-0.0132 0.034,0.0389 0.0619,0.21245 0.0724,0.43005 l 0.0151,0.36497 h 0.28188 0.2815 v -0.34071 c 0,-0.44811 -0.0785,-0.70604 -0.27508,-0.89653 -0.18075,-0.17565 -0.32301,-0.23731 -0.54795,-0.23731 -0.32074,0 -0.60357,0.18071 -0.73756,0.471 -0.0694,0.14974 -0.0755,0.29275 -0.077,1.64986 0,1.61842 0,1.66057 0.2366,1.90823 0.16678,0.17697 0.32263,0.23335 0.60752,0.21931 0.18868,-0.0106 0.29169,-0.0394 0.41463,-0.12063 z m 10.44847,0.0733 c 0.0634,-0.0321 0.13886,-0.09 0.17207,-0.1283 0.0528,-0.0646 0.0604,-0.0622 0.0815,0.0283 0.0189,0.0833 0.0498,0.0995 0.21546,0.11008 l 0.19282,0.0132 v -1.04659 -1.04667 h -0.43006 -0.43002 v 0.2867 0.28671 h 0.12528 0.12679 l -0.0151,0.45389 c -0.0151,0.39256 -0.0226,0.46174 -0.0936,0.51199 -0.0981,0.072 -0.11169,0.072 -0.20943,-5e-5 -0.0755,-0.0553 -0.0785,-0.12672 -0.0906,-1.44731 0,-0.86814 0,-1.43008 0.0302,-1.49826 0.034,-0.0852 0.0694,-0.10901 0.16678,-0.10901 0.16679,0 0.2049,0.10848 0.2049,0.57606 v 0.36595 h 0.30716 0.30716 l -2.6e-4,-0.39933 c 0,-0.21958 -0.0189,-0.46601 -0.0408,-0.54749 -0.20415,-0.73457 -1.17883,-0.8297 -1.49709,-0.14603 -0.0996,0.21244 -0.0996,0.21244 -0.0981,1.68684 0,1.5445 0.0151,1.67657 0.18867,1.87211 0.20188,0.22728 0.54308,0.30467 0.78692,0.17834 z m 6.56753,-0.0622 c 0.2898,-0.19867 0.39776,-0.47836 0.39957,-1.0362 v -0.31742 h -0.30716 -0.30716 v 0.38089 c 0,0.24154 -0.0151,0.39889 -0.0498,0.43008 -0.077,0.0778 -0.2698,0.0598 -0.3181,-0.0298 -0.0264,-0.05 -0.0423,-0.57914 -0.0423,-1.43622 0,-0.85706 0.0151,-1.38616 0.0423,-1.43619 0.0483,-0.0897 0.24037,-0.10796 0.3181,-0.0298 0.0302,0.0313 0.0498,0.18837 0.0498,0.43005 v 0.38089 h 0.31244 0.31282 l -0.0189,-0.41981 c -0.0226,-0.47775 -0.0951,-0.6708 -0.33622,-0.88243 -0.36791,-0.32305 -0.96442,-0.18441 -1.20128,0.27912 -0.0906,0.17728 -0.0936,0.20532 -0.0936,1.68759 0,1.44963 0,1.51421 0.086,1.69165 0.14339,0.30467 0.37859,0.43399 0.75824,0.41667 0.18377,-0.008 0.28943,-0.0378 0.39293,-0.10849 z m 6.06471,0.0654 c 0.16868,-0.0709 0.37433,-0.30407 0.43882,-0.49916 0.0264,-0.0836 0.0513,-0.32014 0.0543,-0.52571 v -0.37376 l -0.29697,-0.0132 -0.29697,-0.0132 v 0.35263 c 0,0.41584 -0.0377,0.51106 -0.2049,0.51106 -0.077,0 -0.13585,-0.0287 -0.16151,-0.0794 -0.0634,-0.11932 -0.0573,-2.83818 0,-2.90244 0.077,-0.0778 0.27018,-0.0598 0.31811,0.0298 0.0226,0.0434 0.0438,0.23705 0.0438,0.43002 v 0.35082 h 0.31357 0.3132 l -0.0226,-0.40629 c -0.0377,-0.60506 -0.18113,-0.87159 -0.5467,-1.01128 -0.48063,-0.18361 -0.97872,0.10981 -1.07846,0.63512 -0.0528,0.28595 -0.0528,2.58914 0,2.87498 0.0543,0.29339 0.20905,0.5164 0.42176,0.61299 0.20151,0.0913 0.50912,0.10211 0.69549,0.0238 z m 8.9855,0.0132 c 0.16339,-0.0622 0.33848,-0.23678 0.42674,-0.42743 0.0694,-0.15 0.0755,-0.28996 0.0755,-1.65877 0,-1.67637 0,-1.69478 -0.29811,-1.954 -0.33621,-0.29501 -0.90612,-0.21245 -1.16611,0.16879 -0.14792,0.21825 -0.17018,0.44687 -0.17018,1.78531 0,1.35676 0.0226,1.56238 0.18112,1.8064 0.17698,0.26919 0.62776,0.4019 0.95095,0.27976 z m -0.42946,-0.61993 c -0.0377,-0.0362 -0.0498,-0.41867 -0.0498,-1.46627 0,-1.04757 0.0151,-1.42992 0.0498,-1.46625 0.0755,-0.0751 0.2298,-0.0585 0.27735,0.0298 0.0264,0.05 0.0438,0.57913 0.0438,1.43619 0,0.85709 -0.0151,1.38617 -0.0438,1.4362 -0.0483,0.0886 -0.20226,0.10532 -0.27735,0.0298 z m -34.58982,-1.3229 c 0.1615,-1.05874 0.30451,-1.99408 0.3181,-2.07859 l 0.0226,-0.15369 h -0.30754 c -0.1966,0 -0.30754,0.0159 -0.30754,0.045 0,0.068 -0.28263,2.35862 -0.323,2.61716 l -0.0377,0.22512 v -0.26621 c 0,-0.1463 -0.0755,-0.79148 -0.15811,-1.43349 l -0.14943,-1.16729 -0.29697,-0.0132 c -0.17886,-0.008 -0.29697,0.003 -0.29697,0.0291 0,0.0211 0.13735,0.94815 0.30716,2.05684 0.16867,1.10871 0.30716,2.0318 0.30716,2.0513 0,0.0185 0.14339,0.0298 0.31697,0.0238 l 0.31735,-0.0132 z m 1.26301,-0.1434 v -2.06831 l -0.31735,-0.0132 -0.31734,-0.0132 v 2.09226 2.09229 l 0.31734,-0.0132 0.31735,-0.0132 z m 3.87056,1.76119 v -0.32765 h -0.38919 -0.38916 v -0.57342 -0.57339 h 0.28678 0.28641 v -0.3072 -0.30716 h -0.28641 -0.28678 v -0.55294 -0.55292 h 0.38916 0.38919 v -0.32765 -0.32765 h -0.69639 -0.69628 v 2.0888 2.08884 h 0.69628 0.69639 z m 1.03348,-0.87034 0.0151,-1.19801 0.34376,1.19801 0.34339,1.198 h 0.26075 0.26037 v -2.08885 -2.08879 H 66.8773 66.59165 l -0.0151,1.17753 -0.0151,1.1775 -0.30716,-1.17737 -0.30716,-1.17734 -0.29697,-1.6e-4 -0.29698,-1.6e-4 v 2.08879 2.08885 h 0.28603 0.28603 z m 2.6935,-0.56318 v -1.76116 h 0.28678 0.28679 v -0.32765 -0.32765 h -0.88066 -0.88065 v 0.32765 0.32765 h 0.28679 0.28678 v 1.76116 1.76118 h 0.30716 0.30716 z m 2.25276,1.43352 v -0.32765 H 70.49706 70.1079 v -0.57342 -0.57339 h 0.28679 0.2864 v -0.3072 -0.30716 h -0.2864 -0.28679 v -0.55294 -0.55292 h 0.38916 0.38916 v -0.32765 -0.32765 h -0.6964 -0.6962 v 2.0888 2.08884 h 0.6962 0.6964 z m 3.93014,-0.10426 0.0498,-0.43177 0.29282,0.0132 0.29244,0.0132 0.0574,0.41982 0.0574,0.41981 h 0.30187 c 0.16528,0 0.3015,-0.008 0.3015,-0.0106 -1.1e-4,-0.008 -0.13735,-0.92204 -0.30716,-2.03644 -0.16867,-1.11446 -0.30716,-2.04978 -0.30716,-2.07861 0,-0.0389 -0.0996,-0.0524 -0.38557,-0.0524 h -0.38538 l -0.0226,0.15369 c -0.0709,0.44093 -0.59712,3.96359 -0.59712,3.99149 0,0.0185 0.13585,0.0321 0.30113,0.0321 h 0.30112 z m 0.16528,-1.15533 c -3e-4,-0.0394 0.0392,-0.40343 0.0906,-0.80888 l 0.0906,-0.73726 0.0906,0.71675 c 0.12377,0.97628 0.13282,0.90106 -0.0891,0.90106 -0.14792,0 -0.18452,-0.0132 -0.1849,-0.0717 z m 2.13038,0.70311 c 0,-0.67676 0.0151,-0.8801 0.0498,-0.86738 0.0392,0.0132 0.21245,0.77095 0.39886,1.74113 0,0.008 0.14037,0.0106 0.3098,0.0106 0.29848,0 0.30716,0 0.28641,-0.0921 -0.0151,-0.0508 -0.10566,-0.49542 -0.20792,-0.98828 l -0.18641,-0.89613 0.0996,-0.10743 c 0.2298,-0.2455 0.29357,-0.44257 0.29357,-0.90598 0,-0.38851 -0.0151,-0.45267 -0.11471,-0.66456 -0.19396,-0.39502 -0.47353,-0.52318 -1.14064,-0.52318 h -0.40305 v 2.0888 2.08882 h 0.30716 0.30716 z m 0,-2.06493 c 0,-0.59464 0,-0.61435 0.0845,-0.61435 0.0468,0 0.13735,0.0524 0.20112,0.11641 0.13434,0.13494 0.18906,0.39344 0.14491,0.68912 -0.034,0.21376 -0.20302,0.42341 -0.34603,0.42341 -0.083,0 -0.0845,-0.0185 -0.0845,-0.61438 z m 4.05463,0.8601 v -2.08879 h -0.30716 -0.30716 v 2.08879 2.08882 h 0.30716 0.30716 z m 0.98144,1.65705 0.0498,-0.43177 0.29282,0.0132 0.29282,0.0132 0.0574,0.41982 0.0574,0.41981 h 0.30338 0.30339 l -0.0226,-0.13309 c -0.0513,-0.30169 -0.59515,-3.94258 -0.59515,-3.99147 0,-0.0397 -0.0981,-0.0529 -0.38897,-0.0529 -0.21396,0 -0.3892,0.0106 -0.3892,0.0211 0,0.0132 -0.13735,0.93605 -0.30716,2.05265 -0.16867,1.11663 -0.30716,2.04649 -0.30716,2.06634 0,0.0211 0.13585,0.0362 0.30113,0.0362 h 0.30112 z m 0.23283,-1.81063 c 0.0513,-0.39984 0.0966,-0.76385 0.0996,-0.80891 0,-0.0863 0.1966,1.28516 0.19962,1.44374 0,0.0831 -0.0151,0.0923 -0.19546,0.0923 H 82.2877 Z m 4.83445,2.16049 c 0,-0.034 0.0302,-0.22275 0.0558,-0.41981 l 0.0483,-0.35836 h 0.28187 c 0.25886,0 0.28339,0.008 0.30188,0.0921 0.0151,0.0802 0.10415,0.703 0.10415,0.75046 0,0.0106 0.13735,0.0185 0.30452,0.0185 h 0.30452 l -0.0226,-0.13309 c -0.0151,-0.0733 -0.15283,-1.00857 -0.31471,-2.07858 l -0.29358,-1.94548 -0.37508,-0.0132 -0.37546,-0.0132 -0.0226,0.11403 c -0.0377,0.18943 -0.59847,3.94213 -0.59847,4.00849 0,0.09 0.58926,0.0662 0.60134,-0.0238 z m 0.19848,-1.54614 c 0.0151,-0.0619 0.0574,-0.41619 0.10264,-0.78722 0.083,-0.66588 0.12075,-0.8443 0.12075,-0.57119 0,0.077 0.0377,0.4256 0.083,0.77478 0.0453,0.34916 0.083,0.64866 0.083,0.66554 0,0.0159 -0.0906,0.0306 -0.20339,0.0306 -0.19961,0 -0.20339,-0.001 -0.18376,-0.11272 z m 2.14877,0.74747 c 0,-0.55976 0.0151,-0.88057 0.0408,-0.88057 0.0226,0 0.0408,0.005 0.0423,0.0106 0,0.005 0.0785,0.39729 0.17584,0.87034 l 0.17396,0.86013 0.31169,0.0132 0.31169,0.0132 -0.11924,-0.56482 c -0.0649,-0.31067 -0.15811,-0.75044 -0.20603,-0.97736 l -0.0876,-0.41254 0.1449,-0.18969 c 0.20679,-0.27059 0.25509,-0.44203 0.25245,-0.88965 0,-0.44759 -0.0785,-0.67094 -0.30716,-0.89185 -0.18717,-0.18177 -0.45871,-0.25505 -0.94692,-0.25505 h -0.40214 v 2.08882 2.08882 h 0.30717 0.30716 z m 0,-2.06834 c 0,-0.35376 0.0151,-0.61435 0.0377,-0.61435 0.10868,0 0.25094,0.0913 0.30225,0.19286 0.20226,0.40138 0.0423,1.03591 -0.26074,1.03591 -0.0755,0 -0.0785,-0.0332 -0.0785,-0.61435 z m 1.97571,1.54614 0.0151,-1.4028 0.1566,1.10586 c 0.086,0.6082 0.17547,1.23948 0.19962,1.4028 l 0.0438,0.29693 h 0.15471 c 0.12528,0 0.15811,-0.0159 0.17584,-0.0923 0.0151,-0.0508 0.10113,-0.68001 0.19887,-1.39852 l 0.17735,-1.30637 0.0151,1.39852 0.0151,1.39855 h 0.2864 0.28603 v -2.08882 -2.08883 h -0.38904 c -0.21396,0 -0.38961,0.005 -0.39018,0.0106 -4.9e-4,0.005 -0.0815,0.52631 -0.17886,1.15706 -0.10868,0.69466 -0.18792,1.10641 -0.20301,1.04442 -0.0151,-0.0563 -0.0891,-0.53553 -0.16868,-1.0649 -0.0785,-0.5294 -0.15471,-1.00397 -0.1649,-1.05464 -0.0226,-0.0876 -0.0392,-0.0923 -0.40938,-0.0923 h -0.38829 v 2.08882 2.08882 h 0.28603 0.2864 z m 4.78438,0.22517 v -1.17753 l 0.33772,1.16728 0.33773,1.16729 h 0.26414 0.26414 v -2.06834 -2.06834 l -0.27659,-0.0132 -0.2766,-0.0132 v 1.17737 c 0,0.68975 -0.0151,1.16123 -0.0377,1.13842 -0.0226,-0.0211 -0.15811,-0.50889 -0.30754,-1.08332 -0.14943,-0.57442 -0.28226,-1.08588 -0.29584,-1.13654 -0.0226,-0.0844 -0.0498,-0.0921 -0.30678,-0.0921 h -0.28188 v 2.08882 2.08882 h 0.28678 0.28641 z m 2.14166,1.04445 c 0.0151,-0.0733 0.034,-0.22513 0.0483,-0.33796 0.0498,-0.41314 0.0264,-0.38907 0.34905,-0.38907 0.15622,0 0.28565,0.008 0.28565,0.0185 0,0.0476 0.086,0.67015 0.10566,0.75044 0.0189,0.0849 0.0423,0.0923 0.3064,0.0923 0.2449,0 0.28566,-0.0106 0.28603,-0.0717 0,-0.0749 -0.56104,-3.85376 -0.59636,-4.01535 -0.0189,-0.0902 -0.034,-0.0931 -0.3964,-0.082 l -0.37621,0.0132 -0.29622,1.96593 c -0.16339,1.08127 -0.30603,2.01659 -0.3181,2.07861 l -0.0226,0.11271 h 0.3015 0.3015 z m 0.19321,-1.43355 c 0,-0.0279 0.0453,-0.38293 0.0966,-0.78843 0.10264,-0.81029 0.10264,-0.81018 0.20867,0.0614 0.034,0.28157 0.0725,0.57188 0.0845,0.64509 l 0.0226,0.13309 h -0.20679 c -0.13886,0 -0.20603,-0.0159 -0.20452,-0.0513 z m 9.35823,-3.17597 c -0.0302,-0.0306 -0.0264,-0.54292 0,-0.92379 l 0.0264,-0.31338 h 0.30112 0.30112 v -3.93186 -3.93189 h 2.64158 c 1.45301,0 2.64195,0.0106 2.64195,0.0238 0,0.0132 -0.50975,0.9759 -1.13279,2.14001 -0.62323,1.16409 -1.1331,2.13544 -1.13325,2.15851 -3e-4,0.0238 0.64855,1.06956 1.44184,2.3255 0.79296,1.25595 1.45147,2.30841 1.46324,2.33881 0.0151,0.0458 -0.50187,0.0598 -3.08375,0.0812 -1.70784,0.0132 -3.18269,0.0324 -3.27748,0.0408 -0.0951,0.008 -0.18226,0.005 -0.19434,-0.008 z M 45.5555,150.66563 c -1.59859,-0.0211 -2.91383,-0.0434 -2.92195,-0.0519 0,-0.008 0.67025,-1.06003 1.50852,-2.33706 1.42098,-2.16584 1.52026,-2.32881 1.47649,-2.4249 -0.0408,-0.0897 -1.97447,-3.58793 -2.24126,-4.0547 L 43.2777,141.623 h 3.07363 3.07331 v 3.97147 3.97144 l 0.44036,0.0132 c 0.3215,0.008 0.43908,0.0264 0.43625,0.0627 0,0.0279 0,0.28158 -0.0151,0.56318 v 0.51196 l -0.91126,-0.008 c -0.50127,-0.003 -2.2194,-0.0238 -3.81833,-0.0434 z m 4.52469,-6.33933 v -4.62812 h 28.95679 28.95664 v 4.62814 4.6282 H 79.03698 50.08019 Z m 28.25149,3.40012 c 0.27094,-0.11747 0.54534,-0.41502 0.6724,-0.72962 l 0.0951,-0.23361 v -2.45742 -2.45744 l -0.0951,-0.23361 c -0.12528,-0.31071 -0.40093,-0.61104 -0.6724,-0.7333 -0.17773,-0.0799 -0.28187,-0.0971 -0.58488,-0.0955 -0.24754,0.001 -0.41875,0.0238 -0.52135,0.0688 -0.2298,0.10079 -0.54881,0.42201 -0.6762,0.68104 l -0.11321,0.23045 v 2.53935 c 0,2.53675 1.2e-4,2.53953 0.0906,2.73425 0.17207,0.36742 0.52979,0.67816 0.89197,0.7728 0.21999,0.0574 0.6813,0.0132 0.91261,-0.0865 z m -0.68643,-0.91336 c -0.2049,-0.10343 -0.20414,-0.0989 -0.20414,-2.5072 0,-1.73463 0.0151,-2.27619 0.0513,-2.35506 0.0725,-0.14366 0.23848,-0.21641 0.37508,-0.16456 0.22339,0.0847 0.22716,0.12724 0.22716,2.51954 0,2.39013 0,2.43471 -0.22603,2.51911 -0.12679,0.0487 -0.10113,0.0503 -0.22339,-0.0132 z m 10.00905,0.89611 c 0.36527,-0.1786 0.61579,-0.52855 0.71567,-0.99911 0.0634,-0.29878 0.0634,-4.50734 4.6e-4,-4.80844 -0.10264,-0.48604 -0.37169,-0.84741 -0.76851,-1.03035 -0.2698,-0.1246 -0.84654,-0.12407 -1.11694,4.7e-4 -0.41407,0.19102 -0.70304,0.62377 -0.77802,1.16515 -0.0226,0.16905 -0.034,1.19877 -0.0264,2.48705 0.0151,2.16258 0.0151,2.20208 0.10565,2.42561 0.25094,0.62532 0.69308,0.91537 1.34781,0.88463 0.21622,-0.0106 0.35358,-0.0431 0.52104,-0.12513 z m -0.70002,-0.88524 c -0.0498,-0.0185 -0.12377,-0.0868 -0.16339,-0.14867 -0.0694,-0.10555 -0.074,-0.26165 -0.074,-2.36929 0,-2.10477 0,-2.2638 0.074,-2.36889 0.16339,-0.24841 0.42463,-0.22275 0.53478,0.0524 0.0589,0.14815 0.0664,0.41971 0.0664,2.30701 -2.6e-4,2.09506 -0.0151,2.38368 -0.13434,2.47789 -0.0845,0.0669 -0.20905,0.0876 -0.30376,0.0495 z m -15.28971,-1.98564 v -2.92844 h 0.47108 0.47097 v -0.53244 -0.53244 H 71.131 69.65535 l 0.0151,0.5222 0.0151,0.5222 0.48138,0.0132 0.48108,0.0132 v 2.92712 2.92715 h 0.51198 0.51199 z m 2.45736,1.47445 c 0,-1.39889 0,-1.45397 0.077,-1.45397 0.0936,0 0.0634,-0.11641 0.37244,1.47445 0.13735,0.70959 0.25961,1.3224 0.27169,1.36185 0.0189,0.0632 0.0815,0.0717 0.53115,0.0717 0.50791,0 0.50987,-3.5e-4 0.48814,-0.0923 -0.0151,-0.0508 -0.16868,-0.78581 -0.34641,-1.63364 l -0.32452,-1.54146 0.17207,-0.17992 c 0.34226,-0.35904 0.51972,-0.87452 0.51972,-1.51072 0,-0.85962 -0.28187,-1.47114 -0.80537,-1.74711 -0.33621,-0.17697 -0.57911,-0.21667 -1.32652,-0.21667 h -0.65323 v 3.46089 3.46085 h 0.51199 0.51202 z m 0,-3.4308 v -1.02382 l 0.15811,0.0211 c 0.22301,0.0298 0.35583,0.13019 0.46413,0.35132 0.0815,0.16403 0.0951,0.25504 0.0951,0.6417 0,0.39034 -0.0151,0.47677 -0.0966,0.6472 -0.11018,0.22407 -0.22527,0.31411 -0.45734,0.35656 l -0.16151,0.0298 z m 6.71722,3.38985 v -1.49493 h 0.47093 0.47097 v -0.53244 -0.53246 h -0.47097 -0.47093 v -0.90106 -0.90105 h 0.69609 0.6964 v -0.53244 -0.53244 h -1.20827 -1.20822 v 3.46088 3.46086 h 0.51202 0.51198 z m 4.13655,0.96248 v -0.53243 h -0.65537 -0.65519 v -0.96249 -0.96249 h 0.47097 0.47111 v -0.51199 -0.51196 h -0.47111 -0.47097 v -0.92151 -0.92155 h 0.65519 0.65537 v -0.53244 -0.53244 h -1.16721 -1.16721 v 3.46088 3.46086 h 1.16721 1.16721 z m 23.67326,-7.83795 v -0.26086 l 1.27992,-0.0279 c 3.77411,-0.082 10.60416,-0.1397 10.55333,-0.0886 -0.0226,0.0238 -2.32698,0.1672 -4.64525,0.28991 -3.25544,0.17223 -6.78888,0.34837 -6.99333,0.34841 h -0.19471 z m -56.91312,-3.27167 c 0.0377,-3.98282 0.0951,-6.84224 0.14792,-7.35304 0.18905,-1.83372 1.06385,-2.9273 3.35763,-4.19692 0.50175,-0.27758 11.96287,-6.85209 12.27705,-7.04231 l 0.13282,-0.0807 v 1.45239 1.45238 l -5.45749,3.1319 c -3.00168,1.72253 -5.66499,3.247 -5.91838,3.3877 -0.61202,0.33965 -1.10744,0.69668 -1.39837,1.00773 -0.2698,0.28852 -0.39338,0.5154 -0.45644,0.83925 -0.0725,0.37056 -0.11773,2.17039 -0.14188,5.69159 -0.0151,1.83593 -0.034,3.63751 -0.0468,4.00359 l -0.0226,0.66554 h -1.24989 -1.25003 z m 9.52706,2.73052 c 0.47998,-0.49008 8.70678,-8.60448 10.19707,-10.05744 1.73833,-1.69499 2.87535,-2.77825 2.97372,-2.83336 0.083,-0.0463 0.60164,0.29874 3.56932,2.37558 2.58324,1.80777 3.33137,2.31047 3.77804,2.53877 0.26489,0.13547 0.34376,0.1569 0.57341,0.15584 0.23245,-0.001 0.36754,-0.041 1.06488,-0.31252 1.36742,-0.5327 1.95714,-0.68956 2.59241,-0.68956 0.95989,0 1.78284,0.47299 3.36683,1.93474 0.62413,0.57604 3.98403,3.84326 5.8568,5.6954 l 1.4335,1.41768 -12.63175,0.001 -12.63198,0.002 0.4767,-0.48125 c 0.56858,-0.574 0.84382,-0.90214 1.55455,-1.8533 0.90839,-1.21528 0.97888,-1.30603 1.22695,-1.57665 0.13282,-0.14445 0.36451,-0.34339 0.51519,-0.44204 0.68582,-0.4478 1.23418,-0.55503 3.81754,-0.74644 1.38116,-0.10238 2.62727,-0.21773 2.65591,-0.24603 0.034,-0.0317 -0.0709,-0.12672 -0.74359,-0.68867 -1.73138,-1.44497 -5.21354,-4.16817 -5.97691,-4.6742 l -0.23509,-0.15585 -0.13433,0.10264 c -0.6653,0.51059 -6.88922,6.42775 -10.29531,9.78794 l -0.98702,0.97378 h -1.12087 -1.12068 z m 28.40149,-1.39942 c -0.0392,-0.0619 -0.38011,-0.55494 -0.75719,-1.09558 -1.91356,-2.74408 -2.18789,-3.34877 -1.86586,-4.111 0.13433,-0.31667 0.14641,-0.55517 0.0377,-0.66597 -0.1732,-0.17328 -0.94344,-0.16931 -1.63063,0.008 -0.507,0.13098 -1.13894,0.39857 -1.48391,0.6284 -0.51818,0.34534 -0.53357,0.28969 0.26414,0.95209 1.55244,1.28888 5.41557,4.39011 5.47368,4.39424 0.0189,0.001 0,-0.0481 -0.0377,-0.11007 z m 14.64324,1.29016 c 0,-0.18573 0.0302,-2.19018 0.0634,-4.45409 0.0377,-2.26391 0.0528,-4.22677 0.0377,-4.36194 -0.086,-0.8116 -0.66152,-1.69145 -1.53463,-2.34897 -0.17018,-0.1275 -2.95787,-1.7973 -6.19614,-3.71013 l -5.88755,-3.47792 v -1.44675 c 0,-0.79568 0.0151,-1.44672 0.0226,-1.44672 0.077,0 13.21468,7.80436 13.53308,8.03985 0.48259,0.35704 1.25306,1.12977 1.56829,1.5726 0.48104,0.67647 0.82119,1.49199 0.95865,2.29986 0.0619,0.3618 0.0634,0.72687 0.0189,4.30673 -0.0264,2.15126 -0.0604,4.23855 -0.074,4.63838 l -0.0264,0.727 h -1.24351 -1.24359 z m -54.82138,0.19022 c -0.40546,-0.0298 -1.64029,-0.12011 -2.74411,-0.2 -6.51376,-0.47246 -12.24486,-0.96841 -12.34459,-1.06828 -0.0996,-0.0995 4.1127,0.0908 13.94201,0.63009 l 2.00696,0.11007 0.0151,0.29693 c 0.0151,0.2643 0,0.29633 -0.0619,0.29135 -0.0392,-0.003 -0.40516,-0.0298 -0.81062,-0.0603 z m 58.74608,-2.53501 c 0.0151,-0.2769 0.0226,-0.30916 0.10113,-0.32618 0.20037,-0.0426 8.69924,-1.1765 10.88121,-1.45178 2.03967,-0.25742 2.12103,-0.26512 2.40411,-0.22965 0.18264,0.0238 0.21811,0.0381 0.16151,0.0693 -0.22113,0.12381 -1.839,0.43381 -4.5322,0.86867 -2.44392,0.3946 -8.83988,1.37685 -8.96678,1.37701 -0.0528,8e-5 -0.0619,-0.0495 -0.0498,-0.3072 z m -61.12152,-0.94429 c -7.27702,-1.29531 -9.15617,-1.64901 -9.34854,-1.75978 -0.10716,-0.0611 -0.0875,-0.0635 0.33811,-0.0413 1.12177,0.0588 5.08191,0.60101 10.63755,1.45657 0.87246,0.13441 1.59572,0.24418 1.60765,0.24418 0.0151,0 0.0226,0.14735 0.0226,0.32761 0,0.31372 0,0.3275 -0.0936,0.32346 -0.0513,-10e-4 -1.47445,-0.25026 -3.16402,-0.55093 z m 61.16213,-1.96411 c 0,-0.21376 0.0151,-0.38872 0.0226,-0.38872 0,0 0.51575,-0.12064 1.1337,-0.26803 2.44981,-0.58445 11.72431,-2.7097 12.22014,-2.80029 0.13434,-0.0238 0.30301,-0.0445 0.37659,-0.0445 0.14792,0 0.22113,0.0706 0.13283,0.12751 -0.24301,0.15716 -5.18425,1.50357 -11.62665,3.1683 -1.18276,0.30557 -2.17809,0.56429 -2.21186,0.57492 -0.0528,0.0185 -0.0604,-0.0389 -0.0483,-0.36935 z m -59.0322,-0.82306 c -6.27055,-1.80098 -9.60887,-2.8024 -9.88893,-2.9663 -0.32792,-0.19207 2.04948,0.32515 6.79658,1.47833 1.20521,0.29279 2.65188,0.64803 3.21514,0.78947 l 1.02386,0.25716 0.0151,0.37636 c 0.0151,0.28686 -7.9e-4,0.37573 -0.0407,0.37361 -0.0302,-10e-4 -0.53191,-0.14022 -1.11755,-0.30867 z m 59.08061,-2.38685 v -0.32278 l 1.3412,-0.459 c 3.94339,-1.34936 10.11769,-3.38233 10.15614,-3.344 0.0423,0.0434 -1.88938,0.83386 -4.37088,1.78701 -2.14122,0.82248 -7.03877,2.66158 -7.08782,2.66158 -0.0226,0 -0.0392,-0.14524 -0.0392,-0.32282 z m -60.78048,-1.78362 c -1.58821,-0.63655 -3.33906,-1.34288 -3.89089,-1.56956 -2.5434,-1.04472 -4.19678,-1.80479 -3.9389,-1.81098 0.19886,-0.005 4.3845,1.48575 9.14047,3.25514 0.88971,0.331 1.62429,0.6081 1.63229,0.61572 0,0.008 0,0.16086 -0.0226,0.34048 l -0.034,0.32659 z m 60.03462,-1.27121 c -0.0725,-0.14577 -0.12226,-0.27275 -0.1117,-0.28233 0.0453,-0.0426 5.33516,-2.52892 7.28853,-3.42551 2.40819,-1.10538 3.97553,-1.76124 4.20851,-1.76124 0.22075,0 -0.27962,0.27762 -2.89814,1.60803 -1.52508,0.77501 -8.29544,4.12595 -8.33574,4.12595 -0.0151,0 -0.0785,-0.11932 -0.15169,-0.2649 z M 50.12004,125.9505 c -5.23361,-2.6842 -9.62627,-4.99774 -9.65551,-5.08518 -0.0151,-0.0264 0.074,-0.0185 0.21093,0.0159 0.7744,0.20214 3.44575,1.4463 8.33076,3.87969 1.29045,0.64281 2.36533,1.17507 2.38838,1.18279 0.0302,0.0106 -0.18301,0.43034 -0.25961,0.50686 0,0.008 -0.46384,-0.21826 -1.01507,-0.50109 z m 18.74568,-1.62157 c -0.0151,-0.52371 -0.0264,-1.54663 -0.0264,-2.2731 v -1.32087 h 0.32754 0.32753 l 3.1e-4,1.25944 c 0,0.69266 0.0151,1.57734 0.0264,1.96591 l 0.0264,0.70652 h 0.42342 0.42357 v 0.3072 0.30716 h -0.75104 -0.75129 z m 1.71602,0.79867 c 0.0226,-0.11853 0.63224,-4.34049 0.63224,-4.3735 0,-0.0106 0.18452,-0.0185 0.40969,-0.0185 0.22527,0 0.40953,0.0132 0.40953,0.0264 0,0.0132 0.1566,1.01188 0.34829,2.21726 0.19132,1.20537 0.34792,2.20828 0.34792,2.2287 0,0.0211 -0.1434,0.0317 -0.31735,0.0238 l -0.31735,-0.0132 -0.0589,-0.44182 -0.0589,-0.44182 -0.33056,0.0132 -0.33056,0.0132 -0.0483,0.36863 c -0.0264,0.20267 -0.0498,0.40087 -0.0513,0.44029 0,0.0619 -0.0483,0.0717 -0.33018,0.0717 h -0.32679 z m 1.28773,-1.52184 c 0,-0.0211 -0.0468,-0.35391 -0.10264,-0.74104 -0.0573,-0.38712 -0.10264,-0.7206 -0.10264,-0.74105 0,-0.0211 -0.0151,-0.037 -0.034,-0.037 -0.0151,0 -0.0649,0.27184 -0.10565,0.6041 -0.0392,0.33226 -0.083,0.68245 -0.0951,0.7782 l -0.0226,0.17407 h 0.23056 c 0.12679,0 0.23094,-0.0159 0.23094,-0.037 z m 2.12148,-0.47481 c 0,-1.16012 -0.0151,-2.1784 -0.0151,-2.26288 v -0.15373 l 0.4041,-0.0132 c 0.69111,-0.0211 1.06521,0.15267 1.28098,0.59244 0.11018,0.22381 0.11773,0.27011 0.11773,0.75044 0,0.44788 -0.0151,0.53762 -0.0951,0.71676 -0.0513,0.11271 -0.1449,0.25769 -0.2049,0.32259 -0.14641,0.15585 -0.4821,0.31135 -0.6736,0.31181 l -0.15283,4e-4 v 0.92153 0.92156 h -0.32754 -0.32753 z m 1.04978,-0.51154 c 0.0664,-0.0675 0.0875,-0.14867 0.0996,-0.41182 0,-0.18018 0,-0.39389 -0.0151,-0.47471 -0.0377,-0.19313 -0.1883,-0.34259 -0.34792,-0.34259 h -0.12377 v 0.68115 0.68114 l 0.15132,-0.0238 c 0.083,-0.0132 0.18905,-0.0624 0.23508,-0.10875 z m 1.11951,0.32633 -0.0151,-2.25351 0.75782,0.0106 0.75783,0.0106 0.0151,0.31746 0.0151,0.31738 h -0.43173 -0.43187 v 0.61438 0.61434 h 0.30716 0.30716 v 0.34818 0.3481 h -0.30716 -0.30716 v 0.63485 0.63483 h 0.43006 0.43006 v 0.32765 0.32765 h -0.75707 -0.75692 z m 1.92092,1.85939 c -0.0151,-0.22248 -0.0264,-1.23851 -0.0264,-2.25785 l -1.5e-4,-1.85331 0.48104,2.4e-4 c 0.2649,1.3e-4 0.55504,0.0211 0.64511,0.0452 0.21848,0.0598 0.41376,0.21245 0.50776,0.39746 0.1615,0.31788 0.18867,0.58805 0.18867,1.87143 0,1.07646 -0.0151,1.25917 -0.0755,1.47445 -0.16678,0.54211 -0.39459,0.67956 -1.17758,0.70823 l -0.51561,0.0185 z m 0.9208,-0.30542 c 0.0453,-0.0238 0.10868,-0.1037 0.13736,-0.17649 0.0845,-0.20026 0.11018,-0.93195 0.0694,-1.8804 -0.034,-0.75408 -0.0468,-0.86473 -0.11924,-0.96251 -0.0589,-0.078 -0.12528,-0.1143 -0.23131,-0.12301 l -0.14943,-0.0132 v 1.4718 c 0,0.80952 0.0151,1.5294 0.0264,1.5998 0.0264,0.13811 0.11471,0.16535 0.26754,0.0839 z m 1.37272,0.0545 c -0.0151,-0.35478 -0.0264,-1.37767 -0.0264,-2.27312 l -1.9e-4,-1.62803 h 0.75768 0.75767 v 0.32765 0.32765 h -0.36527 c -0.20113,0 -0.39444,0.0132 -0.43006,0.0238 -0.0543,0.0211 -0.0649,0.11456 -0.0649,0.61435 v 0.58948 h 0.30716 0.30717 v 0.34633 0.34633 l -0.29698,0.0132 c -0.29621,0.0132 -0.29697,0.0132 -0.31131,0.13493 0,0.0677 0,0.34867 0.0151,0.62461 l 0.0302,0.50173 h 0.42584 0.42599 v 0.32153 0.32154 l -0.37509,0.0268 c -0.20641,0.0159 -0.54424,0.0268 -0.75129,0.0268 h -0.37622 z m 2.22589,0.55191 c -0.24943,-0.13204 -0.40184,-0.41455 -0.44938,-0.83428 -0.0226,-0.17702 -0.0226,-0.3332 -0.0151,-0.34724 0.0151,-0.0132 0.16151,-0.037 0.3249,-0.0516 0.29508,-0.0264 0.29697,-0.0264 0.29697,0.0746 0,0.3372 0.15471,0.67808 0.30905,0.67808 0.11471,0 0.25659,-0.18705 0.28489,-0.37486 0.0392,-0.26006 -0.0634,-0.49362 -0.50598,-1.14967 -0.43565,-0.64659 -0.57066,-0.91949 -0.63028,-1.27314 -0.11321,-0.67276 0.26867,-1.22782 0.84484,-1.22782 0.5544,0 0.84446,0.30607 0.9131,0.96357 l 0.0264,0.236 h -0.1434 c -0.0785,0 -0.22904,0.0132 -0.33357,0.0264 l -0.19018,0.0264 v -0.16324 c 0,-0.32539 -0.1449,-0.54101 -0.32301,-0.48415 -0.17245,0.055 -0.22226,0.45362 -0.0906,0.73871 0.0408,0.0902 0.2615,0.44654 0.48904,0.79211 0.49526,0.75161 0.58096,0.95693 0.58066,1.39037 -4.5e-4,0.53601 -0.13132,0.82055 -0.44908,0.98146 -0.25698,0.12988 -0.69606,0.12935 -0.94265,-8.2e-4 z m 2.17035,-1.87278 v -1.92498 h -0.32754 -0.32754 v -0.34814 -0.3481 h 0.96242 0.96243 v 0.3481 0.34814 h -0.30716 -0.30716 v 1.92498 1.92498 h -0.32754 -0.32791 z m 1.55606,-0.0106 c -1.5e-4,-1.06437 -0.0151,-2.08729 -0.0264,-2.27312 l -0.0264,-0.33791 h 0.46972 c 0.611,0 0.82813,0.0627 1.04997,0.30331 0.21471,0.23309 0.29471,0.50056 0.29471,0.98683 0,0.43184 -0.0755,0.73776 -0.23169,0.92185 l -0.10717,0.12698 0.21018,1.05241 c 0.11472,0.57882 0.21018,1.0662 0.21018,1.0831 0,0.0159 -0.1449,0.0306 -0.32187,0.0306 h -0.32188 l -0.12528,-0.66556 c -0.0694,-0.36607 -0.14943,-0.78997 -0.1766,-0.94201 -0.0453,-0.24788 -0.0604,-0.27648 -0.14641,-0.27648 h -0.0951 v 0.9369 0.93688 l -0.12679,0.0264 c -0.0709,0.0132 -0.21773,0.0264 -0.32753,0.0264 H 86.329 Z m 0.8556,-0.64951 c 0.16339,-0.0569 0.2532,-0.22539 0.27999,-0.52442 0.0377,-0.41962 -0.13585,-0.78176 -0.37584,-0.78176 h -0.10415 v 0.67578 c 0,0.37169 0.0151,0.67578 0.034,0.67578 0.0189,0 0.0936,-0.0211 0.16528,-0.0455 z m 1.38327,1.92291 c -0.0151,-0.34149 -0.0264,-1.35518 -0.0264,-2.25263 v -1.63178 l 0.23546,-1.6e-4 c 0.1283,-1e-4 0.47063,-0.0132 0.75779,-0.0272 l 0.52229,-0.0268 v 0.35448 0.35448 h -0.43006 -0.4301 v 0.59387 0.59387 h 0.30716 0.30716 v 0.36863 0.36863 h -0.30716 -0.30716 v 0.26007 c 0,0.14286 0.0151,0.43007 0.0264,0.63805 l 0.0264,0.37811 0.41358,-0.0132 0.4133,-0.0132 0.0151,0.33788 0.0151,0.33791 h -0.75269 -0.75296 z m 17.06124,0.31328 c -0.11924,-0.0992 -0.22074,-0.18943 -0.22527,-0.20026 0,-0.0106 1.46569,-0.89865 3.26782,-1.97292 1.80217,-1.07426 4.5591,-2.72322 6.1263,-3.66433 2.70471,-1.62379 3.50642,-2.07853 3.78407,-2.14586 l 0.12226,-0.0298 -0.0785,0.0873 c -0.17962,0.19841 -2.97375,2.02035 -5.98626,3.90342 -1.94704,1.21698 -6.77153,4.20738 -6.78364,4.20471 0,-7.9e-4 -0.10717,-0.0834 -0.22565,-0.18256 z m -55.11865,-2.62449 c -4.17368,-2.68163 -7.00257,-4.57676 -7.60059,-5.09171 -0.10264,-0.0897 -0.19962,-0.20241 -0.21207,-0.25083 -0.0226,-0.0778 -0.0151,-0.0849 0.086,-0.0617 0.10717,0.0264 11.14441,6.90201 11.14679,6.94384 0,0.0185 -0.47289,0.32753 -0.50233,0.32753 0,0 -1.32003,-0.84023 -2.91836,-1.86719 z m 52.34848,0.83238 -0.28339,-0.16747 0.12679,-0.10664 c 0.3147,-0.26271 7.1737,-5.33188 9.28593,-6.86276 1.4655,-1.06216 2.79297,-1.97115 2.82769,-1.93636 0.0226,0.0238 -0.53221,0.53755 -1.12797,1.04014 -1.31192,1.10707 -3.93693,3.18277 -7.63859,6.04042 -2.71478,2.09599 -2.80987,2.16764 -2.86115,2.1637 -0.0264,-0.002 -0.17396,-0.0788 -0.33018,-0.17117 z M 56.03898,122.1767 c -6.2935,-5.03714 -11.44635,-9.3468 -11.17546,-9.3468 0.0619,0 0.67255,0.38822 1.04884,0.66665 0.17471,0.12909 1.65825,1.27939 3.29714,2.55647 1.63904,1.27705 4.03063,3.14044 5.31459,4.14081 1.284,1.00041 2.33921,1.83141 2.34528,1.84667 0.0151,0.0287 -0.49345,0.33241 -0.55232,0.33241 -0.0189,0 -0.14339,-0.0884 -0.2781,-0.1963 z m 44.18583,-0.71602 c -0.11622,-0.0727 -0.21811,-0.14207 -0.22528,-0.15426 0,-0.0132 0.8256,-0.78567 1.85051,-1.71922 4.21576,-3.83963 7.57897,-6.92224 9.33511,-8.5562 0.59545,-0.55379 1.27403,-1.17853 1.50852,-1.38836 0.46206,-0.41359 1.07332,-0.88304 1.10653,-0.84986 0.083,0.0833 -4.43368,4.46165 -10.95985,10.62369 -1.2686,1.19793 -2.32834,2.17761 -2.35506,2.17711 -0.0264,-5.3e-4 -0.1449,-0.0603 -0.26037,-0.13309 z m -45.93022,-5.50941 c -4.17806,-4.19193 -6.41739,-6.47471 -5.93299,-6.0478 0.48199,0.42483 3.83732,3.58808 7.18574,6.77437 3.20039,3.04546 3.99535,3.81662 3.97267,3.85334 -0.0151,0.0275 -0.3789,0.24445 -0.40788,0.24445 0,0 -2.17276,-2.17095 -4.81754,-4.8243 z m 13.68383,3.89358 v -0.57535 l 1.64859,-0.0238 c 1.71523,-0.0264 20.92991,-0.10502 20.95169,-0.087 0,0.005 0.0226,0.26757 0.0377,0.58199 l 0.0226,0.5717 -4.62393,0.0272 c -2.54324,0.0159 -7.64206,0.0392 -11.33063,0.054 l -6.70677,0.0272 z m 29.76201,0.14656 -0.28036,-0.16641 0.0996,-0.10849 c 0.0543,-0.0598 0.8811,-0.99315 1.83552,-2.07443 3.44484,-3.90228 6.71134,-7.55246 8.75958,-9.78875 1.18928,-1.29835 2.45453,-2.60033 2.38045,-2.44958 -0.10716,0.21746 -1.1174,1.44593 -3.66562,4.45647 -3.25246,3.84262 -8.78614,10.30145 -8.82376,10.2991 -0.0151,-8.2e-4 -0.15132,-0.0764 -0.30603,-0.168 z m -36.46006,-0.94997 c -0.54651,-0.64586 -4.55978,-5.46796 -5.61277,-6.7442 -2.53041,-3.06633 -4.32832,-5.3304 -4.5245,-5.69693 -0.0981,-0.18362 0.11924,0.008 0.66183,0.58495 1.76006,1.86942 4.54578,5.05801 10.15934,11.62838 0.19282,0.22569 0.19433,0.23018 0.10566,0.27399 -0.0498,0.0238 -0.18415,0.0992 -0.29848,0.16641 l -0.20754,0.1217 z m 9.5974,-0.1037 c -0.50595,-0.13177 -0.92001,-0.50696 -1.16114,-1.05157 -0.22792,-0.51442 -0.22754,-0.50764 -0.25169,-4.09401 -0.0226,-3.69185 -0.034,-3.53822 0.25282,-4.14608 0.18905,-0.40034 0.45195,-0.67258 0.82979,-0.85939 0.28376,-0.14022 0.33395,-0.15132 0.76492,-0.16773 0.50851,-0.0185 0.80156,0.0389 1.11438,0.22222 0.26678,0.15637 0.57764,0.51489 0.73213,0.84436 0.21131,0.4514 0.26678,0.80475 0.26678,1.70888 v 0.77991 h -0.69639 -0.69621 l -1.9e-4,-0.76798 c -2.6e-4,-0.84285 -0.0302,-1.01511 -0.20414,-1.21041 -0.10415,-0.1172 -0.14037,-0.13098 -0.34225,-0.13098 -0.2849,0 -0.41207,0.10717 -0.50444,0.42471 -0.0589,0.19947 -0.0619,0.55826 -0.0377,3.31942 0.0302,3.39231 0.0302,3.40117 0.26981,3.62928 0.10264,0.0992 0.15999,0.1209 0.30603,0.118 0.23018,-0.005 0.37621,-0.10264 0.47334,-0.31675 0.0664,-0.14947 0.077,-0.27497 0.077,-1.00027 v -0.82938 h 0.70013 0.70001 l -0.0151,0.95228 c -0.0151,0.9097 -0.0226,0.96653 -0.12679,1.27284 -0.31773,0.91339 -0.95654,1.38373 -1.86964,1.37675 -0.17018,-0.002 -0.43244,-0.0347 -0.58364,-0.0741 z m 3.14699,-0.91674 c -0.0151,-0.52374 -0.0377,-2.81995 -0.0498,-5.10267 l -0.0226,-4.15045 1.09989,0.0159 c 1.05857,0.0159 1.11091,0.0211 1.39279,0.12275 0.79929,0.28886 1.30256,0.8823 1.53765,1.8132 0.0815,0.32003 0.0936,0.46846 0.0906,1.12633 0,0.85936 -0.0619,1.17171 -0.32527,1.70808 -0.35546,0.72484 -1.10653,1.22314 -1.96454,1.30357 l -0.29735,0.0279 0.0226,2.04352 0.0226,2.04348 H 74.79256 74.0539 Z m 2.06352,-4.76617 c 0.21056,-0.0844 0.35056,-0.25267 0.42871,-0.51643 0.0755,-0.25426 0.086,-1.34603 0.0151,-1.67811 -0.10264,-0.49125 -0.3581,-0.72153 -0.84322,-0.76044 -0.2698,-0.0211 -0.27093,-0.0211 -0.24452,0.0764 0.0151,0.054 0.0264,0.75046 0.0264,1.54765 l 6.5e-4,1.44937 0.22527,-0.0264 c 0.12377,-0.0132 0.29924,-0.0561 0.38931,-0.0921 z m 3.53268,5.57447 c -0.77563,-0.16853 -1.25788,-0.71356 -1.44878,-1.63769 -0.10717,-0.519 -0.14943,-1.24846 -0.074,-1.25137 0.0302,-7.9e-4 0.35886,-0.034 0.72749,-0.0733 0.4513,-0.0479 0.6742,-0.0574 0.68265,-0.0287 0,0.0238 0.0226,0.22701 0.0377,0.4522 0.0226,0.40478 0.0845,0.67977 0.2015,0.90719 0.17547,0.33954 0.58353,0.43056 0.82903,0.18494 0.19245,-0.1926 0.23773,-0.35535 0.24075,-0.86696 0,-0.44851 0,-0.48664 -0.13736,-0.79864 -0.0887,-0.20637 -0.45134,-0.79005 -0.97989,-1.57686 -0.46161,-0.68705 -0.91778,-1.41508 -1.01363,-1.61779 -0.35697,-0.75481 -0.49628,-1.35143 -0.44964,-1.925 0.077,-0.95053 0.45904,-1.60621 1.12796,-1.93763 l 0.3049,-0.15131 0.57534,5.3e-4 c 0.70756,6.6e-4 0.91733,0.0683 1.29486,0.4179 0.29169,0.26999 0.48516,0.63787 0.60946,1.15874 0.0936,0.39011 0.15659,1.06379 0.0996,1.06602 -0.0226,7.9e-4 -0.34715,0.0343 -0.72673,0.0749 -0.48017,0.0511 -0.69401,0.0598 -0.70288,0.0294 0,-0.0238 -0.0226,-0.20162 -0.034,-0.39402 -0.0377,-0.62496 -0.26339,-1.02215 -0.57946,-1.02215 -0.1981,0 -0.37395,0.16377 -0.44979,0.42008 -0.0725,0.24418 -0.0815,0.71768 -0.0151,0.95201 0.0876,0.32018 0.37969,0.82669 1.0379,1.79941 1.33361,1.97151 1.58232,2.55954 1.52497,3.60666 -0.0709,1.28756 -0.57278,2.00982 -1.54037,2.21491 -0.33395,0.0709 -0.80292,0.0696 -1.1388,-0.003 z m 15.72668,-0.25347 -0.29735,-0.18256 0.0906,-0.12988 c 0.0498,-0.0714 0.54202,-0.7565 1.09275,-1.52239 5.32459,-7.40351 9.95686,-13.55489 9.95686,-13.22223 0,0.21879 -1.57433,2.52697 -6.58821,9.65896 -2.85436,4.0601 -3.86222,5.48619 -3.91108,5.53455 -0.034,0.0347 -0.12226,-1.4e-4 -0.34452,-0.13653 z m -12.72156,-4.09777 c -0.0151,-2.33712 -0.034,-4.62907 -0.0453,-5.09322 l -0.0227,-0.84392 0.91096,-0.0211 c 0.50085,-0.0132 0.91593,-0.0185 0.92212,-0.0132 0.0226,0.0185 0.94522,4.73055 0.97423,4.96416 0.0302,0.24577 0.0966,0.22781 0.10113,-0.0272 0,-0.0788 0.19962,-1.22153 0.4412,-2.53933 l 0.43927,-2.396 0.906,-0.0106 0.90613,-0.0106 0.0226,1.77217 c 0.0151,0.97468 0.0377,3.26965 0.0498,5.09991 l 0.0226,3.32779 h -0.70028 -0.70032 v -1.8159 c 0,-2.37479 -0.0468,-5.02396 -0.086,-5.02396 -0.0408,0 0,-0.2246 -0.53844,3.54282 l -0.46097,3.27656 -0.31357,0.0132 -0.31358,0.0132 -0.0226,-0.1143 c -0.0226,-0.10981 -0.96846,-6.13453 -1.02551,-6.53434 -0.0151,-0.10686 -0.0483,-0.19445 -0.0725,-0.19445 -0.034,0 -0.0377,0.94577 -0.0151,3.44041 l 0.0264,3.44041 h -0.69277 -0.69247 z m -19.16718,2.61988 c -0.31206,-0.46666 -1.84409,-2.75608 -3.40453,-5.08756 -4.15799,-6.21204 -5.79661,-8.73055 -5.79661,-8.90963 0,-0.24207 2.13718,2.70161 6.33455,8.72531 2.22254,3.18968 3.98671,5.74934 3.98671,5.78445 0,0.0287 -0.50217,0.34165 -0.54081,0.33731 0,-7.7e-4 -0.26754,-0.38319 -0.57931,-0.84989 z m 29.56221,0.10317 -0.28942,-0.17354 0.49764,-0.8601 c 0.27395,-0.47305 1.63165,-2.82297 3.01734,-5.22202 1.38584,-2.39907 2.82904,-4.88723 3.20733,-5.52923 1.6961,-2.87801 3.25594,-5.34154 3.25594,-5.14198 0,0.10849 -0.62519,1.26685 -4.13357,7.66086 -1.85104,3.3731 -5.22225,9.44 -5.24561,9.43984 -0.0151,-8e-5 -0.15131,-0.0783 -0.3098,-0.17381 z m -26.79595,-0.89913 c -2.79448,-5.1042 -7.01522,-13.27479 -7.66407,-14.83613 -0.72073,-1.73364 0.9022,1.05382 5.78963,9.94422 1.45932,2.65464 2.6377,4.84083 2.61838,4.85818 -0.0189,0.0185 -0.15811,0.0992 -0.30754,0.18177 l -0.27282,0.15026 z m 24.63813,-0.37591 c -0.0619,-0.0471 -0.0725,-0.12883 -0.0725,-0.61033 v -0.5559 l 0.42482,-0.9345 c 2.84078,-6.24826 5.5773,-12.00467 5.66544,-11.91665 0.0392,0.0394 -0.28603,0.9472 -0.78756,2.19682 -0.55575,1.3847 -0.91352,2.22123 -2.85587,6.67601 -0.73171,1.67822 -1.53991,3.53512 -1.79628,4.12645 -0.25622,0.59133 -0.47535,1.07453 -0.48667,1.07382 -0.0151,-7.2e-4 -0.0528,-0.0264 -0.0936,-0.0558 z M 66.89604,110.4874 c -1.82538,-4.40943 -3.21122,-7.96468 -3.31805,-8.51167 l -0.0264,-0.14339 0.11018,0.18441 c 0.27811,0.46849 1.57928,3.3109 3.28035,7.16517 l 0.71285,1.61548 -0.0151,0.73211 -0.0151,0.7321 z m 1.00046,-3.07626 v -0.59022 l 3.34827,-0.0264 c 1.84153,-0.0132 6.92847,-0.0384 11.30422,-0.0532 l 7.9559,-0.0272 v 0.57329 0.57329 l -2.83625,0.0268 c -1.55988,0.0159 -6.4764,0.0366 -10.92532,0.0479 -4.44888,0.0132 -8.25956,0.0313 -8.46774,0.0434 l -0.37908,0.0211 z m 22.89721,-0.38745 v -0.54263 h -0.10113 c -0.0574,0 -0.10264,-0.005 -0.10264,-0.0132 0,-0.0238 1.0457,-3.00962 1.48697,-4.2468 0.76413,-2.14285 1.25744,-3.453824 1.28804,-3.423266 0.0513,0.0529 -1.02231,3.753356 -2.23812,7.703296 l -0.32754,1.06487 z m -21.70302,-0.81912 c -0.83156,-2.75307 -2.07001,-7.339624 -2.00043,-7.409071 0.034,-0.03434 0.48633,1.269441 1.52814,4.408931 0.59406,1.79081 1.08027,3.26066 1.08027,3.26632 0,0.005 -0.11924,0.0106 -0.26226,0.0106 h -0.26225 z m 3.74245,0.18441 c -0.16339,-0.72758 -1.10204,-6.528521 -1.24962,-7.728322 -0.13887,-1.1375 -0.0996,-1.101969 0.22263,0.198409 0.32905,1.326873 1.66078,7.411023 1.66078,7.587833 0,0.0185 -0.13735,0.034 -0.30641,0.034 -0.28414,0 -0.30791,-0.008 -0.32716,-0.0923 z m 3.52359,-0.12275 c -0.0302,-0.26113 -0.20339,-2.71978 -0.28754,-4.04452 -0.0966,-1.53218 -0.15283,-2.990326 -0.12075,-3.17126 l 0.0302,-0.166674 0.034,0.120638 c 0.0634,0.234672 0.33319,2.533636 0.64839,5.551926 0.0906,0.86727 0.17547,1.6552 0.18792,1.75092 l 0.0226,0.17407 H 76.62627 76.381 Z m 3.49962,-0.3891 c 3e-4,-1.29894 0.12528,-5.79673 0.20452,-7.362029 0.0589,-1.15636 0.0845,-1.413016 0.1434,-1.413016 0.0377,0 0.0589,0.142863 0.077,0.481218 0.0423,0.739777 0.10566,4.802097 0.10566,6.962727 v 1.93524 H 80.1209 79.85487 Z m 3.49601,0.47101 c 0.0151,-0.0733 0.0815,-0.58464 0.14943,-1.13655 0.17659,-1.4109 0.64103,-4.87609 0.73518,-5.488274 0.0438,-0.281576 0.11924,-0.63998 0.16679,-0.796421 0.074,-0.242332 0.0951,-0.27301 0.13131,-0.206899 0.0528,0.09709 -0.0151,1.356794 -0.15471,3.010224 -0.12981,1.48619 -0.42568,4.5379 -0.45149,4.65889 -0.0189,0.0849 -0.0408,0.0923 -0.31018,0.0923 h -0.29056 z m 3.488,0 c 0.23509,-1.11602 1.65036,-6.820467 1.92768,-7.77052 0.25395,-0.869388 0.28112,-0.874524 0.13735,-0.02641 -0.16867,0.992437 -1.27445,6.78371 -1.47456,7.7167 l -0.0468,0.21298 h -0.2864 -0.28641 z"
       id="path4" />
  </g>
</svg>
